<?xml version="1.0" encoding="utf-8"?>
<!-- Generator: Adobe Illustrator 29.4.0, SVG Export Plug-In . SVG Version: 9.03 Build 55982)  -->
<svg version="1.0" id="Layer_1" xmlns="http://www.w3.org/2000/svg" xmlns:xlink="http://www.w3.org/1999/xlink" x="0px" y="0px"
	 viewBox="0 0 564.96 2140.52" enable-background="new 0 0 564.96 2140.52" xml:space="preserve">
<g>
	
		<linearGradient id="SVGID_1_" gradientUnits="userSpaceOnUse" x1="-4447.1069" y1="-106.7223" x2="-4447.1069" y2="-141.5593" gradientTransform="matrix(-0.3919 0.3749 -0.6913 -0.7226 -1525.5682 3331.448)">
		<stop  offset="1.984130e-03" style="stop-color:#DD1D33"/>
		<stop  offset="1" style="stop-color:#FF4827"/>
	</linearGradient>
	<path fill-rule="evenodd" clip-rule="evenodd" fill="url(#SVGID_1_)" d="M320.14,1761.71c0,0-12.98-8.91-24.08-25.17l-9.04,8.65
		c0,0,7.01,15.15,27.42,21.54L320.14,1761.71z"/>
	
		<linearGradient id="SVGID_00000104692152621089095530000006415651560978879149_" gradientUnits="userSpaceOnUse" x1="-433.2379" y1="-535.9239" x2="-433.2379" y2="-572.6399" gradientTransform="matrix(0.1502 0.5211 -0.9609 0.2769 -91.2329 2183.334)">
		<stop  offset="5.586590e-03" style="stop-color:#8343D6"/>
		<stop  offset="1" style="stop-color:#8143E5"/>
	</linearGradient>
	<path fill-rule="evenodd" clip-rule="evenodd" fill="url(#SVGID_00000104692152621089095530000006415651560978879149_)" d="
		M391.02,1794.62c0,0-16.39,6.89-29.04,8.37l-2.6,8.69c0,0,19.48-0.02,35.3-10.09L391.02,1794.62z"/>
	
		<linearGradient id="SVGID_00000183216348716989170760000006942980944050682034_" gradientUnits="userSpaceOnUse" x1="-2343.6548" y1="-669.7946" x2="-2343.6548" y2="-712.601" gradientTransform="matrix(-0.2054 0.5019 -0.9255 -0.3788 -797.1068 3013.2659)">
		<stop  offset="5.586590e-03" style="stop-color:#8343D6"/>
		<stop  offset="1" style="stop-color:#8143E5"/>
	</linearGradient>
	<path fill-rule="evenodd" clip-rule="evenodd" fill="url(#SVGID_00000183216348716989170760000006942980944050682034_)" d="
		M346.58,2100.1c0,0-17.19-3.17-35.8-14.66l-6.31,4.56c0,0,15.07,19.49,36.61,22.12L346.58,2100.1z"/>
	
		<linearGradient id="SVGID_00000062877292515581301440000017688037106619148719_" gradientUnits="userSpaceOnUse" x1="1931.6876" y1="-22.4794" x2="1931.6876" y2="-67.9276" gradientTransform="matrix(0.3989 0.3674 -0.6775 0.7355 -324.5646 971.5103)">
		<stop  offset="0" style="stop-color:#FFA700"/>
		<stop  offset="1" style="stop-color:#FFBF00"/>
	</linearGradient>
	<path fill-rule="evenodd" clip-rule="evenodd" fill="url(#SVGID_00000062877292515581301440000017688037106619148719_)" d="
		M486.96,1626.61c0,0-12.95,16.83-31.26,31.1l5.63,7.08c0,0,24.97-7.79,35.55-28.25L486.96,1626.61z"/>
	
		<linearGradient id="SVGID_00000033366962641424915790000012967102391780898962_" gradientUnits="userSpaceOnUse" x1="-5096.1411" y1="-90.1096" x2="-5096.1411" y2="-124.9467" gradientTransform="matrix(-0.3919 0.3749 -0.6913 -0.7226 -1525.5682 3331.448)">
		<stop  offset="1.984130e-03" style="stop-color:#DD1D33"/>
		<stop  offset="1" style="stop-color:#FF4827"/>
	</linearGradient>
	<path fill-rule="evenodd" clip-rule="evenodd" fill="url(#SVGID_00000033366962641424915790000012967102391780898962_)" d="
		M563.01,1506.38c0,0-12.98-8.91-24.08-25.17l-9.04,8.65c0,0,7.01,15.15,27.42,21.54L563.01,1506.38z"/>
	
		<linearGradient id="SVGID_00000071532343775573311970000017777907461042441617_" gradientUnits="userSpaceOnUse" x1="1365.1298" y1="-231.9683" x2="1365.1298" y2="-277.4166" gradientTransform="matrix(0.3989 0.3674 -0.6775 0.7355 -324.5646 971.5103)">
		<stop  offset="0" style="stop-color:#FFA700"/>
		<stop  offset="1" style="stop-color:#FFBF00"/>
	</linearGradient>
	<path fill-rule="evenodd" clip-rule="evenodd" fill="url(#SVGID_00000071532343775573311970000017777907461042441617_)" d="
		M402.89,1264.37c0,0-12.95,16.83-31.26,31.1l5.63,7.08c0,0,24.97-7.79,35.55-28.25L402.89,1264.37z"/>
</g>
<path opacity="0.48" fill-rule="evenodd" clip-rule="evenodd" fill="#9A4F8B" d="M545.8,1902.18c-10.17-0.15-18.62-1.7-24.09-3.05
	l-6.75-1.98l-0.2,19.86l-0.06,0.03l0.26-26.78h-5.85l-15.21,9.11l0,0l-14.55,8.71l0.03-0.1l-56.56,33.87l-1.35,0l-4.46,3.49
	l6.71,126.63l0.04-0.13l1.88,35.57l-67.24,6.24c0,0-14.17,13.43-117.58,19.46v31.06h155.78h100.57l0.3-1.25l-1.03,0.01
	c0.12-0.72,0.27-1.72,0.45-2.96h10.98h1.22h3.25h50.18H565l10.21-239.84l0,0l1.22-28.76l-5.7-1.09L545.8,1902.18z"/>
<g>
	<defs>
		<rect id="SVGID_00000181801290209566079050000014365898603152179897_" x="-3275.04" y="-2340.38" width="3840" height="2160"/>
	</defs>
	<clipPath id="SVGID_00000032647262557237268790000006171062153878411693_">
		<use xlink:href="#SVGID_00000181801290209566079050000014365898603152179897_"  overflow="visible"/>
	</clipPath>
	<g opacity="0.25" clip-path="url(#SVGID_00000032647262557237268790000006171062153878411693_)">
		<path fill="#EEEEEE" d="M-3312.21-1638.62c368.56,33.36,747.19-56.03,1061.91-250.71c314.73-194.67,563.78-493.54,698.52-838.21
			c49.83-127.48,87.63-266.14,183.91-363.43c176.07-177.92,503.19-134.12,665.52,56.41c162.33,190.53,172.26,479.14,72.68,708.78
			c-48.26,111.28-118.82,211.71-168.02,322.58c-49.2,110.87-75.84,240.01-31.4,352.87c54.8,139.16,207.64,220.33,356.74,232
			c149.1,11.67,296.3-33.61,437.73-82.26c109.62-37.7,220.72-78.21,336.6-81.44c115.87-3.24,239.92,37.84,305.64,133.32
			c111.38,161.8,3,393.72-157.92,506.36C288.77-829.71,88.38-790.59-86.72-701.57C-398.22-543.2-606.11-241.98-819.8,34.52
			c-213.69,276.49-470.36,554.26-812.21,626.72c-75.03,15.9-158.22,19.89-223.51-20.36c-113.04-69.7-118.6-230.59-98.91-361.93
			c21.32-142.22,56.83-284.21,47.98-427.74c-8.85-143.53-72.46-294.17-199.86-360.87c-139.07-72.81-307.9-27.63-457.82,18.92
			c-265.04,82.29-530.08,164.57-795.13,246.86c-80.91,25.12-163.47,50.49-248.17,49.37c-84.71-1.12-173.48-33.17-222.34-102.38
			c-87.56-124.03-14.12-293.68,60.23-426.05c167.76-298.68,335.52-597.35,503.28-896.03"/>
	</g>
</g>
<g opacity="0.48">
	<path fill-rule="evenodd" clip-rule="evenodd" fill="#9A4F8B" d="M477.23,531.74l-22.52-4.35c-2.2,1.77-5.46,4.62-9.55,8.93
		l-0.02-0.01l0,0l0.01,0.01l-15.53-3.33l10.44,8.99c-1.03,1.18-2.07,2.45-3.16,3.8l0,0l0,0c0,0,0,0,0,0l-0.89-0.15l-2.83-0.49
		l2.67,1.97c-7.94,10.02-17.36,24.04-27.14,43.29l11.43,9.24l-3.29,4.38l-122.52-71.59L88.38,394.72
		c-7.89,8.91-12.9,12.11-12.9,12.11l-30.41-12.97c6.65-5.85,12.36-11.33,17.41-16.46L44.2,365.17c8.15-42.14,43.8-58.22,43.8-58.22
		l159.11,14.94l233.53,205.3L477.23,531.74z M99.62,380.37c-0.01,0.01-0.02,0.02-0.02,0.03l18.77,6.65l0,0l13.27,4.63L99.62,380.37z
		 M137.98,394.01l47.52,16.84l-0.26-0.21c0,0,0.01-0.04,0.02-0.05c-0.01,0.01-0.01,0.03-0.02,0.04l-34.5-12.2l-0.04,0.08
		L137.98,394.01L137.98,394.01z M49.63,362.7l20.12,7.13c0,0,0.01-0.01,0.01-0.01l-8.72-3.08c0,0,0,0.01,0,0.01l-7.13-2.53
		L49.63,362.7c0,0,0.75-3.97,2.62-9.72C50.2,358.81,49.63,362.7,49.63,362.7z"/>
</g>
<g>
	<g>
		<path fill-rule="evenodd" clip-rule="evenodd" fill="#B32742" d="M499.66,506.63l-112.41-27.75L74.03,241.38
			c0,0-21.06,3.11-44.08,51.01l-4.76-1.97c0,0,11.75-48.89,46.95-56.64l177.29,25.6L499.66,506.63z"/>
		<polygon fill-rule="evenodd" clip-rule="evenodd" fill="#E55947" points="503.79,501.69 251.19,255.66 246.4,261.82 
			499.66,506.63 		"/>
		<path fill-rule="evenodd" clip-rule="evenodd" fill="#EEE1E9" d="M74.03,241.38l167.11,29.58c0,0-35.84,25-65.15,81.62
			L29.94,292.39C29.94,292.39,47.36,243.57,74.03,241.38z"/>
		<path fill-rule="evenodd" clip-rule="evenodd" fill="#8C6FA4" d="M478.07,497.97c0,0-5.72,3.16-14.99,11.99l-0.02-0.01l-17.4-4.67
			l11.31,10.8c-1.23,1.28-2.49,2.66-3.8,4.12l-4.19-0.95l2.93,2.39c-9.59,10.9-21.1,26.27-33.31,47.56L175.99,352.59
			c0,0,23.2-58.81,65.16-81.62L478.07,497.97z"/>
		
			<linearGradient id="SVGID_00000111879086384907203500000004991424752670412452_" gradientUnits="userSpaceOnUse" x1="-523.5165" y1="-228.081" x2="-352.9145" y2="-228.081" gradientTransform="matrix(0.7673 0.6413 -0.6413 0.7673 323.9665 729.4301)">
			<stop  offset="0" style="stop-color:#FFBF00"/>
			<stop  offset="1" style="stop-color:#FFA700"/>
		</linearGradient>
		<path fill-rule="evenodd" clip-rule="evenodd" fill="url(#SVGID_00000111879086384907203500000004991424752670412452_)" d="
			M251.19,255.66L71.86,229.52c0,0-41.31,16.14-52.98,63.4L171.95,361l6.18-7.4L25.18,290.42c0,0,7.57-38.29,46.95-56.64
			l174.27,28.03L251.19,255.66z"/>
		<polygon fill-rule="evenodd" clip-rule="evenodd" fill="#E55947" points="178.13,353.6 431.07,580.22 427.09,584.99 171.95,361 		
			"/>
		<polygon fill-rule="evenodd" clip-rule="evenodd" fill="#B32742" points="427.09,584.99 292.47,496.81 18.88,292.91 171.95,361 		
			"/>
		<polygon fill-rule="evenodd" clip-rule="evenodd" fill="#745090" points="222.64,284.13 81.86,255.27 218.62,287.86 
			445.66,505.29 463.06,509.96 		"/>
		<polygon fill-rule="evenodd" clip-rule="evenodd" fill="#745090" points="212.33,294.38 102.18,266.73 211.34,295.46 
			448.97,519.25 453.17,520.2 		"/>
		<path opacity="0.8" fill-rule="evenodd" clip-rule="evenodd" fill="#9A4F8B" d="M29.94,292.39l7.93,3.28
			c0,0,9.92-41.55,37.57-51.09l160.18,29.68l5.52-3.29L74.03,241.38C74.03,241.38,50.47,237.28,29.94,292.39z"/>
		<polygon opacity="0.8" fill-rule="evenodd" clip-rule="evenodd" fill="#B02463" points="82.57,338.1 179.26,383.11 215.83,413.5 
			118.92,363.88 		"/>
		<path fill-rule="evenodd" clip-rule="evenodd" fill="#5C326C" d="M74.03,241.38c0,0-23.75,0.95-44.08,51.01
			C29.94,292.39,42.55,243.54,74.03,241.38z"/>
	</g>
	<g>
		
			<linearGradient id="SVGID_00000067941496985034494400000017813335664770252446_" gradientUnits="userSpaceOnUse" x1="-7.404" y1="173.869" x2="-7.404" y2="158.0394" gradientTransform="matrix(0.9017 0.4324 -0.4324 0.9017 223.2279 122.3264)">
			<stop  offset="0" style="stop-color:#52146A"/>
			<stop  offset="0.9944" style="stop-color:#511FA4"/>
		</linearGradient>
		<path fill-rule="evenodd" clip-rule="evenodd" fill="url(#SVGID_00000067941496985034494400000017813335664770252446_)" d="
			M166.63,283.69c0,0-8.31-17.08-19.2-22.44l-8.45-2l-17.58-2.13c0,0,19.4,10.21,25.25,21.32L166.63,283.69z"/>
		
			<linearGradient id="SVGID_00000168827092993243003780000016459045841134929850_" gradientUnits="userSpaceOnUse" x1="-52.6617" y1="272.0612" x2="-52.6617" y2="158.0394" gradientTransform="matrix(0.9017 0.4324 -0.4324 0.9017 223.2279 122.3264)">
			<stop  offset="5.586590e-03" style="stop-color:#8343D6"/>
			<stop  offset="1" style="stop-color:#8143E5"/>
		</linearGradient>
		<path fill-rule="evenodd" clip-rule="evenodd" fill="url(#SVGID_00000168827092993243003780000016459045841134929850_)" d="
			M147.43,261.25c0,0-25.32-10.12-52.74,32.43C70.38,331.4,51.9,341.9,51.9,341.9l-33.69-16.45
			c53.81-42.64,57.61-69.06,103.19-68.33C121.4,257.11,138.3,258.26,147.43,261.25z"/>
		<polygon opacity="0.8" fill-rule="evenodd" clip-rule="evenodd" fill="#9A4F8B" points="166.63,283.69 137.58,336.85 
			123.42,331.01 118.06,337.03 98.21,328.2 101.61,321.99 116.39,328.02 146.65,278.43 		"/>
	</g>
</g>
</svg>
