<?xml version="1.0" encoding="utf-8"?>
<!-- Generator: Adobe Illustrator 29.4.0, SVG Export Plug-In . SVG Version: 9.03 Build 55982)  -->
<svg version="1.0" id="Layer_1" xmlns="http://www.w3.org/2000/svg" xmlns:xlink="http://www.w3.org/1999/xlink" x="0px" y="0px"
	 viewBox="0 0 545.68 2168.01" enable-background="new 0 0 545.68 2168.01" xml:space="preserve">
<g>
	
		<linearGradient id="SVGID_1_" gradientUnits="userSpaceOnUse" x1="-1318.7803" y1="2363.3562" x2="-1318.7803" y2="2303.7734" gradientTransform="matrix(0.2206 0.4954 -0.9135 0.4068 2509.1702 312.171)">
		<stop  offset="1.984130e-03" style="stop-color:#DD1D33"/>
		<stop  offset="1" style="stop-color:#FF4827"/>
	</linearGradient>
	<path fill-rule="evenodd" clip-rule="evenodd" fill="url(#SVGID_1_)" d="M108.76,584.81c0,0-21.83,15.76-54.43,24.24l8.7,19.54
		c0,0,27.38-3.69,53.23-24.85L108.76,584.81z"/>
	
		<linearGradient id="SVGID_00000068654243218405718850000000328159264157829053_" gradientUnits="userSpaceOnUse" x1="1387.9081" y1="3397.5032" x2="1387.9081" y2="3362.666" gradientTransform="matrix(-0.3919 0.3749 -0.6913 -0.7226 3027.7024 2120.342)">
		<stop  offset="1.984130e-03" style="stop-color:#DD1D33"/>
		<stop  offset="1" style="stop-color:#FF4827"/>
	</linearGradient>
	<path fill-rule="evenodd" clip-rule="evenodd" fill="url(#SVGID_00000068654243218405718850000000328159264157829053_)" d="
		M164.2,205.99c0,0-12.98-8.91-24.08-25.17l-9.04,8.65c0,0,7.01,15.15,27.42,21.54L164.2,205.99z"/>
	
		<linearGradient id="SVGID_00000037667401916184597440000004051653511461313465_" gradientUnits="userSpaceOnUse" x1="-42.5688" y1="2540.1401" x2="-42.5688" y2="2499.0178" gradientTransform="matrix(-0.0128 0.5422 -0.9997 -0.0236 2822.2117 739.9329)">
		<stop  offset="1.984130e-03" style="stop-color:#DD1D33"/>
		<stop  offset="1" style="stop-color:#FF4827"/>
	</linearGradient>
	<path fill-rule="evenodd" clip-rule="evenodd" fill="url(#SVGID_00000037667401916184597440000004051653511461313465_)" d="
		M318.37,650.99c0,0-14.5,9.45-34.83-0.82l-0.29,12.51c0,0,22.28,4.99,41.25-4.89L318.37,650.99z"/>
	
		<linearGradient id="SVGID_00000041983812314880271770000012020153052847871622_" gradientUnits="userSpaceOnUse" x1="-1684.4917" y1="2328.3074" x2="-1684.4917" y2="2291.5913" gradientTransform="matrix(0.1502 0.5211 -0.9609 0.2769 2693.0024 486.5446)">
		<stop  offset="5.586590e-03" style="stop-color:#8343D6"/>
		<stop  offset="1" style="stop-color:#8143E5"/>
	</linearGradient>
	<path fill-rule="evenodd" clip-rule="evenodd" fill="url(#SVGID_00000041983812314880271770000012020153052847871622_)" d="
		M235.08,238.91c0,0-16.39,6.89-29.04,8.37l-2.6,8.69c0,0,19.48-0.02,35.3-10.09L235.08,238.91z"/>
	
		<linearGradient id="SVGID_00000081612619906904468610000000814778154036161152_" gradientUnits="userSpaceOnUse" x1="646.1022" y1="3098.5952" x2="646.1022" y2="3055.7888" gradientTransform="matrix(-0.2054 0.5019 -0.9255 -0.3788 3148.6914 1384.4609)">
		<stop  offset="5.586590e-03" style="stop-color:#8343D6"/>
		<stop  offset="1" style="stop-color:#8143E5"/>
	</linearGradient>
	<path fill-rule="evenodd" clip-rule="evenodd" fill="url(#SVGID_00000081612619906904468610000000814778154036161152_)" d="
		M190.64,544.39c0,0-17.19-3.17-35.8-14.66l-6.31,4.55c0,0,15.07,19.49,36.61,22.12L190.64,544.39z"/>
	
		<linearGradient id="SVGID_00000058590824705828184310000011228967464170137482_" gradientUnits="userSpaceOnUse" x1="-1397.333" y1="1154.4772" x2="-1397.333" y2="1109.0289" gradientTransform="matrix(0.3989 0.3674 -0.6775 0.7355 1644.827 -226.7711)">
		<stop  offset="0" style="stop-color:#FFA700"/>
		<stop  offset="1" style="stop-color:#FFBF00"/>
	</linearGradient>
	<path fill-rule="evenodd" clip-rule="evenodd" fill="url(#SVGID_00000058590824705828184310000011228967464170137482_)" d="
		M331.02,70.89c0,0-12.95,16.83-31.26,31.1l5.63,7.08c0,0,24.97-7.79,35.55-28.25L331.02,70.89z"/>
	
		<linearGradient id="SVGID_00000034805913867655887050000002170134104860768934_" gradientUnits="userSpaceOnUse" x1="-443.8441" y1="1656.1274" x2="-443.8441" y2="1610.6791" gradientTransform="matrix(0.3989 0.3674 -0.6775 0.7355 1644.827 -226.7711)">
		<stop  offset="0" style="stop-color:#FFA700"/>
		<stop  offset="1" style="stop-color:#FFBF00"/>
	</linearGradient>
	<path fill-rule="evenodd" clip-rule="evenodd" fill="url(#SVGID_00000034805913867655887050000002170134104860768934_)" d="
		M371.5,790.17c0,0-12.95,16.83-31.26,31.1l5.63,7.08c0,0,24.97-7.79,35.55-28.25L371.5,790.17z"/>
	
		<linearGradient id="SVGID_00000012460304750643236470000011785721493182294423_" gradientUnits="userSpaceOnUse" x1="303.3386" y1="2714.3613" x2="303.3386" y2="2654.7786" gradientTransform="matrix(0.2206 -0.4954 -0.9135 -0.4068 2509.1702 3237.2988)">
		<stop  offset="1.984130e-03" style="stop-color:#DD1D33"/>
		<stop  offset="1" style="stop-color:#FF4827"/>
	</linearGradient>
	<path fill-rule="evenodd" clip-rule="evenodd" fill="url(#SVGID_00000012460304750643236470000011785721493182294423_)" d="
		M145.95,2018.28c0,0-21.83-15.76-54.43-24.24l8.7-19.54c0,0,27.38,3.69,53.23,24.85L145.95,2018.28z"/>
	
		<linearGradient id="SVGID_00000179630879574044919480000011980552121989773756_" gradientUnits="userSpaceOnUse" x1="1700.297" y1="2480.6172" x2="1700.297" y2="2439.4949" gradientTransform="matrix(-0.0128 -0.5422 -0.9997 0.0236 2822.2117 2809.5369)">
		<stop  offset="1.984130e-03" style="stop-color:#DD1D33"/>
		<stop  offset="1" style="stop-color:#FF4827"/>
	</linearGradient>
	<path fill-rule="evenodd" clip-rule="evenodd" fill="url(#SVGID_00000179630879574044919480000011980552121989773756_)" d="
		M355.56,1952.09c0,0-14.5-9.45-34.83,0.82l-0.29-12.51c0,0,22.28-4.99,41.25,4.89L355.56,1952.09z"/>
	
		<linearGradient id="SVGID_00000014600567138880167550000006493435162962903947_" gradientUnits="userSpaceOnUse" x1="2235.2017" y1="2705.7295" x2="2235.2017" y2="2662.9231" gradientTransform="matrix(-0.2054 -0.5019 -0.9255 0.3788 3148.6914 2165.009)">
		<stop  offset="5.586590e-03" style="stop-color:#8343D6"/>
		<stop  offset="1" style="stop-color:#8143E5"/>
	</linearGradient>
	<path fill-rule="evenodd" clip-rule="evenodd" fill="url(#SVGID_00000014600567138880167550000006493435162962903947_)" d="
		M227.83,2058.69c0,0-17.19,3.17-35.8,14.66l-6.31-4.55c0,0,15.07-19.49,36.61-22.12L227.83,2058.69z"/>
	
		<linearGradient id="SVGID_00000008119650589697908380000005580264882626170548_" gradientUnits="userSpaceOnUse" x1="788.9224" y1="2327.0562" x2="788.9224" y2="2281.6079" gradientTransform="matrix(0.3989 -0.3674 -0.6775 -0.7355 1644.827 3776.241)">
		<stop  offset="0" style="stop-color:#FFA700"/>
		<stop  offset="1" style="stop-color:#FFBF00"/>
	</linearGradient>
	<path fill-rule="evenodd" clip-rule="evenodd" fill="url(#SVGID_00000008119650589697908380000005580264882626170548_)" d="
		M408.69,1812.91c0,0-12.95-16.83-31.26-31.1l5.63-7.08c0,0,24.97,7.79,35.55,28.25L408.69,1812.91z"/>
</g>
<g>
	<defs>
		<rect id="SVGID_00000181801290209566079050000014365898603152179897_" x="-7.76" y="-2332.37" width="3840" height="2160"/>
	</defs>
	<clipPath id="SVGID_00000067951672308404131050000008568442906673123985_">
		<use xlink:href="#SVGID_00000181801290209566079050000014365898603152179897_"  overflow="visible"/>
	</clipPath>
	<g opacity="0.25" clip-path="url(#SVGID_00000067951672308404131050000008568442906673123985_)">
		<path fill="#EEEEEE" d="M-44.92-1630.61c368.56,33.36,747.19-56.03,1061.91-250.71c314.73-194.67,563.78-493.54,698.52-838.21
			c49.83-127.48,87.63-266.14,183.91-363.43c176.07-177.92,503.19-134.12,665.52,56.41c162.33,190.53,172.26,479.14,72.68,708.78
			c-48.26,111.28-118.82,211.71-168.02,322.58c-49.2,110.87-75.84,240.01-31.4,352.87c54.8,139.16,207.64,220.33,356.74,232
			c149.1,11.67,296.3-33.61,437.73-82.26c109.62-37.7,220.72-78.21,336.6-81.44c115.87-3.24,239.92,37.84,305.64,133.32
			c111.38,161.8,3,393.72-157.92,506.36c-160.92,112.64-361.32,151.76-536.42,240.78c-311.5,158.36-519.39,459.59-733.08,736.09
			c-213.69,276.49-470.36,554.26-812.21,626.72c-75.03,15.9-158.22,19.89-223.51-20.36c-113.04-69.7-118.6-230.59-98.91-361.93
			c21.32-142.22,56.83-284.21,47.98-427.74c-8.85-143.53-72.46-294.17-199.86-360.87c-139.07-72.81-307.9-27.63-457.82,18.92
			C438.11-400.44,173.07-318.16-91.97-235.87c-80.91,25.12-163.47,50.49-248.17,49.37c-84.71-1.12-173.48-33.17-222.34-102.38
			c-87.56-124.03-14.12-293.68,60.23-426.05c167.76-298.68,335.52-597.35,503.28-896.03"/>
	</g>
</g>
<g>
	<g opacity="0.48">
		<path fill-rule="evenodd" clip-rule="evenodd" fill="#9A4F8B" d="M476.31,1354.63l-285.45-123.3l-155.96,34.84
			c0,0-28.96,26.28-23.72,68.89l21.17,5.99c-3.23,6.43-6.96,13.41-11.49,21.02l32.92,2.96c0,0,3.78-4.58,8.54-15.5l238.36,67.5
			l138.62,30.32l1.78-5.18l-13.73-5.26c3.37-21.32,8.01-37.57,12.47-49.55l-3.15-1.05l2.85-0.41l0.89-0.13c0,0,0,0,0,0l0.01,0l0,0
			c0.63-1.62,1.23-3.14,1.84-4.59l-12.7-5.33l15.8-1.62l-0.02-0.01l0,0l0.02,0c2.56-5.36,4.78-9.08,6.33-11.44l22.76-2.8
			L476.31,1354.63z M102.53,1333.32l-14.05-0.31v0l-19.91-0.54c0-0.01,0.01-0.03,0.01-0.04L102.53,1333.32z M109.28,1333.58
			l13.5,0.37l0.01-0.08l36.57,0.97c0-0.01,0-0.03,0.01-0.04c0,0.01,0,0.05,0,0.05l0.31,0.12L109.28,1333.58L109.28,1333.58z
			 M15.07,1320.97c0,6.05,0.51,10.05,0.51,10.05l4.54,0.12l7.56,0.21c0,0,0-0.01,0-0.01l9.24,0.24c0,0,0,0.01-0.01,0.01l-21.34-0.58
			C15.58,1331.02,14.92,1327.15,15.07,1320.97z"/>
	</g>
	<g>
		<g>
			
				<linearGradient id="SVGID_00000019659939859552304500000017322160858730575490_" gradientUnits="userSpaceOnUse" x1="1653.6058" y1="1933.3485" x2="1653.6058" y2="1487.7708" gradientTransform="matrix(0.7861 -0.6181 -0.6181 -0.7861 69.9539 3619.7417)">
				<stop  offset="5.586590e-03" style="stop-color:#511FA4"/>
				<stop  offset="1" style="stop-color:#52146A"/>
			</linearGradient>
			<path fill-rule="evenodd" clip-rule="evenodd" fill="url(#SVGID_00000019659939859552304500000017322160858730575490_)" d="
				M153.88,1103.55c0,0,3.18-10.47,13.53-19.67c16.84-14.98,37.35-20.35,37.35-20.35l266.26,338.58c0,0-19.35,36.98-50.88,40.01
				L153.88,1103.55z"/>
			
				<linearGradient id="SVGID_00000067918128346524634450000007400666268467847043_" gradientUnits="userSpaceOnUse" x1="1738.863" y1="1969.2162" x2="1738.863" y2="1539.575" gradientTransform="matrix(0.8279 -0.5609 -0.5609 -0.8279 -75.3651 3631.957)">
				<stop  offset="5.586590e-03" style="stop-color:#8343D6"/>
				<stop  offset="1" style="stop-color:#8143E5"/>
			</linearGradient>
			<path fill-rule="evenodd" clip-rule="evenodd" fill="url(#SVGID_00000067918128346524634450000007400666268467847043_)" d="
				M471.02,1402.12l54.44-101.88l-207.8-268.29c0,0-15.22,8.79-19.21,10.64c-21.77,10.11-93.68,20.96-93.68,20.96L471.02,1402.12z"
				/>
			<path fill-rule="evenodd" clip-rule="evenodd" fill="#A190DA" d="M228.08,1146.57l-7.05,6.2l-46.22-57.53
				c0,0-0.13-3.88,6.77-7.33L228.08,1146.57z"/>
			
				<linearGradient id="SVGID_00000044153327244071383770000012209385872931606442_" gradientUnits="userSpaceOnUse" x1="426.3691" y1="1132.8268" x2="603.3791" y2="1132.8268" gradientTransform="matrix(-1 0 0 1 838.0625 0)">
				<stop  offset="0" style="stop-color:#FFBF00"/>
				<stop  offset="1" style="stop-color:#DD6D00"/>
			</linearGradient>
			
				<polygon fill-rule="evenodd" clip-rule="evenodd" fill="url(#SVGID_00000044153327244071383770000012209385872931606442_)" points="
				411.69,1167.71 322.84,1055.56 234.68,1081.01 335.79,1210.09 			"/>
			<polygon fill-rule="evenodd" clip-rule="evenodd" fill="#A190FF" points="509.18,1313.43 477.26,1368.36 471.02,1357.52 
				505.85,1310.33 			"/>
			<polygon opacity="0.8" fill-rule="evenodd" clip-rule="evenodd" fill="#9A4F8B" points="415.03,1171.66 460.18,1230.79 
				397.49,1280.03 341.42,1216.37 			"/>
			<path opacity="0.8" fill-rule="evenodd" clip-rule="evenodd" fill="#9A4F8B" d="M291.39,1045.34l94.73,75l-68.46-88.39
				C317.65,1031.95,305.7,1041.18,291.39,1045.34z"/>
		</g>
		<g>
			<g enable-background="new    ">
				<defs>
					<polygon id="SVGID_00000151504340780325707470000005601409607855301248_" enable-background="new    " points="373.09,1166.36 
						311.28,1087.21 282.54,1091.98 344.35,1171.13 					"/>
				</defs>
				<clipPath id="SVGID_00000058590721243925676160000002126345157724953535_">
					<use xlink:href="#SVGID_00000151504340780325707470000005601409607855301248_"  overflow="visible"/>
				</clipPath>
				<g clip-path="url(#SVGID_00000058590721243925676160000002126345157724953535_)">
					<path fill="#FFFFFF" d="M341.44,1140.28l-30.18-32.34l21.45,33.79L341.44,1140.28 M293.39,1090.18l7.05-1.17l72.66,77.35
						l-6.35,1.05l-13.75-14.73l-12.01,1.99l9.77,15.39l-6.4,1.06L293.39,1090.18"/>
				</g>
			</g>
		</g>
	</g>
	<g>
		<g enable-background="new    ">
			<defs>
				<polygon id="SVGID_00000142855045309129554810000001098466300294721170_" enable-background="new    " points="277.39,370.41 
					350.29,350.79 327.96,350.12 255.07,369.74 				"/>
			</defs>
			<clipPath id="SVGID_00000127755431957802325070000008920718242408344449_">
				<use xlink:href="#SVGID_00000142855045309129554810000001098466300294721170_"  overflow="visible"/>
			</clipPath>
			<g clip-path="url(#SVGID_00000127755431957802325070000008920718242408344449_)">
				<path fill="#FFFFFF" d="M283.42,367.03l19.63-5.28l-5.8-0.17c-1.43-0.04-3.45,0.16-6.07,0.61c-2.62,0.45-5.49,1.1-8.63,1.94
					c-3.06,0.82-5.03,1.47-5.9,1.95c-0.87,0.47-0.6,0.73,0.84,0.77L283.42,367.03 M314.33,358.71l18.27-4.92l-5.38-0.16
					c-1.4-0.04-3.28,0.14-5.64,0.55c-2.36,0.41-5,1.01-7.92,1.79c-2.92,0.79-4.79,1.4-5.6,1.85c-0.81,0.44-0.51,0.69,0.89,0.73
					L314.33,358.71 M338.18,350.43l12.11,0.36l-72.89,19.61l-12.65-0.38c-1.99-0.06-2.87-0.34-2.66-0.83
					c0.22-0.49,1.42-1.15,3.61-1.97c2.18-0.82,5.22-1.75,9.12-2.8c4.32-1.16,8.68-2.18,13.09-3.04c4.4-0.87,7.81-1.38,10.24-1.54
					c-0.33-0.36,0.48-0.94,2.42-1.74c1.94-0.79,5.04-1.76,9.28-2.91c3.62-0.97,7.23-1.83,10.83-2.58c3.59-0.74,6.92-1.31,9.96-1.7
					C333.67,350.54,336.19,350.37,338.18,350.43"/>
			</g>
		</g>
	</g>
</g>
</svg>
