<?xml version="1.0" encoding="UTF-8"?><svg xmlns="http://www.w3.org/2000/svg" width="660.28" height="2231.95" xmlns:xlink="http://www.w3.org/1999/xlink" viewBox="0 0 660.28 2231.95"><defs><style>.cls-1{fill:url(#_Áåçûìÿííûé_ãðàäèåíò_41);}.cls-1,.cls-2,.cls-3,.cls-4,.cls-5,.cls-6,.cls-7,.cls-8,.cls-9,.cls-10,.cls-11,.cls-12,.cls-13,.cls-14,.cls-15,.cls-16,.cls-17,.cls-18,.cls-19,.cls-20,.cls-21,.cls-22,.cls-23,.cls-24,.cls-25,.cls-26,.cls-27,.cls-28,.cls-29,.cls-30,.cls-31,.cls-32,.cls-33,.cls-34,.cls-35,.cls-36,.cls-37,.cls-38,.cls-39,.cls-40,.cls-41,.cls-42,.cls-43,.cls-44,.cls-45{fill-rule:evenodd;}.cls-2{fill:#a190da;}.cls-3{fill:url(#_Áåçûìÿííûé_ãðàäèåíò_201);}.cls-4,.cls-16,.cls-38{fill:#9a4f8b;}.cls-4,.cls-38,.cls-46,.cls-44{mix-blend-mode:multiply;}.cls-4,.cls-44{opacity:.8;}.cls-5{fill:url(#_Áåçûìÿííûé_ãðàäèåíò_211-4);}.cls-6{fill:url(#_Áåçûìÿííûé_ãðàäèåíò_214-6);}.cls-7{fill:url(#_Áåçûìÿííûé_ãðàäèåíò_214);}.cls-8{fill:url(#_Áåçûìÿííûé_ãðàäèåíò_211-2);}.cls-9{fill:#745090;}.cls-10{fill:url(#_Áåçûìÿííûé_ãðàäèåíò_211-6);}.cls-47{fill:#fff;}.cls-11{fill:#e2412c;}.cls-12{fill:url(#_Áåçûìÿííûé_ãðàäèåíò_127-4);}.cls-13{fill:#fff3b3;mix-blend-mode:soft-light;}.cls-14{fill:#b32742;}.cls-48{fill:none;}.cls-15{fill:url(#_Áåçûìÿííûé_ãðàäèåíò_127-8);}.cls-17{fill:url(#_Áåçûìÿííûé_ãðàäèåíò_139);}.cls-49{clip-path:url(#clippath-1);}.cls-18{fill:url(#_Áåçûìÿííûé_ãðàäèåíò_127-2);}.cls-19{fill:url(#_Áåçûìÿííûé_ãðàäèåíò_74);}.cls-50{isolation:isolate;}.cls-51{mix-blend-mode:overlay;opacity:.25;}.cls-20{fill:#5c326c;}.cls-21{fill:url(#_Áåçûìÿííûé_ãðàäèåíò_214-4);}.cls-22{fill:url(#_Áåçûìÿííûé_ãðàäèåíò_214-2);}.cls-23{fill:#7d1027;}.cls-52{clip-path:url(#clippath-3);}.cls-24{fill:url(#_Áåçûìÿííûé_ãðàäèåíò_214-3);}.cls-25{fill:url(#_Áåçûìÿííûé_ãðàäèåíò_137);}.cls-26{fill:url(#_Áåçûìÿííûé_ãðàäèåíò_211-3);}.cls-27{fill:#a190ff;}.cls-28{fill:url(#_Áåçûìÿííûé_ãðàäèåíò_97);}.cls-53{fill:#eee;}.cls-29{fill:url(#_Áåçûìÿííûé_ãðàäèåíò_127-6);}.cls-30{fill:url(#_Áåçûìÿííûé_ãðàäèåíò_211-5);}.cls-31{fill:url(#_Áåçûìÿííûé_ãðàäèåíò_127-7);}.cls-32{fill:url(#_Áåçûìÿííûé_ãðàäèåíò_216);}.cls-33{fill:#978bc3;}.cls-34{fill:url(#_Áåçûìÿííûé_ãðàäèåíò_127-3);}.cls-54{opacity:.6;}.cls-35{fill:url(#_Áåçûìÿííûé_ãðàäèåíò_127);}.cls-36{fill:#8c6fa4;}.cls-55{clip-path:url(#clippath-2);}.cls-37{fill:url(#_Áåçûìÿííûé_ãðàäèåíò_97-2);}.cls-38,.cls-46{opacity:.48;}.cls-39{fill:#e55947;}.cls-40{fill:#eee1e9;}.cls-56{clip-path:url(#clippath);}.cls-41{fill:url(#_Áåçûìÿííûé_ãðàäèåíò_127-5);}.cls-42{fill:url(#_Áåçûìÿííûé_ãðàäèåíò_214-5);}.cls-43{fill:url(#_Áåçûìÿííûé_ãðàäèåíò_215);}.cls-44{fill:#b02463;}.cls-45{fill:url(#_Áåçûìÿííûé_ãðàäèåíò_211);}</style><clipPath id="clippath"><rect class="cls-48" x="907.76" y="2388.84" width="3840" height="2160"/></clipPath><clipPath id="clippath-1"><rect class="cls-48" x="907.76" y="48.46" width="3840" height="2160"/></clipPath><linearGradient id="_Áåçûìÿííûé_ãðàäèåíò_201" x1="12496.61" y1="3702.58" x2="12496.61" y2="3257.01" gradientTransform="translate(8029.76 10894.37) rotate(-141.82)" gradientUnits="userSpaceOnUse"><stop offset="0" stop-color="#511fa4"/><stop offset="1" stop-color="#52146a"/></linearGradient><linearGradient id="_Áåçûìÿííûé_ãðàäèåíò_214" x1="12610.15" y1="4161.5" x2="12610.15" y2="3731.85" gradientTransform="translate(8515.64 10726.42) rotate(-145.88)" gradientUnits="userSpaceOnUse"><stop offset="0" stop-color="#8343d6"/><stop offset="1" stop-color="#8143e5"/></linearGradient><linearGradient id="_Áåçûìÿííûé_ãðàäèåíò_215" x1="257.9" y1="314.6" x2="434.91" y2="314.6" gradientUnits="userSpaceOnUse"><stop offset="0" stop-color="#ffbf00"/><stop offset="1" stop-color="#dd6d00"/></linearGradient><clipPath id="clippath-2"><polygon class="cls-48" points="296.5 348.14 358.31 268.99 387.05 273.75 325.24 352.9 296.5 348.14"/></clipPath><linearGradient id="_Áåçûìÿííûé_ãðàäèåíò_139" x1="-541.59" y1="3339.73" x2="-370.98" y2="3339.73" gradientTransform="translate(1662.85 -1840.12) rotate(19)" gradientUnits="userSpaceOnUse"><stop offset="0" stop-color="#ffbf00"/><stop offset="1" stop-color="#ffa700"/></linearGradient><linearGradient id="_Áåçûìÿííûé_ãðàäèåíò_216" x1="-63.71" y1="1690.3" x2="-63.71" y2="1674.47" gradientTransform="translate(354.76 -510.56) rotate(4.73)" gradientUnits="userSpaceOnUse"><stop offset="0" stop-color="#52146a"/><stop offset=".99" stop-color="#511fa4"/></linearGradient><linearGradient id="_Áåçûìÿííûé_ãðàäèåíò_214-2" x1="-108.97" y1="1788.49" x2="-108.97" y2="1674.47" gradientTransform="translate(354.76 -510.56) rotate(4.73)" xlink:href="#_Áåçûìÿííûé_ãðàäèåíò_214"/><linearGradient id="_Áåçûìÿííûé_ãðàäèåíò_127" x1="-1859.85" y1="8777.5" x2="-1859.85" y2="8717.91" gradientTransform="translate(8494.98 -697.81) rotate(66) scale(.54 1)" gradientUnits="userSpaceOnUse"><stop offset="0" stop-color="#dd1d33"/><stop offset="1" stop-color="#ff4827"/></linearGradient><linearGradient id="_Áåçûìÿííûé_ãðàäèåíò_127-2" x1="11444.68" y1="9911.69" x2="11444.68" y2="9876.86" gradientTransform="translate(11479.34 4388.46) rotate(136.27) scale(.54 1)" xlink:href="#_Áåçûìÿííûé_ãðàäèåíò_127"/><linearGradient id="_Áåçûìÿííûé_ãðàäèåíò_127-3" x1="3124.75" y1="9826.91" x2="3124.75" y2="9785.79" gradientTransform="translate(10154.47 525.83) rotate(91.35) scale(.54 1)" xlink:href="#_Áåçûìÿííûé_ãðàäèåíò_127"/><linearGradient id="_Áåçûìÿííûé_ãðàäèåíò_214-3" x1="-1147.54" y1="9109.87" x2="-1147.54" y2="9073.15" gradientTransform="translate(9135.89 -339.83) rotate(73.92) scale(.54 1)" xlink:href="#_Áåçûìÿííûé_ãðàäèåíò_214"/><linearGradient id="_Áåçûìÿííûé_ãðàäèåíò_214-4" x1="7154.79" y1="10395.53" x2="7154.79" y2="10352.72" gradientTransform="translate(11246.02 2213.08) rotate(112.26) scale(.54 1)" xlink:href="#_Áåçûìÿííûé_ãðàäèåíò_214"/><linearGradient id="_Áåçûìÿííûé_ãðàäèåíò_211" x1="-4440.8" y1="6071.01" x2="-4440.8" y2="6025.56" gradientTransform="translate(6196.95 -1393.47) rotate(42.65) scale(.54 1)" gradientUnits="userSpaceOnUse"><stop offset="0" stop-color="#ffa700"/><stop offset="1" stop-color="#ffbf00"/></linearGradient><linearGradient id="_Áåçûìÿííûé_ãðàäèåíò_211-2" x1="-3487.31" y1="6572.66" x2="-3487.31" y2="6527.21" xlink:href="#_Áåçûìÿííûé_ãðàäèåíò_211"/><linearGradient id="_Áåçûìÿííûé_ãðàäèåíò_127-4" x1="10795.65" y1="9928.31" x2="10795.65" y2="9893.47" gradientTransform="translate(11479.34 4388.46) rotate(136.27) scale(.54 1)" xlink:href="#_Áåçûìÿííûé_ãðàäèåíò_127"/><linearGradient id="_Áåçûìÿííûé_ãðàäèåíò_211-3" x1="-5007.36" y1="5861.52" x2="-5007.36" y2="5816.08" xlink:href="#_Áåçûìÿííûé_ãðàäèåíò_211"/><linearGradient id="_Áåçûìÿííûé_ãðàäèåíò_127-5" x1="-3525.4" y1="8308.61" x2="-3525.4" y2="8249.03" xlink:href="#_Áåçûìÿííûé_ãðàäèåíò_127"/><linearGradient id="_Áåçûìÿííûé_ãðàäèåíò_127-6" x1="10068.7" y1="10603.64" x2="10068.7" y2="10568.8" gradientTransform="translate(11479.34 4388.46) rotate(136.27) scale(.54 1)" xlink:href="#_Áåçûìÿííûé_ãðàäèåíò_127"/><linearGradient id="_Áåçûìÿííûé_ãðàäèåíò_127-7" x1="1249.56" y1="9790" x2="1249.56" y2="9748.87" gradientTransform="translate(10154.47 525.83) rotate(91.35) scale(.54 1)" xlink:href="#_Áåçûìÿííûé_ãðàäèåíò_127"/><linearGradient id="_Áåçûìÿííûé_ãðàäèåíò_214-5" x1="-2916.38" y1="8769.99" x2="-2916.38" y2="8733.28" gradientTransform="translate(9135.89 -339.83) rotate(73.92) scale(.54 1)" xlink:href="#_Áåçûìÿííûé_ãðàäèåíò_214"/><linearGradient id="_Áåçûìÿííûé_ãðàäèåíò_214-6" x1="5378.61" y1="10723.92" x2="5378.61" y2="10681.11" gradientTransform="translate(11246.02 2213.08) rotate(112.26) scale(.54 1)" xlink:href="#_Áåçûìÿííûé_ãðàäèåíò_214"/><linearGradient id="_Áåçûìÿííûé_ãðàäèåíò_211-4" x1="-5627.3" y1="5282.52" x2="-5627.3" y2="5237.07" xlink:href="#_Áåçûìÿííûé_ãðàäèåíò_211"/><linearGradient id="_Áåçûìÿííûé_ãðàäèåíò_211-5" x1="-4673.82" y1="5784.17" x2="-4673.82" y2="5738.72" xlink:href="#_Áåçûìÿííûé_ãðàäèåíò_211"/><linearGradient id="_Áåçûìÿííûé_ãðàäèåíò_127-8" x1="9419.66" y1="10620.25" x2="9419.66" y2="10585.42" gradientTransform="translate(11479.34 4388.46) rotate(136.27) scale(.54 1)" xlink:href="#_Áåçûìÿííûé_ãðàäèåíò_127"/><linearGradient id="_Áåçûìÿííûé_ãðàäèåíò_211-6" x1="-6193.86" y1="5073.03" x2="-6193.86" y2="5027.59" xlink:href="#_Áåçûìÿííûé_ãðàäèåíò_211"/><linearGradient id="_Áåçûìÿííûé_ãðàäèåíò_41" x1="298.74" y1="2232.28" x2="298.74" y2="1836.71" gradientUnits="userSpaceOnUse"><stop offset="0" stop-color="#ff1847"/><stop offset="1" stop-color="#ff6127"/></linearGradient><linearGradient id="_Áåçûìÿííûé_ãðàäèåíò_74" x1="243.92" y1="2232.28" x2="243.92" y2="1912.44" gradientUnits="userSpaceOnUse"><stop offset="0" stop-color="#e03347"/><stop offset="1" stop-color="#ff7527"/></linearGradient><linearGradient id="_Áåçûìÿííûé_ãðàäèåíò_97" x1="355.09" y1="1875.21" x2="355.09" y2="1836.71" gradientUnits="userSpaceOnUse"><stop offset="0" stop-color="#fb8900"/><stop offset="1" stop-color="#ffbf00"/></linearGradient><linearGradient id="_Áåçûìÿííûé_ãðàäèåíò_97-2" x1="355.7" y1="2232.28" x2="355.7" y2="2200.16" xlink:href="#_Áåçûìÿííûé_ãðàäèåíò_97"/><linearGradient id="_Áåçûìÿííûé_ãðàäèåíò_137" x1="388.8" y1="1936.32" x2="412.32" y2="1936.32" gradientUnits="userSpaceOnUse"><stop offset="0" stop-color="#433599"/><stop offset="1" stop-color="#515aba"/></linearGradient><clipPath id="clippath-3"><polygon class="cls-48" points="284.99 2056.1 280.17 1987.9 317.53 1959.2 322.36 2027.39 284.99 2056.1"/></clipPath></defs><g class="cls-50"><g id="Layer_1"><g class="cls-54"><g class="cls-56"><g class="cls-51"><path class="cls-53" d="M870.59,3090.6c368.56,33.36,747.19-56.03,1061.91-250.71,314.73-194.67,563.78-493.54,698.52-838.21,49.83-127.48,87.63-266.14,183.91-363.43,176.07-177.92,503.19-134.13,665.52,56.41,162.33,190.53,172.26,479.14,72.68,708.78-48.26,111.28-118.82,211.71-168.02,322.58-49.2,110.87-75.84,240.01-31.4,352.87,54.8,139.16,207.64,220.33,356.74,232,149.1,11.67,296.3-33.61,437.73-82.26,109.62-37.7,220.72-78.21,336.6-81.44,115.87-3.24,239.92,37.84,305.64,133.32,111.38,161.8,3,393.72-157.92,506.36-160.92,112.64-361.32,151.76-536.42,240.78-311.5,158.36-519.39,459.59-733.08,736.09-213.69,276.49-470.36,554.26-812.21,626.72-75.03,15.9-158.22,19.89-223.51-20.36-113.04-69.7-118.6-230.59-98.91-361.93,21.32-142.22,56.83-284.21,47.98-427.74-8.85-143.53-72.46-294.17-199.86-360.87-139.07-72.81-307.9-27.63-457.82,18.92-265.04,82.29-530.08,164.57-795.13,246.86-80.91,25.12-163.47,50.49-248.17,49.37-84.71-1.12-173.48-33.17-222.34-102.38-87.56-124.03-14.12-293.68,60.23-426.05,167.76-298.68,335.52-597.35,503.28-896.03"/></g></g></g><g class="cls-49"><g class="cls-51"><path class="cls-53" d="M870.59,750.22c368.56,33.36,747.19-56.03,1061.91-250.71,314.73-194.67,563.78-493.54,698.52-838.21,49.83-127.48,87.63-266.14,183.91-363.43,176.07-177.92,503.19-134.13,665.52,56.41,162.33,190.53,172.26,479.14,72.68,708.78-48.26,111.28-118.82,211.71-168.02,322.58-49.2,110.87-75.84,240.01-31.4,352.87,54.8,139.16,207.64,220.33,356.74,232,149.1,11.67,296.3-33.61,437.73-82.26,109.62-37.7,220.72-78.21,336.6-81.44,115.87-3.24,239.92,37.84,305.64,133.32,111.38,161.8,3,393.72-157.92,506.36-160.92,112.64-361.32,151.76-536.42,240.78-311.5,158.36-519.39,459.59-733.08,736.09-213.69,276.49-470.36,554.26-812.21,626.72-75.03,15.9-158.22,19.89-223.51-20.36-113.04-69.7-118.6-230.59-98.91-361.93,21.32-142.22,56.83-284.21,47.98-427.74-8.85-143.53-72.46-294.17-199.86-360.87-139.07-72.81-307.9-27.63-457.82,18.92-265.04,82.29-530.08,164.57-795.13,246.86-80.91,25.12-163.47,50.49-248.17,49.37-84.71-1.12-173.48-33.17-222.34-102.38-87.56-124.03-14.12-293.68,60.23-426.05,167.76-298.68,335.52-597.35,503.28-896.03"/></g></g><g class="cls-46"><path class="cls-16" d="M193.28,536.4l285.45-123.3,155.96,34.84s28.96,26.28,23.72,68.89l-21.17,5.99c3.23,6.43,6.96,13.41,11.49,21.02l-32.92,2.96s-3.78-4.58-8.54-15.5l-238.36,67.5-138.62,30.32-1.78-5.18,13.73-5.26c-3.37-21.32-8.01-37.57-12.47-49.55l3.15-1.05-2.85-.41-.89-.13s0,0,0,0h0s0,0,0,0c-.63-1.62-1.23-3.14-1.84-4.59l12.7-5.33-15.8-1.62h.02s0,0,0,0h-.02c-2.56-5.36-4.78-9.08-6.33-11.44l-22.76-2.8-1.85-5.37ZM567.07,515.1l14.05-.31h0s19.91-.54,19.91-.54c0-.01,0-.03-.01-.04l-33.95.9ZM560.31,515.35l-13.5.37v-.08s-36.59.97-36.59.97c0-.01,0-.03,0-.04,0,0,0,.05,0,.05l-.31.12,50.4-1.37h0ZM654.52,502.75c0,6.05-.51,10.05-.51,10.05l-4.54.12-7.56.21s0,0,0,0l-9.24.24s0,0,0,.01l21.34-.58s.66-3.87.51-10.05Z"/></g><path class="cls-3" d="M515.72,285.33s-3.18-10.47-13.53-19.67c-16.84-14.98-37.35-20.35-37.35-20.35l-266.26,338.58s19.35,36.98,50.88,40.01l266.26-338.58Z"/><path class="cls-7" d="M198.58,583.9l-54.44-101.88,207.8-268.29s15.22,8.79,19.21,10.64c21.77,10.11,93.68,20.96,93.68,20.96l-266.26,338.58Z"/><path class="cls-2" d="M441.52,328.35l7.05,6.2,46.22-57.53s.13-3.88-6.77-7.33l-46.5,58.66Z"/><polygon class="cls-43" points="257.9 349.48 346.76 237.34 434.91 262.79 333.81 391.87 257.9 349.48"/><polygon class="cls-27" points="160.42 495.2 192.34 550.14 198.58 539.3 163.74 492.11 160.42 495.2"/><polygon class="cls-4" points="254.56 353.43 209.42 412.57 272.1 461.8 328.17 398.14 254.56 353.43"/><path class="cls-4" d="M378.2,227.11l-94.73,75,68.46-88.39s11.95,9.23,26.27,13.39Z"/><g class="cls-50"><g class="cls-55"><path class="cls-47" d="M328.15,322.05l30.19-32.35-21.46,33.79-8.73-1.45M376.2,271.95l-7.05-1.17-72.66,77.35,6.35,1.05,13.75-14.73,12.01,1.99-9.77,15.39,6.4,1.06,50.96-80.95"/></g></g><g class="cls-46"><path class="cls-16" d="M470.76,1315.45l-22.76,2.8c-1.55,2.36-3.77,6.08-6.33,11.44h-.02s0,0,0,0h.02s-15.8,1.63-15.8,1.63l12.7,5.33c-.61,1.44-1.21,2.97-1.84,4.59h0s0,0,0,0c0,0,0,0,0,0l-.89.13-2.85.41,3.15,1.05c-4.46,11.97-9.1,28.22-12.47,49.55l13.73,5.26-1.78,5.18-138.62-30.32-238.36-67.5c-4.76,10.91-8.54,15.5-8.54,15.5l-32.92-2.96c4.53-7.61,8.26-14.59,11.49-21.02l-21.17-5.99c-5.24-42.6,23.72-68.89,23.72-68.89l155.96-34.84,285.45,123.3-1.85,5.37ZM64.88,1287.88s0,.03-.01.04l19.91.54h0s14.05.31,14.05.31l-33.95-.9ZM105.58,1289.03l50.4,1.37-.31-.12s0-.04,0-.05c0,.01,0,.03,0,.04l-36.57-.97v.08s-13.51-.37-13.51-.37h0ZM11.88,1286.48l21.34.58s0,0,0-.01l-9.24-.24s0,0,0,0l-7.56-.21-4.54-.12s-.51-4-.51-10.05c-.15,6.18.51,10.05.51,10.05Z"/></g><path class="cls-14" d="M568.81,1256.58l-114.92,14.15-377.31-110.23s-18.57,10.42-23,63.37l-5.15-.14s-6.45-49.87,23.67-69.65l174.77-39.28,321.94,141.79Z"/><polygon class="cls-39" points="570.9 1250.49 247.2 1110.67 244.91 1118.13 568.81 1256.58 570.9 1250.49"/><path class="cls-40" d="M76.58,1160.49l166.67-31.94s-24.57,36.14-31.77,99.48l-157.91-4.17s-1.13-51.82,23-63.37Z"/><path class="cls-36" d="M545.55,1256.18s-4.22,4.99-9.73,16.54h-.02s-17.92,1.84-17.92,1.84l14.42,6.05c-.69,1.64-1.37,3.37-2.08,5.21l-4.25.6,3.59,1.19c-5.07,13.6-10.34,32.07-14.16,56.31l-303.89-115.89s.71-63.22,31.78-99.49l302.28,127.63Z"/><path class="cls-17" d="M247.2,1110.67l-176.87,39.51s-32.84,29.8-26.9,78.12l167.28,9.05,3.14-9.11-165.42-4.51s-6.58-38.47,23.67-69.65l172.81-35.94,2.28-7.47Z"/><polygon class="cls-39" points="213.85 1228.23 530.96 1349.78 528.94 1355.65 210.71 1237.34 213.85 1228.23"/><polygon class="cls-14" points="528.94 1355.65 371.74 1321.26 43.43 1228.3 210.71 1237.34 528.94 1355.65"/><polygon class="cls-9" points="230.67 1147.45 88.85 1170.68 228.25 1152.37 517.88 1274.57 535.8 1272.73 230.67 1147.45"/><polygon class="cls-9" points="224.69 1160.71 111.92 1174.14 224.15 1162.06 525.95 1286.44 530.21 1285.82 224.69 1160.71"/><path class="cls-4" d="M53.58,1223.86l8.58.23s-5.54-42.36,16.89-61.13l160.24-29.38,3.98-5.04-166.68,31.94s-23.47,4.57-23,63.37Z"/><polygon class="cls-44" points="119.05 1247.81 225.42 1255.39 270.43 1270.74 162.19 1258.94 119.05 1247.81"/><path class="cls-20" d="M76.58,1160.49s-21.85,9.36-23,63.37c0,0-5.63-50.14,23-63.37Z"/><path class="cls-32" d="M178.18,1167.01s-13.85-13-25.94-14.12l-8.61,1.14-17.18,4.27s21.77,2.62,31.19,10.92l20.54-2.21Z"/><path class="cls-22" d="M152.25,1152.89s-27.26-.43-37.71,49.1c-9.26,43.91-22.79,60.31-22.79,60.31l-37.34-3.36c35.08-59.02,29.21-85.06,72.05-100.63,0,0,16.19-4.95,25.79-5.41Z"/><polygon class="cls-4" points="178.18 1167.01 169.99 1227.03 154.69 1226.62 151.82 1234.16 130.13 1232.98 131.09 1225.97 147.05 1226.33 157.64 1169.22 178.18 1167.01"/><path class="cls-35" d="M115.89,1916.05s-21.83,15.76-54.43,24.24l8.7,19.54s27.38-3.69,53.23-24.85l-7.51-18.93Z"/><path class="cls-18" d="M171.33,1537.24s-12.98-8.91-24.08-25.17l-9.04,8.65s7.01,15.15,27.42,21.54l5.7-5.02Z"/><path class="cls-34" d="M325.5,1982.24s-14.5,9.45-34.83-.82l-.29,12.51s22.28,4.99,41.25-4.89l-6.13-6.79Z"/><path class="cls-24" d="M242.21,1570.16s-16.39,6.89-29.04,8.37l-2.6,8.69s19.48-.02,35.3-10.09l-3.67-6.97Z"/><path class="cls-21" d="M197.77,1875.64s-17.19-3.17-35.8-14.66l-6.31,4.55s15.07,19.49,36.61,22.12l5.51-12.02Z"/><path class="cls-45" d="M338.15,1402.14s-12.95,16.83-31.26,31.1l5.63,7.08s24.97-7.79,35.55-28.25l-9.92-9.93Z"/><path class="cls-8" d="M378.63,2121.42s-12.95,16.83-31.26,31.1l5.63,7.08s24.97-7.79,35.55-28.25l-9.92-9.93Z"/><path class="cls-12" d="M414.2,1281.92s-12.98-8.91-24.08-25.17l-9.04,8.65s7.01,15.15,27.42,21.54l5.7-5.02Z"/><path class="cls-26" d="M254.08,1039.91s-12.95,16.83-31.26,31.1l5.63,7.08s24.97-7.79,35.55-28.25l-9.92-9.93Z"/><path class="cls-41" d="M176.79,900.2s-21.83,15.76-54.43,24.24l8.7,19.54s27.38-3.69,53.23-24.85l-7.51-18.93Z"/><path class="cls-29" d="M232.24,521.39s-12.98-8.91-24.08-25.17l-9.04,8.65s7.01,15.15,27.42,21.54l5.7-5.02Z"/><path class="cls-31" d="M386.4,966.38s-14.5,9.45-34.83-.82l-.29,12.51s22.28,4.99,41.25-4.89l-6.13-6.79Z"/><path class="cls-42" d="M303.12,554.3s-16.39,6.89-29.04,8.37l-2.6,8.69s19.48-.02,35.3-10.09l-3.67-6.97Z"/><path class="cls-6" d="M258.68,859.78s-17.19-3.17-35.8-14.66l-6.31,4.55s15.07,19.49,36.61,22.12l5.51-12.02Z"/><path class="cls-5" d="M399.06,386.28s-12.95,16.83-31.26,31.1l5.63,7.08s24.97-7.79,35.55-28.25l-9.92-9.93Z"/><path class="cls-30" d="M439.54,1105.56s-12.95,16.83-31.26,31.1l5.63,7.08s24.97-7.79,35.55-28.25l-9.92-9.93Z"/><path class="cls-15" d="M475.11,266.06s-12.98-8.91-24.08-25.17l-9.04,8.65s7.01,15.15,27.42,21.54l5.7-5.02Z"/><path class="cls-10" d="M314.99,24.05s-12.95,16.83-31.26,31.1l5.63,7.08s24.97-7.79,35.55-28.25l-9.92-9.93Z"/><path class="cls-38" d="M570.88,1983.19l-1.22,28.76-9.39,220.33H235.28v-7.34c103.4-6.03,117.57-19.46,117.57-19.46l67.24-6.24-1.88-35.57-.05.13-6.71-126.63,4.47-3.49h1.35s56.56-33.86,56.56-33.86l-.03.09,14.55-8.71,15.2-9.1h5.85l-.25,26.78.06-.03.19-19.86,6.76,1.98c5.46,1.34,13.91,2.9,24.09,3.04l24.93-11.91,5.7,1.09Z"/><polygon class="cls-23" points="231.23 1917.55 287.44 1917.55 456.64 1836.71 444.61 2232.28 262.76 2232.28 231.23 1917.55"/><polygon class="cls-1" points="247.91 2232.28 231.23 1917.55 366.24 1836.71 366.24 2232.28 247.91 2232.28"/><polygon class="cls-14" points="366.24 1836.71 374.82 1836.71 371.01 2232.28 364.44 2232.28 366.24 1836.71"/><path class="cls-33" d="M374.82,1846.81s30.68,11.55,69.79,5.77l-12.46,374.59-61.08.05,3.76-380.41Z"/><polygon class="cls-14" points="444.61 2232.28 456.64 1836.71 464.99 1838.31 448.22 2232.28 444.61 2232.28"/><polygon class="cls-19" points="231.23 1917.55 247.91 2232.28 256.61 2232.28 239.76 1912.45 237.78 1912.44 231.23 1917.55"/><polygon class="cls-14" points="237.78 1912.44 255.01 2232.28 256.61 2232.28 239.76 1912.45 237.78 1912.44"/><polygon class="cls-44" points="261.12 2096.57 253.14 1945.95 343.94 1895.42 343.94 2084.12 261.12 2096.57"/><polygon class="cls-13" points="261.12 2108.6 263.08 2143.94 343.94 2138.2 343.94 2094.17 261.12 2108.6"/><polygon class="cls-13" points="282.58 2227.23 282.58 2224.21 328.7 2223.14 328.7 2227.23 282.58 2227.23"/><polygon class="cls-28" points="343.94 1850.06 366.06 1875.21 366.24 1836.71 343.94 1850.06"/><polygon class="cls-37" points="346.95 2232.28 364.44 2200.16 364.44 2232.28 346.95 2232.28"/><polygon class="cls-11" points="366.06 1875.21 374.22 1876.05 374.82 1836.71 366.24 1836.71 366.06 1875.21"/><polygon class="cls-11" points="455.31 1880.49 463.2 1880.49 464.99 1838.31 456.64 1836.71 455.31 1880.49"/><polygon class="cls-11" points="364.44 2200.16 371.07 2200.16 371.01 2232.28 364.44 2232.28 364.44 2200.16"/><polygon class="cls-11" points="444.61 2232.28 445.46 2204.29 449.38 2205.02 448.22 2232.28 444.61 2232.28"/><polygon class="cls-4" points="444.61 1852.59 440.03 1853.07 430.37 2227.18 432.14 2227.18 444.61 1852.59"/><polygon class="cls-4" points="388.8 1955.57 419.14 1959.42 419.14 1936.32 388.92 1928.62 388.8 1955.57"/><polygon class="cls-25" points="388.92 1928.62 388.8 1955.57 412.32 1948.83 412.32 1917.07 388.92 1928.62"/><polygon class="cls-4" points="322.65 1862.69 241 2103.22 231.16 1917.48 237.7 1912.37 239.68 1912.38 322.65 1862.69"/><g class="cls-50"><g class="cls-52"><path class="cls-47" d="M299.56,1973.01c-3.65,2.8-6.85,6.78-9.58,11.94-2.74,5.17-4.77,11-6.1,17.49-1.33,6.51-1.76,13.04-1.3,19.6s1.73,11.78,3.79,15.64c2.06,3.86,4.67,6.11,7.81,6.75,3.14.65,6.55-.44,10.19-3.25,4.31-3.31,7.93-8.09,10.86-14.34,2.92-6.25,4.79-13.28,5.58-21.08l-8.82,6.78c-.65,3.86-1.71,7.22-3.19,10.06-1.47,2.85-3.25,5.07-5.33,6.67-2.23,1.71-4.28,2.33-6.14,1.84-1.87-.48-3.4-2.03-4.61-4.63-1.2-2.61-1.96-6.11-2.27-10.51s-.11-8.73.62-12.78c.74-4.06,1.9-7.66,3.51-10.82,1.6-3.15,3.52-5.58,5.75-7.29,2.08-1.6,3.97-2.21,5.67-1.83,1.7.37,3.1,1.82,4.21,4.33l8.82-6.78c-1.76-5.78-4.38-9.35-7.86-10.7-3.49-1.36-7.36-.39-11.64,2.89"/></g></g></g></g></svg>