<?xml version="1.0" encoding="UTF-8"?><svg xmlns="http://www.w3.org/2000/svg" width="559.44" height="2231.95" xmlns:xlink="http://www.w3.org/1999/xlink" viewBox="0 0 559.44 2231.95"><defs><style>.cls-1{fill:#a41156;opacity:.35;}.cls-1,.cls-2,.cls-3,.cls-4,.cls-5,.cls-6,.cls-7,.cls-8,.cls-9,.cls-10,.cls-11,.cls-12,.cls-13,.cls-14,.cls-15,.cls-16,.cls-17,.cls-18,.cls-19,.cls-20,.cls-21,.cls-22,.cls-23,.cls-24,.cls-25,.cls-26,.cls-27,.cls-28,.cls-29,.cls-30,.cls-31,.cls-32,.cls-33,.cls-34,.cls-35,.cls-36,.cls-37,.cls-38,.cls-39,.cls-40,.cls-41{fill-rule:evenodd;}.cls-42{clip-path:url(#clippath-6);}.cls-2{fill:#a190da;}.cls-43{clip-path:url(#clippath-4);}.cls-3{fill:url(#_Áåçûìÿííûé_ãðàäèåíò_201);}.cls-4,.cls-12{fill:#9a4f8b;}.cls-4,.cls-44,.cls-40{mix-blend-mode:multiply;}.cls-4,.cls-40{opacity:.8;}.cls-5{fill:url(#_Áåçûìÿííûé_ãðàäèåíò_214);}.cls-6{fill:url(#_Áåçûìÿííûé_ãðàäèåíò_211-2);}.cls-7{fill:#745090;}.cls-8{fill:#4e2c81;}.cls-45{fill:#fff;}.cls-46{mix-blend-mode:soft-light;}.cls-9{fill:url(#_Áåçûìÿííûé_ãðàäèåíò_79);}.cls-10{fill:url(#_Áåçûìÿííûé_ãðàäèåíò_127-4);}.cls-47{fill:#ff94d1;}.cls-11{fill:#b32742;}.cls-48{fill:none;}.cls-13{fill:url(#_Áåçûìÿííûé_ãðàäèåíò_139);}.cls-49{clip-path:url(#clippath-1);}.cls-14{fill:url(#_Áåçûìÿííûé_ãðàäèåíò_134-3);}.cls-15{fill:url(#_Áåçûìÿííûé_ãðàäèåíò_127-2);}.cls-50{isolation:isolate;}.cls-51{clip-path:url(#clippath-5);}.cls-16{fill:#5c326c;}.cls-17{fill:url(#_Áåçûìÿííûé_ãðàäèåíò_214-4);}.cls-18{fill:url(#_Áåçûìÿííûé_ãðàäèåíò_214-2);}.cls-52{clip-path:url(#clippath-3);}.cls-19{fill:url(#_Áåçûìÿííûé_ãðàäèåíò_214-3);}.cls-20{fill:url(#_Áåçûìÿííûé_ãðàäèåíò_163);}.cls-21{fill:url(#_Áåçûìÿííûé_ãðàäèåíò_137);}.cls-22{fill:url(#_Áåçûìÿííûé_ãðàäèåíò_211-3);}.cls-23{fill:#ffc12f;}.cls-24{fill:#71a6ff;}.cls-25{fill:#a190ff;}.cls-26{fill:#e9d9e3;}.cls-27{fill:url(#_Áåçûìÿííûé_ãðàäèåíò_3-2);}.cls-28{fill:#ff60b5;}.cls-29{fill:url(#_Áåçûìÿííûé_ãðàäèåíò_216);}.cls-30{fill:url(#_Áåçûìÿííûé_ãðàäèåíò_79-2);}.cls-31{fill:url(#_Áåçûìÿííûé_ãðàäèåíò_134-2);}.cls-32{fill:url(#_Áåçûìÿííûé_ãðàäèåíò_127-3);}.cls-33{fill:url(#_Áåçûìÿííûé_ãðàäèåíò_127);}.cls-53{fill:url(#_Áåçûìÿííûé_ãðàäèåíò_134);}.cls-34{fill:#8c6fa4;}.cls-54{clip-path:url(#clippath-2);}.cls-55{fill:#dadada;}.cls-35{fill:url(#_Áåçûìÿííûé_ãðàäèåíò_3);}.cls-36{fill:#e55947;}.cls-44{opacity:.48;}.cls-56{clip-path:url(#clippath);}.cls-37{fill:url(#_Áåçûìÿííûé_ãðàäèåíò_127-5);}.cls-38{fill:url(#_Áåçûìÿííûé_ãðàäèåíò_113);}.cls-57{fill:#fffbf3;}.cls-39{fill:url(#_Áåçûìÿííûé_ãðàäèåíò_215);}.cls-40{fill:#b02463;}.cls-41{fill:url(#_Áåçûìÿííûé_ãðàäèåíò_211);}.cls-58{fill:#a9e0ff;}</style><radialGradient id="_Áåçûìÿííûé_ãðàäèåíò_3" cx="2342.42" cy="2266.15" fx="2342.42" fy="2266.15" r="78.23" gradientTransform="translate(-2125.61 -315.73) rotate(2.72)" gradientUnits="userSpaceOnUse"><stop offset="0" stop-color="#515bff"/><stop offset=".03" stop-color="#515add"/><stop offset="1" stop-color="#4335bb"/></radialGradient><radialGradient id="_Áåçûìÿííûé_ãðàäèåíò_79" cx="2449.07" cy="2280.66" fx="2449.07" fy="2280.66" r="27.35" gradientTransform="translate(-2125.61 -315.73) rotate(2.72)" gradientUnits="userSpaceOnUse"><stop offset="0" stop-color="#9d94c2"/><stop offset=".98" stop-color="#8c74b1"/></radialGradient><linearGradient id="_Áåçûìÿííûé_ãðàäèåíò_163" x1="2621.48" y1="2351.11" x2="2621.48" y2="2232.85" gradientTransform="translate(-2125.61 -315.73) rotate(2.72)" gradientUnits="userSpaceOnUse"><stop offset="0" stop-color="#6339ab"/><stop offset="1" stop-color="#547ed1"/></linearGradient><linearGradient id="_Áåçûìÿííûé_ãðàäèåíò_134" x1="2601.05" y1="2116.75" x2="2601.05" y2="2048.92" gradientTransform="translate(-2328.22)" gradientUnits="userSpaceOnUse"><stop offset="0" stop-color="#fb6300"/><stop offset="1" stop-color="#ffbf00"/></linearGradient><radialGradient id="_Áåçûìÿííûé_ãðàäèåíò_113" cx="2391.17" cy="2152.69" fx="2391.17" fy="2152.69" r="89.16" gradientTransform="translate(-2328.22)" gradientUnits="userSpaceOnUse"><stop offset="0" stop-color="#71a6ff"/><stop offset="1" stop-color="#6e76db"/></radialGradient><radialGradient id="_Áåçûìÿííûé_ãðàäèåíò_3-2" cx="2426.2" cy="2156.96" fx="2426.2" fy="2156.96" r="76.06" gradientTransform="translate(-2328.22)" xlink:href="#_Áåçûìÿííûé_ãðàäèåíò_3"/><radialGradient id="_Áåçûìÿííûé_ãðàäèåíò_79-2" cx="2532.23" cy="2185.62" fx="2532.23" fy="2185.62" r="27.35" gradientTransform="translate(-2328.22)" xlink:href="#_Áåçûìÿííûé_ãðàäèåíò_79"/><linearGradient id="_Áåçûìÿííûé_ãðàäèåíò_137" x1="2705.77" y1="2231.95" x2="2705.77" y2="2137.8" gradientTransform="translate(-2328.22)" gradientUnits="userSpaceOnUse"><stop offset="0" stop-color="#433599"/><stop offset="1" stop-color="#515aba"/></linearGradient><linearGradient id="_Áåçûìÿííûé_ãðàäèåíò_127" x1="2459.55" y1="2208.42" x2="2459.55" y2="2178.64" gradientTransform="translate(-2328.22)" gradientUnits="userSpaceOnUse"><stop offset="0" stop-color="#dd1d33"/><stop offset="1" stop-color="#ff4827"/></linearGradient><linearGradient id="_Áåçûìÿííûé_ãðàäèåíò_134-2" x1="2855.64" y1="2216.24" x2="2855.64" y2="2159.81" xlink:href="#_Áåçûìÿííûé_ãðàäèåíò_134"/><linearGradient id="_Áåçûìÿííûé_ãðàäèåíò_134-3" x1="2568.73" y1="2231.95" x2="2568.73" y2="2138.49" xlink:href="#_Áåçûìÿííûé_ãðàäèåíò_134"/><clipPath id="clippath"><polygon class="cls-48" points="265.52 2197.03 268.49 2172.93 500.82 2174.79 497.85 2198.89 265.52 2197.03"/></clipPath><clipPath id="clippath-1"><rect class="cls-48" x="395.17" y="2042.95" width="29.61" height="125.52" transform="translate(-1724.19 2323.55) rotate(-84.81)"/></clipPath><clipPath id="clippath-2"><rect class="cls-48" x="1.98" y="1520.29" width="137.61" height="333.77"/></clipPath><clipPath id="clippath-3"><polygon class="cls-48" points="13.29 1628.22 15.79 1603.82 91.19 1610.52 88.69 1634.91 13.29 1628.22"/></clipPath><clipPath id="clippath-4"><polygon class="cls-48" points="32.26 1769.6 35.01 1742.7 85.28 1747.17 82.52 1774.06 32.26 1769.6"/></clipPath><linearGradient id="_Áåçûìÿííûé_ãðàäèåíò_127-2" x1="6945.55" y1="-1773.57" x2="6945.55" y2="-1839.7" gradientTransform="translate(3693.04 -981.09) rotate(114) scale(.54 -1)" xlink:href="#_Áåçûìÿííûé_ãðàäèåíò_127"/><linearGradient id="_Áåçûìÿííûé_ãðàäèåíò_127-3" x1="-4012.12" y1="2488.05" x2="-4012.12" y2="2449.38" gradientTransform="translate(358.42 4174.08) rotate(43.73) scale(.54 -1)" xlink:href="#_Áåçûìÿííûé_ãðàäèåíò_127"/><linearGradient id="_Áåçûìÿííûé_ãðàäèåíò_127-4" x1="2811.36" y1="-1644.56" x2="2811.36" y2="-1690.2" gradientTransform="translate(1900.08 215.78) rotate(88.65) scale(.54 -1)" xlink:href="#_Áåçûìÿííûé_ãðàäèåíò_127"/><linearGradient id="_Áåçûìÿííûé_ãðàäèåíò_214" x1="4280.48" y1="-2031.2" x2="4280.48" y2="-2071.95" gradientTransform="translate(3011.87 -637.81) rotate(106.08) scale(.54 -1)" gradientUnits="userSpaceOnUse"><stop offset="0" stop-color="#8343d6"/><stop offset="1" stop-color="#8143e5"/></linearGradient><linearGradient id="_Áåçûìÿííûé_ãðàäèåíò_214-2" x1="-661.15" y1="-130.29" x2="-661.15" y2="-177.81" gradientTransform="translate(698.39 1926.07) rotate(67.74) scale(.54 -1)" xlink:href="#_Áåçûìÿííûé_ãðàäèåíò_214"/><linearGradient id="_Áåçûìÿííûé_ãðàäèåíò_211" x1="11330.23" y1="-1962.93" x2="11330.23" y2="-2013.38" gradientTransform="translate(6093.02 -1603.56) rotate(137.35) scale(.54 -1)" gradientUnits="userSpaceOnUse"><stop offset="0" stop-color="#ffa700"/><stop offset="1" stop-color="#ffbf00"/></linearGradient><linearGradient id="_Áåçûìÿííûé_ãðàäèåíò_211-2" x1="12319.69" y1="-1457.36" x2="12319.69" y2="-1507.81" xlink:href="#_Áåçûìÿííûé_ãðàäèåíò_211"/><linearGradient id="_Áåçûìÿííûé_ãðàäèåíò_127-5" x1="-4378.9" y1="2336.02" x2="-4378.9" y2="2297.35" gradientTransform="translate(358.42 4174.08) rotate(43.73) scale(.54 -1)" xlink:href="#_Áåçûìÿííûé_ãðàäèåíò_127"/><linearGradient id="_Áåçûìÿííûé_ãðàäèåíò_211-3" x1="10667.15" y1="-2100.83" x2="10667.15" y2="-2151.27" xlink:href="#_Áåçûìÿííûé_ãðàäèåíò_211"/><linearGradient id="_Áåçûìÿííûé_ãðàäèåíò_139" x1="10587.9" y1="-1269.67" x2="10739.06" y2="-1269.67" gradientTransform="translate(10939.68 -2026.3) rotate(161) scale(1 -1)" gradientUnits="userSpaceOnUse"><stop offset="0" stop-color="#ffbf00"/><stop offset="1" stop-color="#ffa700"/></linearGradient><linearGradient id="_Áåçûìÿííûé_ãðàäèåíò_216" x1="11865.7" y1="-176.81" x2="11865.7" y2="-190.83" gradientTransform="translate(12276.99 -557.73) rotate(175.27) scale(1 -1)" gradientUnits="userSpaceOnUse"><stop offset="0" stop-color="#52146a"/><stop offset=".99" stop-color="#511fa4"/></linearGradient><linearGradient id="_Áåçûìÿííûé_ãðàäèåíò_214-3" x1="11825.6" y1="-89.8" x2="11825.6" y2="-190.83" gradientTransform="translate(12276.99 -557.73) rotate(175.27) scale(1 -1)" xlink:href="#_Áåçûìÿííûé_ãðàäèåíò_214"/><linearGradient id="_Áåçûìÿííûé_ãðàäèåíò_201" x1="4254.87" y1="9511.5" x2="4254.87" y2="9065.92" gradientTransform="translate(2709.73 11247.82) rotate(-38.18) scale(1 -1)" gradientUnits="userSpaceOnUse"><stop offset="0" stop-color="#511fa4"/><stop offset="1" stop-color="#52146a"/></linearGradient><linearGradient id="_Áåçûìÿííûé_ãðàäèåíò_214-4" x1="3979.38" y1="9331.76" x2="3979.38" y2="8902.12" gradientTransform="translate(2199.95 11047.16) rotate(-34.12) scale(1 -1)" xlink:href="#_Áåçûìÿííûé_ãðàäèåíò_214"/><linearGradient id="_Áåçûìÿííûé_ãðàäèåíò_215" x1="11348.57" y1="1195.88" x2="11525.58" y2="1195.88" gradientTransform="translate(11760.84) rotate(-180) scale(1 -1)" gradientUnits="userSpaceOnUse"><stop offset="0" stop-color="#ffbf00"/><stop offset="1" stop-color="#dd6d00"/></linearGradient><clipPath id="clippath-5"><polygon class="cls-48" points="373.67 1229.41 311.86 1150.26 283.12 1155.03 344.93 1234.18 373.67 1229.41"/></clipPath><clipPath id="clippath-6"><polygon class="cls-48" points="277.97 359.41 350.87 339.8 328.54 339.13 255.65 358.74 277.97 359.41"/></clipPath></defs><g class="cls-50"><g id="Layer_1"><path class="cls-24" d="M-5,2141.3s-1.84-3.24.27-5.71l212.05-18.85s17.5-32.66,7.5-78.36l-216.9,41.5s-3.18-1.78.31-6.51l221.49-42.15s16.09,38.46-6.96,93.92l-217.76,16.15Z"/><path class="cls-26" d="M4.07,2079.59s5.52,35.19.23,56.47l203.01-19.32s18.29-30.88,7.5-78.36l-210.75,41.21Z"/><polygon class="cls-35" points="-2.08 2079.88 4.24 2080.26 215.15 2040.63 214.82 2038.39 -2.08 2079.88"/><path class="cls-9" d="M211.13,2040.79s18.12,32.63-6.55,75.83l2.74.12s19.56-34.63,7.83-76.12l-4.02.16Z"/><polygon class="cls-4" points="4.07 2079.59 4.6 2083.42 212.6 2044 211.13 2040.79 4.07 2079.59"/><path class="cls-20" d="M219.72,2031.23l323.97,50.69s21.82,39.75-.12,83.11l-331.32-39.73s21.48-45.57,7.46-94.06Z"/><path class="cls-53" d="M245.75,2048.92s7.76,20.28-4.71,59.59l54.29,8.24s14.23-22.86,7.43-57.42l-57.01-10.41Z"/><g class="cls-46"><path class="cls-55" d="M496.04,2159.75l-2.88-1.2c19.31-46.2,6.8-82.38,6.67-82.74l2.94-1.06c.13.37,13.07,37.62-6.74,85Z"/></g><g class="cls-46"><path class="cls-55" d="M303.43,2137.14l-2.71-1.55c22.57-39.39,9.81-88.65,9.68-89.14l3.02-.8c.13.51,13.21,51-9.99,91.5Z"/></g><polygon class="cls-8" points="-5 2141.3 304.78 2160.59 542.16 2165.02 212.64 2125.26 -5 2141.3"/><path class="cls-38" d="M-8.95,2230.13s-1.99-3.15,0-5.71l209.65-.6s15.93-33.46,3.77-78.63l-213.42,23.46s-3.26-1.63,0-6.52l217.97-24.32s17.9,37.66-2.49,94.15l-215.48-1.82Z"/><path class="cls-26" d="M-2.82,2168.06s7.19,34.89,2.92,56.39l200.6-.64s16.8-31.72,3.77-78.63l-207.29,22.88Z"/><polygon class="cls-27" points="-8.95 2168.64 -2.62 2168.73 204.9 2147.42 204.47 2145.19 -8.95 2168.64"/><path class="cls-30" d="M200.89,2147.77s19.65,31.74-2.94,76.06h2.75s17.89-35.53,4.2-76.41l-4.01.35Z"/><path class="cls-21" d="M209.02,2137.8l329.23,7.38s23.21,38.88,0,86.76H206.53s18.57-47.13,2.49-94.15Z"/><polygon class="cls-4" points="-2.82 2168.06 -2.11 2171.86 202.51 2150.9 200.89 2147.77 -2.82 2168.06"/><polygon class="cls-4" points="151.5 2178.64 153.98 2217.73 129.47 2217.73 126.68 2182.98 151.5 2178.64"/><path class="cls-33" d="M151.5,2178.64l-24.82,4.34s-14.89,6.83-15.51,25.44h34.13s-4.96-14.89,6.21-29.79Z"/><path class="cls-31" d="M516.59,2159.81s10.82,17.52,0,56.43h17.59s9.12-32.06,0-56.43h-17.59Z"/><path class="cls-14" d="M239.37,2138.49s17.61,37.11,0,93.47h-5.55s18.57-46.73,2.17-93.47h3.38Z"/><g class="cls-50"><g class="cls-56"><path class="cls-58" d="M269.14,2193.94c-.22,0-.32-.13-.29-.37l.86-6.97c.03-.25.16-.37.38-.37l4.08.03c1.59.01,2.26.92,2.04,2.71l-.29,2.32c-.22,1.8-1.08,2.69-2.58,2.68l-4.2-.03M270.46,2183.23c-.22,0-.32-.13-.29-.38l.79-6.41c.03-.25.16-.37.38-.37l3.96.03c1.49.01,2.11.92,1.89,2.71l-.21,1.72c-.23,1.83-1.1,2.73-2.62,2.72l-3.9-.03M276.11,2172.99l-7.11-.06c-.34,0-.54.21-.59.63l-2.81,22.82c-.05.42.09.64.43.64l7.38.06c1.46.01,2.66-.47,3.6-1.47.94-.99,1.53-2.4,1.75-4.22l.3-2.4c.15-1.22.02-2.19-.4-2.92s-1.01-1.16-1.77-1.3c1.71-.61,2.71-2,2.97-4.18l.23-1.83c.23-1.83-.01-3.24-.71-4.24-.69-1.01-1.78-1.52-3.26-1.53"/><path class="cls-58" d="M287.25,2194.02c-1.44-.01-2.05-.95-1.82-2.79l1.5-12.18c.23-1.85,1.06-2.77,2.51-2.76l2.6.02c1.46.01,2.08.95,1.85,2.79l-1.5,12.18c-.23,1.85-1.07,2.77-2.54,2.76l-2.6-.02M292.89,2173.13l-3.48-.03c-1.48-.01-2.69.48-3.62,1.49-.94,1-1.52,2.43-1.75,4.28l-1.54,12.48c-.23,1.83,0,3.26.69,4.29.68,1.02,1.76,1.54,3.24,1.56l3.48.03c1.48.01,2.7-.49,3.64-1.5.95-1.02,1.53-2.44,1.76-4.27l1.54-12.48c.23-1.85,0-3.28-.7-4.3-.7-1.02-1.79-1.54-3.27-1.55"/><path class="cls-58" d="M303.81,2194.15c-1.44-.01-2.04-.95-1.82-2.79l1.5-12.18c.23-1.85,1.06-2.77,2.5-2.76l2.61.02c1.46.01,2.08.95,1.85,2.79l-1.5,12.18c-.23,1.85-1.08,2.77-2.54,2.76l-2.61-.02M309.45,2173.26l-3.48-.03c-1.48-.01-2.69.48-3.63,1.49-.93,1-1.51,2.43-1.74,4.28l-1.54,12.48c-.23,1.83,0,3.26.68,4.29.69,1.02,1.77,1.54,3.25,1.56l3.48.03c1.48.01,2.69-.49,3.64-1.5.95-1.02,1.53-2.44,1.76-4.27l1.54-12.48c.23-1.85,0-3.28-.7-4.3-.7-1.02-1.78-1.54-3.26-1.55"/><path class="cls-58" d="M325.69,2173.39l-3.19-.03c-1.46-.01-2.67.5-3.62,1.53-.96,1.03-1.55,2.46-1.77,4.28l-.19,1.57c-.17,1.41-.07,2.56.31,3.46.38.9.9,1.52,1.59,1.84.68.33,1.43.63,2.26.89s1.59.46,2.3.6c.71.14,1.27.44,1.71.91.43.47.59,1.1.5,1.9l-.11.87c-.14,1.1-.42,1.89-.86,2.37-.44.48-1.1.73-1.95.72l-2.07-.02c-.86,0-1.44-.24-1.75-.7-.32-.47-.41-1.22-.28-2.28l.08-.67c.05-.42-.09-.64-.43-.64l-1.92-.02c-.34,0-.54.21-.59.63l-.12.97c-.22,1.82.02,3.26.73,4.3.71,1.05,1.8,1.57,3.25,1.58l3.36.03c1.47.01,2.67-.49,3.63-1.53.96-1.03,1.55-2.46,1.77-4.28l.18-1.46c.15-1.2.09-2.22-.17-3.06-.26-.84-.65-1.47-1.18-1.89-.53-.42-1.13-.75-1.8-1.01-.67-.26-1.34-.45-2.02-.58-.67-.13-1.29-.28-1.85-.47-1.25-.41-1.81-1.17-1.67-2.3l.14-1.16c.14-1.18.43-2.01.87-2.49.43-.48,1.07-.73,1.93-.72l1.9.02c.86,0,1.44.25,1.75.71.32.46.41,1.23.27,2.31l-.06.49c-.05.42.09.64.43.64l1.92.02c.34,0,.54-.21.59-.63l.1-.83c.22-1.82,0-3.26-.72-4.3-.7-1.04-1.79-1.57-3.27-1.58"/><path class="cls-58" d="M344.53,2173.54l-11.13-.09c-.36,0-.56.21-.62.63l-.24,1.91c-.05.42.1.64.46.64l3.79.03c.2,0,.28.13.25.38l-2.45,19.9c-.05.42.1.64.46.64l1.89.02c.34,0,.54-.21.59-.63l2.45-19.9c.03-.25.15-.38.37-.38l3.78.03c.36,0,.57-.21.62-.63l.24-1.91c.05-.42-.11-.64-.47-.64"/><path class="cls-58" d="M367.49,2173.73l-2.22-.02c-.42,0-.76.21-1.03.63l-6.97,9.96c-.39.57-.73,1.2-1.01,1.87h-.09s1.46-11.88,1.46-11.88c.05-.42-.09-.64-.43-.64l-1.89-.02c-.34,0-.54.21-.59.63l-2.81,22.82c-.05.42.09.64.43.64l1.89.02c.34,0,.54-.21.59-.63l.82-6.66,2.8-3.47,3.94,10.2c.17.43.52.64,1.06.65h1.68c.48.02.63-.23.45-.73l-5.04-12.76,7.08-9.89c.33-.47.3-.71-.13-.71"/><path class="cls-58" d="M383.84,2173.86h-1.86c-.34-.02-.54.19-.59.62l-1.98,16.08h-.12s-5.25-16.36-5.25-16.36c-.09-.28-.29-.42-.61-.42h-1.68c-.34-.02-.54.19-.59.62l-2.81,22.82c-.05.42.09.64.43.64h1.86c.34.02.54-.19.59-.62l1.98-16.08h.12s5.22,16.18,5.22,16.18c.15.4.39.6.71.6h1.62c.34.02.54-.2.59-.62l2.81-22.82c.05-.42-.09-.64-.43-.64"/><path class="cls-58" d="M390.93,2194.85c-1.44-.01-2.04-.95-1.82-2.79l1.5-12.18c.23-1.85,1.06-2.77,2.5-2.76l2.61.02c1.47.01,2.08.95,1.85,2.79l-1.5,12.18c-.23,1.85-1.07,2.77-2.54,2.76l-2.61-.02M396.57,2173.96l-3.48-.03c-1.48-.01-2.69.48-3.62,1.49-.94,1-1.52,2.43-1.75,4.28l-1.54,12.48c-.23,1.83,0,3.26.69,4.29.68,1.02,1.76,1.54,3.24,1.56l3.48.03c1.48.01,2.7-.49,3.64-1.5.95-1.02,1.53-2.44,1.76-4.27l1.54-12.48c.23-1.85,0-3.28-.7-4.3-.69-1.02-1.78-1.54-3.26-1.55"/><path class="cls-58" d="M426.04,2174.19l-2.31-.02c-.38,0-.61.22-.68.67l-4.84,19.59h-.18s-1.14-19.74-1.14-19.74c-.02-.38-.18-.57-.5-.57l-2.52-.02c-.32,0-.52.18-.61.56l-5.97,19.68h-.18s0-19.66,0-19.66c.03-.42-.15-.64-.52-.64l-2.31-.02c-.38,0-.57.21-.59.63l.76,22.85c0,.42.19.64.55.64l3.18.03c.33,0,.54-.21.65-.63l5.73-18.93h.12s1.05,18.99,1.05,18.99c.01.42.18.64.52.64l3.18.03c.34,0,.57-.21.68-.63l6.38-22.76c.11-.45-.03-.67-.43-.68"/><path class="cls-58" d="M431.77,2174.24l-1.9-.02c-.34,0-.54.21-.59.63l-2.81,22.82c-.05.42.09.64.43.64l9.72.08c.34,0,.54-.21.59-.63l.24-1.94c.06-.45-.09-.67-.43-.68l-6.96-.06c-.24,0-.34-.14-.31-.38l2.44-19.83c.05-.42-.09-.64-.43-.64"/><path class="cls-58" d="M452.98,2174.41l-9.6-.08c-.35,0-.54.21-.6.63l-2.81,22.82c-.05.42.09.64.44.64l9.6.08c.33,0,.51-.21.56-.63l.24-1.91c.05-.42-.08-.64-.4-.64l-6.84-.05c-.24,0-.34-.14-.31-.42l.82-6.66c.03-.26.17-.38.41-.38l5.79.05c.36,0,.56-.21.62-.63l.24-1.91c.05-.42-.1-.64-.46-.64l-5.79-.05c-.24,0-.35-.13-.31-.38l.78-6.33c.03-.25.17-.38.41-.38l6.84.05c.33,0,.51-.21.56-.63l.24-1.91c.05-.42-.08-.64-.4-.64"/><path class="cls-58" d="M457.94,2195.38c-.22,0-.32-.14-.28-.42l2.09-16.94c.03-.25.16-.38.38-.38l4.23.03c1.44.01,2.04.95,1.82,2.79l-1.5,12.18c-.23,1.85-1.06,2.77-2.5,2.76l-4.23-.03M465.17,2174.51l-7.38-.06c-.34,0-.54.21-.59.63l-2.81,22.82c-.05.42.09.64.43.64l7.38.06c1.46.01,2.67-.49,3.62-1.5.96-1.02,1.55-2.44,1.77-4.27l1.54-12.48c.23-1.85,0-3.28-.72-4.3-.7-1.02-1.79-1.54-3.25-1.55"/><path class="cls-58" d="M481.5,2174.64l-3.21-.03c-1.48-.01-2.69.48-3.63,1.49-.93,1-1.51,2.43-1.74,4.28l-1.54,12.48c-.23,1.83,0,3.26.68,4.29.69,1.02,1.77,1.54,3.25,1.56l3.21.03c1.46.01,2.66-.49,3.61-1.5.95-1.02,1.53-2.44,1.76-4.27l.78-6.29c.07-.53-.12-.79-.53-.79l-5.05-.04c-.34,0-.54.21-.59.63l-.24,1.91c-.05.42.09.64.43.64l2.43.02c.22,0,.31.13.28.38l-.42,3.37c-.23,1.85-1.06,2.77-2.5,2.76l-2.37-.02c-1.44-.01-2.04-.95-1.82-2.79l1.5-12.18c.23-1.85,1.06-2.77,2.5-2.76l2.37.02c1.44.01,2.04.95,1.82,2.79l-.15,1.2c-.06.45.09.67.43.68l1.89.02c.34,0,.54-.22.59-.67l.17-1.35c.23-1.85,0-3.28-.69-4.3-.68-1.02-1.77-1.54-3.25-1.55"/><path class="cls-58" d="M500.34,2174.79l-9.6-.08c-.35,0-.54.21-.59.63l-2.81,22.82c-.05.42.09.64.44.64l9.6.08c.33,0,.51-.21.56-.63l.24-1.91c.05-.42-.08-.64-.4-.64l-6.84-.05c-.24,0-.34-.14-.31-.42l.82-6.66c.03-.26.17-.38.41-.38l5.79.05c.36,0,.56-.21.62-.63l.24-1.91c.05-.42-.1-.64-.46-.64l-5.79-.05c-.24,0-.35-.13-.31-.38l.78-6.33c.03-.25.17-.38.41-.38l6.84.05c.33,0,.51-.21.56-.63l.24-1.91c.05-.42-.08-.64-.4-.64"/></g></g><g class="cls-50"><g class="cls-49"><path class="cls-58" d="M352.4,2106.95c-1.55-.14-2.23-1.15-2.06-3.03l1.12-12.35c.17-1.87,1.02-2.74,2.57-2.6l2.8.26c1.54.14,2.23,1.15,2.06,3.03l-1.12,12.35c-.17,1.87-1.03,2.74-2.57,2.6l-2.8-.26M357.58,2086.04l-3.74-.34c-1.59-.15-2.87.25-3.84,1.19-.98.95-1.55,2.36-1.72,4.23l-1.15,12.66c-.17,1.85.14,3.33.93,4.45s1.97,1.75,3.56,1.9l1.48.14,1.8,4.61c.17.45.5.7.97.74l1.81.17c.19.02.34-.04.44-.17.1-.14.11-.33.02-.59l-1.76-4.57c1.28-.08,2.32-.59,3.11-1.53.78-.94,1.25-2.23,1.4-3.88l1.15-12.66c.17-1.87-.13-3.37-.9-4.48-.78-1.1-1.97-1.73-3.56-1.87"/><path class="cls-58" d="M380.01,2088.1l-2.03-.19c-.36-.03-.57.16-.61.6l-1.61,17.75c-.17,1.87-1.04,2.74-2.6,2.6l-2.65-.24c-1.55-.14-2.23-1.15-2.06-3.03l1.61-17.75c.04-.43-.12-.66-.49-.7l-2.04-.19c-.36-.03-.57.16-.61.6l-1.63,17.9c-.17,1.85.14,3.33.93,4.45s1.96,1.75,3.54,1.9l3.57.33c1.57.14,2.84-.26,3.84-1.22.98-.96,1.56-2.36,1.73-4.21l1.63-17.94c.04-.4-.14-.62-.53-.65"/><path class="cls-58" d="M387.85,2088.82l-2.03-.19c-.37-.03-.57.16-.61.59l-2.1,23.14c-.04.43.12.66.5.7l2.03.19c.36.03.57-.16.61-.6l2.1-23.14c.04-.43-.12-.66-.49-.7"/><path class="cls-58" d="M404.87,2090.38l-11.41-1.05c-.39-.04-.6.16-.64.59l-.2,2.16c-.04.43.14.66.53.7l8.54.78v.15s-10.87,16.14-10.87,16.14c-.22.26-.36.72-.42,1.38l-.16,1.78c-.04.43.12.66.49.7l12.25,1.12c.36.03.57-.19.61-.68l.19-2.12c.04-.4-.13-.63-.49-.66l-9.09-.83v-.15s10.45-15.37,10.45-15.37c.27-.41.44-.89.49-1.46l.23-2.5c.04-.43-.12-.66-.49-.7"/><path class="cls-58" d="M427.88,2092.49l-11.96-1.1c-.39-.04-.6.16-.64.59l-.18,1.94c-.04.43.13.66.52.7l4.06.37c.21.02.32.16.29.41l-1.83,20.18c-.04.43.13.66.52.7l2.03.19c.36.03.57-.16.61-.6l1.83-20.18c.02-.25.16-.37.39-.34l4.06.37c.39.04.6-.16.64-.59l.18-1.94c.04-.43-.13-.66-.52-.7"/><path class="cls-58" d="M433.97,2093.04l-2.03-.19c-.36-.03-.57.16-.61.6l-2.1,23.14c-.04.43.12.66.49.7l2.03.19c.36.03.57-.16.61-.6l2.1-23.14c.04-.43-.12-.66-.49-.7"/><path class="cls-58" d="M457.17,2095.17l-3.61-.33c-.27-.03-.45.09-.52.37l-5.78,14.26-.17-.02-3.08-15.08c-.09-.29-.24-.44-.48-.46l-3.61-.33c-.36-.03-.57.16-.61.6l-2.1,23.14c-.04.43.12.66.49.7l1.97.18c.21.02.36-.01.45-.09.08-.08.14-.25.16-.5l1.75-19.23h.13s3.01,14.36,3.01,14.36c.09.42.3.63.63.66l2.06.19c.34.03.6-.14.76-.54l5.45-13.53h.13s-1.74,19.2-1.74,19.2c-.04.43.12.66.49.7l2,.18c.36.03.57-.16.61-.6l2.1-23.14c.04-.43-.12-.66-.49-.7"/><path class="cls-58" d="M473.29,2096.65l-10.31-.95c-.37-.03-.57.16-.61.59l-2.1,23.14c-.04.43.12.66.5.7l10.31.95c.35.03.54-.17.58-.6l.18-1.94c.04-.43-.11-.66-.46-.69l-7.34-.67c-.26-.02-.37-.18-.35-.46l.61-6.77c.02-.25.16-.36.42-.34l6.22.57c.39.04.6-.16.64-.59l.18-1.94c.04-.43-.13-.66-.52-.7l-6.22-.57c-.26-.02-.38-.16-.35-.41l.58-6.43c.02-.25.16-.36.42-.34l7.34.67c.35.03.54-.17.58-.6l.18-1.94c.04-.43-.11-.66-.46-.69"/></g></g><g class="cls-54"><polygon class="cls-28" points="-16.19 1538.43 -23.85 1683.45 108.79 1695.23 123.34 1564.81 -16.19 1538.43"/><polygon class="cls-1" points="-16.19 1538.43 11.16 1543.24 -.8 1686.81 -23.85 1683.45 -16.19 1538.43"/><polygon class="cls-23" points="-14.89 1715.61 -18.93 1770.81 98.02 1798.94 113.18 1733.28 -14.89 1715.61"/><polygon class="cls-1" points="17.3 1720.05 12.44 1778.36 -18.93 1770.81 -14.89 1715.61 17.3 1720.05"/><g class="cls-50"><g class="cls-52"><path class="cls-47" d="M29.85,1605.07l-2.08-.18c-.38-.03-.59.16-.63.59l-1.67,16.28h-.13s-6.41-17.24-6.41-17.24c-.11-.3-.34-.45-.69-.49l-1.88-.17c-.38-.03-.59.16-.63.59l-2.37,23.11c-.04.43.12.66.5.69l2.08.18c.38.03.59-.16.63-.59l1.67-16.28h.13s6.37,17.05,6.37,17.05c.18.42.45.65.81.68l1.81.16c.38.03.59-.16.63-.59l2.37-23.11c.04-.43-.12-.66-.5-.69"/><path class="cls-47" d="M38.13,1627.18c-.85-.08-1.44-.35-1.77-.83-.33-.48-.45-1.2-.35-2.16l.75-7.36c.1-.97.36-1.65.78-2.05.42-.41,1.06-.58,1.91-.51l2.04.18c1.6.14,2.31,1.14,2.12,2.99l-.75,7.36c-.19,1.85-1.09,2.7-2.69,2.56l-2.04-.18M42.26,1611.27l-2.95-.26c-1.65-.15-2.98.25-4,1.2-1,.94-1.6,2.35-1.79,4.22l-.78,7.59c-.19,1.85.11,3.33.91,4.45.8,1.11,2.03,1.74,3.68,1.89l2.95.26c1.63.14,2.96-.26,3.99-1.21,1.04-.96,1.64-2.36,1.83-4.21l.78-7.59c.19-1.87-.12-3.36-.95-4.46-.82-1.11-2.05-1.74-3.67-1.88"/><path class="cls-47" d="M55.33,1607.95l-2.11-.19c-.4-.04-.62.16-.67.59l-.35,3.41c-.03.26-.15.38-.37.36l-1.61-.14c-.38-.03-.59.16-.63.59l-.2,1.97c-.02.23,0,.4.07.48.07.1.22.15.44.17l1.61.14c.22.02.32.16.29.41l-1.02,9.94c-.19,1.84.13,3.32.97,4.41.84,1.09,2.08,1.71,3.73,1.86l1.81.16c.4.04.62-.14.66-.55l.2-1.98c.04-.43-.13-.66-.53-.7l-1.3-.12c-1.67-.15-2.42-1.14-2.23-3l1-9.75c.03-.25.16-.37.4-.35l3.12.28c.39.04.62-.14.66-.56l.2-1.97c.04-.43-.14-.66-.53-.7l-3.12-.28c-.24-.02-.35-.16-.32-.42l.35-3.41c.04-.43-.12-.66-.51-.7"/><path class="cls-47" d="M65.43,1622.21c-.23-.02-.33-.16-.3-.42l.25-2.43c.1-.97.36-1.65.78-2.05.42-.41,1.06-.58,1.92-.51l1.84.16c.84.07,1.44.35,1.77.83.33.47.45,1.19.35,2.15l-.25,2.43c-.03.26-.15.38-.37.36l-5.99-.53M70.68,1613.79l-2.75-.24c-1.65-.15-2.98.25-3.99,1.2-1.01.94-1.61,2.35-1.8,4.22l-.78,7.59c-.19,1.85.11,3.33.91,4.45.79,1.11,2.02,1.74,3.67,1.89l7.23.64c.4.04.62-.14.66-.55l.19-1.9c.05-.46-.13-.71-.53-.74l-6.76-.6c-1.63-.15-2.35-1.14-2.16-2.98l.17-1.64c.03-.25.16-.37.41-.34l8.97.8c.4.04.62-.17.67-.63l.49-4.82c.19-1.87-.12-3.36-.93-4.46-.8-1.11-2.04-1.73-3.69-1.88"/><path class="cls-47" d="M89.2,1615.43l-5.56-.49c-3.19-.28-4.96,1.2-5.29,4.47-.12,1.19.04,2.17.48,2.95.44.78,1.2,1.52,2.27,2.23l3.45,2.29c.99.63,1.44,1.45,1.33,2.46l-.05.46c-.12,1.14-.9,1.65-2.35,1.52l-5.63-.5c-.38-.03-.59.15-.63.56l-.19,1.85c-.04.43.12.66.5.69l6.16.55c3.33.3,5.16-1.19,5.5-4.49.13-1.26.02-2.31-.33-3.15-.36-.84-1.09-1.6-2.19-2.29l-3.46-2.45c-1.07-.71-1.57-1.47-1.49-2.27l.04-.42c.04-.43.25-.76.64-1,.38-.23.91-.32,1.58-.26l4.89.43c.36.03.55-.17.6-.6l.19-1.86c.04-.43-.11-.66-.46-.69"/></g></g><g class="cls-50"><g class="cls-43"><path class="cls-57" d="M40.47,1761.36c-.14-.01-.28-.04-.43-.07l-2.36-.58c-1.31-.31-1.79-1.24-1.45-2.77l2.25-10.08c.3-1.35.97-1.98,2.02-1.89.14.01.29.04.44.08l2.37.58c1.31.31,1.79,1.24,1.45,2.77l-2.24,10.08c-.3,1.35-.98,1.98-2.05,1.88M40.28,1743.17c-.98-.09-1.83.13-2.56.64-.93.66-1.57,1.75-1.91,3.28l-2.3,10.32c-.34,1.51-.23,2.78.33,3.8.56,1.03,1.51,1.71,2.84,2.04l1.25.3,1.05,4.05c.1.4.36.65.75.74l1.52.37s.06.01.09.02c.12.01.22-.03.3-.1.1-.1.12-.26.08-.49l-1.03-4.01c1.11.1,2.05-.19,2.82-.86.77-.67,1.3-1.68,1.6-3.03l2.31-10.32c.34-1.53.23-2.81-.32-3.82-.54-1.01-1.49-1.69-2.83-2.01l-3.16-.78c-.29-.07-.58-.12-.85-.14"/><path class="cls-57" d="M52.58,1746.12c-.25-.02-.41.12-.48.44l-3.26,14.6c-.34,1.51-.23,2.78.33,3.81.56,1.02,1.49,1.7,2.82,2.02l3.02.74c.29.07.57.12.84.14.97.09,1.83-.13,2.56-.64.94-.67,1.58-1.76,1.92-3.26l3.26-14.63c.07-.33-.06-.54-.38-.61l-1.72-.42s-.07-.01-.1-.02c-.25-.02-.41.12-.48.44l-3.23,14.47c-.3,1.35-.99,1.98-2.05,1.89-.14-.01-.29-.04-.44-.08l-2.23-.54c-1.31-.32-1.79-1.25-1.45-2.78l3.23-14.48c.08-.35-.04-.56-.34-.64l-1.72-.42s-.07-.01-.1-.02"/><path class="cls-57" d="M68.01,1749.89c-.25-.02-.41.12-.48.43l-4.2,18.87c-.08.35.03.56.34.64l1.72.42s.07.01.1.02c.25.02.41-.12.48-.43l4.2-18.87c.08-.35-.03-.56-.34-.64l-1.72-.42s-.07-.01-.1-.02"/><path class="cls-57" d="M74.45,1751.47c-.27-.02-.43.12-.5.42l-.4,1.77c-.08.35.05.56.37.65l7.21,1.76-.03.12-10.95,11.93c-.21.19-.38.54-.5,1.08l-.32,1.46c-.08.35.04.56.35.64l10.34,2.53s.06.01.09.02c.25.02.42-.14.5-.5l.38-1.73c.07-.34-.04-.54-.35-.61l-7.67-1.88.03-.12,10.51-11.35c.28-.3.47-.68.56-1.14l.46-2.05c.08-.34-.04-.56-.34-.64l-9.63-2.35s-.07-.01-.11-.02"/></g></g></g><path class="cls-15" d="M485.82,1698.89s24.23,17.49,60.41,26.9l-9.66,21.69s-30.39-4.09-59.09-27.59l8.33-21.01Z"/><path class="cls-32" d="M473.75,894.67s14.41-9.89,26.73-27.94l10.03,9.6s-7.78,16.82-30.44,23.91l-6.33-5.57Z"/><path class="cls-10" d="M253.16,1772.35s16.09,10.49,38.66-.91l.33,13.88s-24.73,5.54-45.78-5.43l6.8-7.54Z"/><path class="cls-5" d="M381.25,1014.16s18.19,7.65,32.23,9.29l2.88,9.65s-21.63-.02-39.18-11.2l4.07-7.74Z"/><path class="cls-18" d="M394.94,1654.03s19.08-3.52,39.74-16.27l7.01,5.06s-16.73,21.64-40.63,24.55l-6.12-13.34Z"/><path class="cls-41" d="M214.93,1073.17s14.37,18.68,34.7,34.52l-6.25,7.86s-27.72-8.65-39.46-31.36l11.01-11.02Z"/><path class="cls-6" d="M162.76,1808.55s14.37,18.68,34.7,34.52l-6.25,7.86s-27.72-8.65-39.46-31.36l11.01-11.02Z"/><path class="cls-37" d="M224.91,867.02s14.41-9.89,26.73-27.94l10.03,9.6s-7.78,16.82-30.44,23.91l-6.33-5.57Z"/><path class="cls-22" d="M386,728.14s14.37,18.68,34.7,34.52l-6.25,7.86s-27.72-8.65-39.46-31.36l11.01-11.02Z"/><g class="cls-44"><path class="cls-12" d="M99.55,368.29l20.96,2.58c1.43,2.17,3.48,5.6,5.83,10.53h.02s0,0,0,0h-.01s14.55,1.5,14.55,1.5l-11.7,4.91c.56,1.33,1.12,2.74,1.69,4.22h0s0,0,0,0c0,0,0,0,0,0l.82.12,2.62.38-2.9.96c4.11,11.03,8.38,25.99,11.48,45.63l-12.64,4.85,1.64,4.77,127.67-27.93,219.52-62.16c4.39,10.05,7.87,14.27,7.87,14.27l30.32-2.73c-4.17-7.01-7.61-13.44-10.58-19.36l19.49-5.52c4.82-39.24-21.85-63.44-21.85-63.44l-143.63-32.09-262.88,113.55,1.7,4.94ZM473.35,342.9s0,.02.01.04l-18.34.5h0s-12.94.29-12.94.29l31.27-.83ZM435.86,343.96l-46.41,1.26.28-.11s0-.04,0-.05c0,.01,0,.03,0,.04l33.68-.89v.08s12.44-.34,12.44-.34h0ZM522.15,341.61l-19.66.54s0,0,0-.01l8.51-.22s0,0,0,0l6.97-.19,4.18-.11s.47-3.69.47-9.26c.14,5.69-.47,9.26-.47,9.26Z"/></g><path class="cls-11" d="M67.56,322.81l101.82,12.53,334.32-97.67s16.45,9.23,20.38,56.15l4.56-.12s5.72-44.18-20.98-61.72l-154.85-34.81-285.26,125.64Z"/><polygon class="cls-36" points="65.71 317.42 352.53 193.53 354.56 200.14 67.56 322.81 65.71 317.42"/><path class="cls-26" d="M503.71,237.68l-147.68-28.3s21.77,32.02,28.15,88.15l139.91-3.7s1-45.91-20.38-56.15Z"/><path class="cls-34" d="M88.17,322.47s3.74,4.42,8.63,14.66h.02s15.88,1.63,15.88,1.63l-12.77,5.36c.61,1.45,1.22,2.99,1.85,4.61l3.77.54-3.18,1.06c4.49,12.05,9.16,28.41,12.55,49.9l269.27-102.69s-.63-56.02-28.16-88.15l-267.84,113.09Z"/><path class="cls-13" d="M352.53,193.53l156.72,35.01s29.1,26.41,23.84,69.22l-148.22,8.02-2.78-8.07,146.58-3.99s5.83-34.09-20.98-61.72l-153.12-31.84-2.02-6.62Z"/><polygon class="cls-36" points="382.08 297.7 101.1 405.4 102.89 410.6 384.86 305.77 382.08 297.7"/><polygon class="cls-11" points="102.89 410.6 242.18 380.13 533.08 297.76 384.86 305.77 102.89 410.6"/><polygon class="cls-7" points="367.18 226.12 492.84 246.7 369.32 230.48 112.69 338.76 96.81 337.13 367.18 226.12"/><polygon class="cls-7" points="372.47 237.87 472.4 249.77 372.95 239.07 105.54 349.27 101.76 348.73 372.47 237.87"/><path class="cls-4" d="M524.09,293.83l-7.6.21s4.91-37.53-14.97-54.17l-141.98-26.03-3.53-4.46,147.69,28.3s20.8,4.05,20.38,56.15Z"/><polygon class="cls-40" points="466.08 315.04 371.83 321.76 331.95 335.37 427.85 324.91 466.08 315.04"/><path class="cls-16" d="M503.71,237.68s19.36,8.29,20.38,56.15c0,0,4.99-44.42-20.38-56.15Z"/><path class="cls-29" d="M413.69,243.45s12.27-11.52,22.98-12.51l7.63,1.01,15.23,3.79s-19.29,2.32-27.64,9.67l-18.2-1.96Z"/><path class="cls-19" d="M436.67,230.94s24.16-.38,33.42,43.5c8.21,38.91,20.2,53.43,20.2,53.43l33.08-2.98c-31.08-52.3-25.88-75.37-63.84-89.17,0,0-14.35-4.39-22.85-4.8Z"/><polygon class="cls-4" points="413.69 243.45 420.94 296.64 434.5 296.27 437.05 302.95 456.27 301.91 455.41 295.7 441.27 296.01 431.88 245.41 413.69 243.45"/><g class="cls-44"><path class="cls-12" d="M476.89,1417.68l-285.45-123.3-155.96,34.84s-28.96,26.28-23.72,68.89l21.17,5.99c-3.23,6.43-6.96,13.41-11.49,21.02l32.92,2.96s3.78-4.58,8.54-15.5l238.36,67.5,138.62,30.32,1.78-5.18-13.73-5.26c3.37-21.32,8.01-37.57,12.47-49.55l-3.15-1.05,2.85-.41.89-.13s0,0,0,0h0s0,0,0,0c.63-1.62,1.23-3.14,1.84-4.59l-12.7-5.33,15.8-1.62h-.02s0,0,0,0h.02c2.56-5.36,4.78-9.08,6.33-11.44l22.76-2.8,1.85-5.37ZM103.11,1396.38l-14.05-.31h0s-19.91-.54-19.91-.54c0-.01,0-.03.01-.04l33.95.9ZM109.86,1396.63l13.5.37v-.08s36.59.97,36.59.97c0-.01,0-.03,0-.04,0,0,0,.05,0,.05l.31.12-50.4-1.37h0ZM15.65,1384.02c0,6.05.51,10.05.51,10.05l4.54.12,7.56.21s0,0,0,0l9.24.24s0,0,0,.01l-21.34-.58s-.66-3.87-.51-10.05Z"/></g><path class="cls-3" d="M154.46,1166.6s3.18-10.47,13.53-19.67c16.84-14.98,37.35-20.35,37.35-20.35l266.26,338.58s-19.35,36.98-50.88,40.01l-266.26-338.58Z"/><path class="cls-17" d="M471.59,1465.17l54.44-101.88-207.8-268.29s-15.22,8.79-19.21,10.64c-21.77,10.11-93.68,20.96-93.68,20.96l266.26,338.58Z"/><path class="cls-2" d="M228.65,1209.62l-7.05,6.2-46.22-57.53s-.13-3.88,6.77-7.33l46.5,58.66Z"/><polygon class="cls-39" points="412.27 1230.76 323.42 1118.61 235.26 1144.06 336.37 1273.14 412.27 1230.76"/><polygon class="cls-25" points="509.76 1376.48 477.84 1431.41 471.59 1420.57 506.43 1373.38 509.76 1376.48"/><polygon class="cls-4" points="415.61 1234.71 460.76 1293.84 398.07 1343.08 342 1279.42 415.61 1234.71"/><path class="cls-4" d="M291.97,1108.39l94.73,75-68.46-88.39s-11.95,9.23-26.27,13.39Z"/><g class="cls-50"><g class="cls-51"><path class="cls-45" d="M342.02,1203.33l-30.18-32.34,21.45,33.79,8.73-1.45M293.97,1153.23l7.05-1.17,72.66,77.35-6.35,1.05-13.75-14.73-12.01,1.99,9.77,15.39-6.4,1.06-50.96-80.95"/></g></g><g class="cls-50"><g class="cls-42"><path class="cls-45" d="M283.99,356.03l19.63-5.28-5.8-.17c-1.43-.04-3.45.16-6.07.61-2.62.45-5.49,1.1-8.63,1.94s-5.03,1.47-5.9,1.95c-.87.47-.6.73.84.77l5.93.18M314.91,347.72l18.27-4.92-5.38-.16c-1.4-.04-3.28.14-5.64.55-2.36.41-5,1.01-7.92,1.79s-4.79,1.4-5.6,1.85c-.81.44-.51.69.89.73l5.38.16M338.76,339.44l12.11.36-72.89,19.61-12.65-.38c-1.99-.06-2.87-.34-2.66-.83.22-.49,1.42-1.15,3.61-1.97,2.18-.82,5.22-1.75,9.12-2.8,4.32-1.16,8.68-2.18,13.09-3.04,4.4-.87,7.81-1.38,10.24-1.54-.33-.36.48-.94,2.42-1.74,1.94-.79,5.04-1.76,9.28-2.91,3.62-.97,7.23-1.83,10.83-2.58,3.59-.74,6.92-1.31,9.96-1.7,3.04-.39,5.56-.55,7.55-.49"/></g></g></g></g></svg>