<?xml version="1.0" encoding="UTF-8"?><svg xmlns="http://www.w3.org/2000/svg" width="3840" height="2160" xmlns:xlink="http://www.w3.org/1999/xlink" viewBox="0 0 3840 2160"><defs><style>.cls-1{fill:none;}.cls-2{clip-path:url(#clippath-1);}.cls-3{isolation:isolate;}.cls-4{mix-blend-mode:overlay;opacity:.25;}.cls-5{fill:#d6edfb;}.cls-6{fill:#fff;opacity:.35;}.cls-7{fill:#eee;}.cls-8{fill:url(#_Áåçûìÿííûé_ãðàäèåíò_211);}.cls-9{clip-path:url(#clippath-2);}.cls-10{clip-path:url(#clippath);}</style><clipPath id="clippath"><rect class="cls-1" x="1564.15" y="2219.12" width="757.89" height="510.39"/></clipPath><linearGradient id="_Áåçûìÿííûé_ãðàäèåíò_211" x1="0" y1="1080" x2="3840" y2="1080" gradientUnits="userSpaceOnUse"><stop offset="0" stop-color="#ffa700"/><stop offset="1" stop-color="#ffbf00"/></linearGradient><clipPath id="clippath-1"><rect class="cls-1" x="0" width="3840" height="2160"/></clipPath><clipPath id="clippath-2"><rect class="cls-1" x="1737.09" y="-2328.25" width="3840" height="2160"/></clipPath></defs><g class="cls-3"><g id="Layer_1"><g class="cls-10"><circle class="cls-6" cx="1938.22" cy="2462.5" r="339.03"/></g><rect class="cls-8" width="3840" height="2160"/><g class="cls-2"><g class="cls-4"><path class="cls-7" d="M-37.16,701.76c368.56,33.36,747.19-56.03,1061.91-250.71,314.73-194.67,563.78-493.54,698.52-838.21,49.83-127.48,87.63-266.14,183.91-363.43,176.07-177.92,503.19-134.13,665.52,56.41,162.33,190.53,172.26,479.14,72.68,708.78-48.26,111.28-118.82,211.71-168.02,322.58-49.2,110.87-75.84,240.01-31.4,352.87,54.8,139.16,207.64,220.33,356.74,232,149.1,11.67,296.3-33.61,437.73-82.26,109.62-37.7,220.72-78.21,336.6-81.44,115.87-3.24,239.92,37.84,305.64,133.32,111.38,161.8,3,393.72-157.92,506.36-160.92,112.64-361.32,151.76-536.42,240.78-311.5,158.36-519.39,459.59-733.08,736.09-213.69,276.49-470.36,554.26-812.21,626.72-75.03,15.9-158.22,19.89-223.51-20.36-113.04-69.7-118.6-230.59-98.91-361.93,21.32-142.22,56.83-284.21,47.98-427.74-8.85-143.53-72.46-294.17-199.86-360.87-139.07-72.81-307.9-27.63-457.82,18.92-265.04,82.29-530.08,164.57-795.13,246.86-80.91,25.12-163.47,50.49-248.17,49.37-84.71-1.12-173.48-33.17-222.34-102.38-87.56-124.03-14.12-293.68,60.23-426.05C-326.74,1318.76-158.98,1020.08,8.78,721.4"/></g></g><path class="cls-5" d="M1063.39,1376.97c-.62-.01-1.08-.57-.98-1.18l1.61-9.64,4.36.1,1.17,9.71c.07.61-.41,1.15-1.03,1.14l-5.13-.12Z"/><path class="cls-5" d="M1052.65,1360.48c.02-.62.57-1.08,1.18-.98l9.64,1.61-.1,4.36-9.7,1.17c-.62.07-1.15-.41-1.14-1.03l.12-5.13Z"/><path class="cls-5" d="M1069.47,1349.76c.62.01,1.08.57.98,1.18l-1.61,9.64-4.36-.1-1.17-9.71c-.07-.61.41-1.15,1.03-1.14l5.13.12Z"/><path class="cls-5" d="M1080.21,1366.24c-.02.62-.57,1.08-1.18.98l-9.64-1.61.1-4.36,9.7-1.17c.61-.07,1.15.41,1.14,1.03l-.12,5.13Z"/><path class="cls-5" d="M2190.5,1322.38c-.38-.49-.24-1.2.3-1.51l8.49-4.84,2.68,3.44-6.78,7.04c-.43.45-1.15.41-1.53-.08l-3.15-4.05Z"/><path class="cls-5" d="M2196.49,1303.63c.49-.38,1.2-.24,1.51.3l4.85,8.49-3.44,2.68-7.04-6.78c-.44-.43-.41-1.15.08-1.53l4.05-3.15Z"/><path class="cls-5" d="M2215.43,1309.89c.38.49.24,1.2-.3,1.51l-8.49,4.85-2.68-3.44,6.78-7.04c.43-.44,1.16-.41,1.53.08l3.15,4.05Z"/><path class="cls-5" d="M2209.44,1328.63c-.49.38-1.2.24-1.51-.3l-4.85-8.49,3.44-2.68,7.04,6.78c.45.43.41,1.16-.08,1.54l-4.05,3.15Z"/><path class="cls-5" d="M2913.81,1365.73c-.38-.49-.24-1.2.3-1.51l8.49-4.84,2.68,3.44-6.78,7.04c-.43.45-1.16.41-1.54-.08l-3.15-4.05Z"/><path class="cls-5" d="M2919.8,1346.99c.49-.38,1.2-.24,1.51.3l4.84,8.49-3.44,2.68-7.04-6.78c-.45-.43-.41-1.16.08-1.53l4.05-3.15Z"/><path class="cls-5" d="M2938.75,1353.25c.38.49.24,1.2-.3,1.51l-8.49,4.84-2.68-3.44,6.78-7.04c.43-.45,1.15-.41,1.53.08l3.15,4.05Z"/><path class="cls-5" d="M2932.75,1371.99c-.49.38-1.2.24-1.51-.3l-4.85-8.49,3.44-2.68,7.04,6.78c.44.43.4,1.15-.08,1.53l-4.05,3.15Z"/><path class="cls-5" d="M2612.73,474.43c-.38-.49-.24-1.2.3-1.51l8.49-4.85,2.68,3.44-6.78,7.04c-.43.44-1.15.41-1.53-.08l-3.15-4.05Z"/><path class="cls-5" d="M2618.72,455.69c.49-.38,1.2-.24,1.51.3l4.84,8.49-3.44,2.68-7.04-6.78c-.45-.43-.41-1.16.08-1.53l4.05-3.15Z"/><path class="cls-5" d="M2637.67,461.95c.38.49.24,1.2-.3,1.51l-8.49,4.85-2.68-3.44,6.78-7.04c.43-.45,1.15-.41,1.53.08l3.15,4.05Z"/><path class="cls-5" d="M2631.68,480.69c-.49.38-1.2.24-1.51-.3l-4.84-8.49,3.44-2.68,7.04,6.78c.45.43.41,1.16-.08,1.53l-4.05,3.15Z"/><path class="cls-5" d="M1201.26,256.5c-.38-.49-.24-1.2.3-1.51l8.49-4.84,2.68,3.44-6.78,7.04c-.43.45-1.15.41-1.53-.08l-3.15-4.05Z"/><path class="cls-5" d="M1207.25,237.76c.49-.38,1.2-.24,1.51.3l4.84,8.49-3.44,2.68-7.04-6.78c-.45-.43-.41-1.15.08-1.53l4.05-3.15Z"/><path class="cls-5" d="M1226.2,244.02c.38.49.24,1.2-.3,1.51l-8.49,4.85-2.68-3.44,6.78-7.04c.43-.44,1.15-.4,1.53.08l3.15,4.05Z"/><path class="cls-5" d="M1220.21,262.76c-.49.38-1.2.24-1.51-.3l-4.85-8.49,3.44-2.68,7.04,6.78c.45.43.41,1.15-.08,1.53l-4.05,3.15Z"/><path class="cls-5" d="M1637.51,888.97c-.38-.49-.24-1.2.3-1.51l8.49-4.85,2.68,3.44-6.78,7.04c-.43.44-1.15.41-1.53-.08l-3.15-4.05Z"/><path class="cls-5" d="M1643.51,870.23c.49-.38,1.2-.24,1.51.3l4.85,8.49-3.44,2.68-7.04-6.78c-.45-.43-.41-1.15.08-1.53l4.05-3.15Z"/><path class="cls-5" d="M1662.45,876.49c.38.49.24,1.2-.3,1.51l-8.49,4.85-2.68-3.44,6.78-7.04c.43-.45,1.15-.41,1.53.08l3.15,4.05Z"/><path class="cls-5" d="M1656.46,895.23c-.49.38-1.2.24-1.51-.3l-4.84-8.49,3.44-2.68,7.04,6.78c.45.43.41,1.16-.08,1.53l-4.05,3.15Z"/><g class="cls-9"><g class="cls-4"><path class="cls-7" d="M1699.93-1626.49c368.56,33.36,747.19-56.03,1061.91-250.71,314.73-194.67,563.78-493.54,698.52-838.21,49.83-127.48,87.63-266.14,183.91-363.43,176.07-177.92,503.19-134.13,665.52,56.41,162.33,190.53,172.26,479.14,72.68,708.78-48.26,111.28-118.82,211.71-168.02,322.58-49.2,110.87-75.84,240.01-31.4,352.87,54.8,139.16,207.64,220.33,356.74,232,149.1,11.67,296.3-33.61,437.73-82.26,109.62-37.7,220.72-78.21,336.6-81.44,115.87-3.24,239.92,37.84,305.64,133.32,111.38,161.8,3,393.72-157.92,506.36-160.92,112.64-361.32,151.76-536.42,240.78-311.5,158.36-519.39,459.59-733.08,736.09-213.69,276.49-470.36,554.26-812.21,626.72-75.03,15.9-158.22,19.89-223.51-20.36-113.04-69.7-118.6-230.59-98.91-361.93,21.32-142.22,56.83-284.21,47.98-427.74-8.85-143.53-72.46-294.17-199.86-360.87-139.07-72.81-307.9-27.63-457.82,18.92-265.04,82.29-530.08,164.57-795.13,246.86-80.91,25.12-163.47,50.49-248.17,49.37-84.71-1.12-173.48-33.17-222.34-102.38-87.56-124.03-14.12-293.68,60.23-426.05,167.76-298.68,335.52-597.35,503.28-896.03"/></g></g></g></g></svg>