<?xml version="1.0" encoding="UTF-8"?><svg xmlns="http://www.w3.org/2000/svg" width="633.36" height="387.71" xmlns:xlink="http://www.w3.org/1999/xlink" viewBox="0 0 633.36 387.71"><defs><style>.cls-1,.cls-2,.cls-3,.cls-4,.cls-5,.cls-6,.cls-7,.cls-8,.cls-9,.cls-10,.cls-11,.cls-12{fill-rule:evenodd;}.cls-1,.cls-5{fill:#9a4f8b;}.cls-1,.cls-13,.cls-12{mix-blend-mode:multiply;}.cls-1,.cls-12{opacity:.8;}.cls-2{fill:url(#_Áåçûìÿííûé_ãðàäèåíò_214);}.cls-3{fill:#745090;}.cls-14{fill:#fff;}.cls-4{fill:#b32742;}.cls-15{fill:none;}.cls-6{fill:url(#_Áåçûìÿííûé_ãðàäèåíò_139);}.cls-16{isolation:isolate;}.cls-7{fill:#5c326c;}.cls-8{fill:url(#_Áåçûìÿííûé_ãðàäèåíò_216);}.cls-9{fill:#8c6fa4;}.cls-10{fill:#e55947;}.cls-11{fill:#eee1e9;}.cls-13{opacity:.48;}.cls-17{clip-path:url(#clippath);}.cls-12{fill:#b02463;}</style><linearGradient id="_Áåçûìÿííûé_ãðàäèåíò_139" x1="847.05" y1="1255.65" x2="1017.65" y2="1255.65" gradientTransform="translate(-279.37 -1361.67) rotate(19)" gradientUnits="userSpaceOnUse"><stop offset="0" stop-color="#ffbf00"/><stop offset="1" stop-color="#ffa700"/></linearGradient><linearGradient id="_Áåçûìÿííûé_ãðàäèåíò_216" x1="350.39" y1="432.81" x2="350.39" y2="416.98" gradientTransform="translate(-112.37 -331.42) rotate(4.73)" gradientUnits="userSpaceOnUse"><stop offset="0" stop-color="#52146a"/><stop offset=".99" stop-color="#511fa4"/></linearGradient><linearGradient id="_Áåçûìÿííûé_ãðàäèåíò_214" x1="305.13" y1="531" x2="305.13" y2="416.98" gradientTransform="translate(-112.37 -331.42) rotate(4.73)" gradientUnits="userSpaceOnUse"><stop offset="0" stop-color="#8343d6"/><stop offset="1" stop-color="#8143e5"/></linearGradient><clipPath id="clippath"><polygon class="cls-15" points="383.64 262.59 310.75 242.98 333.07 242.31 405.97 261.92 383.64 262.59"/></clipPath></defs><g class="cls-16"><g id="Layer_1"><g class="cls-13"><path class="cls-5" d="M520.07,275.54l-22.76,2.8c-1.55,2.36-3.77,6.08-6.33,11.44h-.02s0,0,0,0h.02s-15.8,1.63-15.8,1.63l12.7,5.33c-.61,1.44-1.21,2.97-1.84,4.59h0s0,0,0,0c0,0,0,0,0,0l-.89.13-2.85.41,3.15,1.05c-4.46,11.97-9.1,28.22-12.47,49.55l13.73,5.26-1.78,5.18-138.62-30.32-238.36-67.5c-4.76,10.91-8.54,15.5-8.54,15.5l-32.92-2.96c4.53-7.61,8.26-14.59,11.49-21.02l-21.17-5.99c-5.24-42.6,23.72-68.89,23.72-68.89l155.96-34.84,285.45,123.3-1.85,5.37ZM114.19,247.97s0,.03-.01.04l19.91.54h0s14.05.31,14.05.31l-33.95-.9ZM154.89,249.12l50.4,1.37-.31-.12s0-.04,0-.05c0,.01,0,.03,0,.04l-36.57-.97v.08s-13.51-.37-13.51-.37h0ZM61.19,246.57l21.34.58s0,0,0-.01l-9.24-.24s0,0,0,0l-7.56-.21-4.54-.12s-.51-4-.51-10.05c-.15,6.18.51,10.05.51,10.05Z"/></g><path class="cls-4" d="M618.12,216.67l-114.92,14.15L125.89,120.58s-18.57,10.42-23,63.37l-5.15-.14s-6.45-49.87,23.67-69.65l174.77-39.28,321.94,141.79Z"/><polygon class="cls-10" points="620.22 210.58 296.51 70.76 294.23 78.22 618.12 216.67 620.22 210.58"/><path class="cls-11" d="M125.89,120.58l166.67-31.94s-24.57,36.14-31.77,99.48l-157.91-4.17s-1.13-51.82,23-63.37Z"/><path class="cls-9" d="M594.86,216.27s-4.22,4.99-9.73,16.54h-.02s-17.92,1.84-17.92,1.84l14.42,6.05c-.69,1.64-1.37,3.37-2.08,5.21l-4.25.6,3.59,1.19c-5.07,13.6-10.34,32.07-14.16,56.31l-303.89-115.89s.71-63.22,31.78-99.49l302.28,127.63Z"/><path class="cls-6" d="M296.51,70.76l-176.87,39.51s-32.84,29.8-26.9,78.12l167.28,9.05,3.14-9.11-165.42-4.51s-6.58-38.47,23.67-69.65l172.81-35.94,2.28-7.47Z"/><polygon class="cls-10" points="263.16 188.32 580.28 309.87 578.25 315.74 260.02 197.43 263.16 188.32"/><polygon class="cls-4" points="578.25 315.74 421.05 281.36 92.74 188.39 260.02 197.43 578.25 315.74"/><polygon class="cls-3" points="279.98 107.54 138.16 130.77 277.56 112.46 567.19 234.66 585.12 232.82 279.98 107.54"/><polygon class="cls-3" points="274 120.8 161.23 134.23 273.47 122.15 575.27 246.53 579.53 245.91 274 120.8"/><path class="cls-1" d="M102.89,183.95l8.58.23s-5.54-42.36,16.89-61.13l160.24-29.38,3.98-5.04-166.68,31.94s-23.47,4.57-23,63.37Z"/><polygon class="cls-12" points="168.36 207.9 274.74 215.48 319.74 230.83 211.5 219.03 168.36 207.9"/><path class="cls-7" d="M125.89,120.58s-21.85,9.36-23,63.37c0,0-5.63-50.14,23-63.37Z"/><path class="cls-8" d="M227.49,127.1s-13.85-13-25.94-14.12l-8.61,1.14-17.18,4.27s21.77,2.62,31.19,10.92l20.54-2.21Z"/><path class="cls-2" d="M201.56,112.98s-27.26-.43-37.71,49.1c-9.26,43.91-22.79,60.31-22.79,60.31l-37.34-3.36c35.08-59.02,29.21-85.06,72.05-100.63,0,0,16.19-4.95,25.79-5.41Z"/><polygon class="cls-1" points="227.49 127.1 219.3 187.12 204 186.71 201.13 194.25 179.44 193.07 180.4 186.06 196.36 186.42 206.96 129.31 227.49 127.1"/><g class="cls-16"><g class="cls-17"><path class="cls-14" d="M377.62,259.21l-19.63-5.28,5.8-.17c1.43-.04,3.45.16,6.07.61,2.62.45,5.49,1.1,8.63,1.94s5.03,1.47,5.9,1.95c.87.47.59.73-.84.77l-5.93.18M346.71,250.89l-18.27-4.92,5.38-.16c1.4-.04,3.28.14,5.64.55,2.36.41,5,1.01,7.92,1.79s4.79,1.4,5.61,1.85c.81.44.51.69-.89.73l-5.38.16M322.86,242.61l-12.11.36,72.89,19.61,12.65-.38c1.99-.06,2.88-.34,2.66-.83-.22-.49-1.42-1.15-3.61-1.97-2.18-.82-5.22-1.75-9.12-2.8-4.31-1.16-8.68-2.18-13.09-3.04-4.4-.87-7.81-1.38-10.23-1.53.33-.37-.48-.94-2.43-1.74-1.94-.79-5.04-1.76-9.28-2.91-3.62-.97-7.23-1.83-10.83-2.58-3.59-.74-6.91-1.31-9.96-1.7-3.04-.39-5.56-.55-7.55-.49"/></g></g></g></g></svg>