<?xml version="1.0" encoding="UTF-8"?><svg xmlns="http://www.w3.org/2000/svg" width="375.13" height="1133.81" xmlns:xlink="http://www.w3.org/1999/xlink" viewBox="0 0 375.13 1133.81"><defs><style>.cls-1{fill:url(#_Áåçûìÿííûé_ãðàäèåíò_214);}.cls-1,.cls-2,.cls-3,.cls-4,.cls-5,.cls-6,.cls-7,.cls-8,.cls-9{fill-rule:evenodd;}.cls-2{fill:url(#_Áåçûìÿííûé_ãðàäèåíò_211-2);}.cls-3{fill:url(#_Áåçûìÿííûé_ãðàäèåíò_127-4);}.cls-10{fill:none;}.cls-11{clip-path:url(#clippath-1);}.cls-4{fill:url(#_Áåçûìÿííûé_ãðàäèåíò_127-2);}.cls-12{isolation:isolate;}.cls-13{mix-blend-mode:overlay;opacity:.25;}.cls-5{fill:url(#_Áåçûìÿííûé_ãðàäèåíò_214-2);}.cls-6{fill:url(#_Áåçûìÿííûé_ãðàäèåíò_211-3);}.cls-14{fill:#eee;}.cls-7{fill:url(#_Áåçûìÿííûé_ãðàäèåíò_127-3);}.cls-8{fill:url(#_Áåçûìÿííûé_ãðàäèåíò_127);}.cls-15{clip-path:url(#clippath);}.cls-9{fill:url(#_Áåçûìÿííûé_ãðàäèåíò_211);}</style><clipPath id="clippath"><rect class="cls-10" x="580.7" y="1598.07" width="3840" height="2160"/></clipPath><linearGradient id="_Áåçûìÿííûé_ãðàäèåíò_127" x1="16226.41" y1="-6108.37" x2="16226.41" y2="-6174.5" gradientTransform="translate(9514.99 -4512.57) rotate(114) scale(.54 -1)" gradientUnits="userSpaceOnUse"><stop offset="0" stop-color="#dd1d33"/><stop offset="1" stop-color="#ff4827"/></linearGradient><linearGradient id="_Áåçûìÿííûé_ãðàäèåíò_127-2" x1="1294.42" y1="-6718.48" x2="1294.42" y2="-6757.15" gradientTransform="translate(4499.7 -5189.41) rotate(43.73) scale(.54 -1)" xlink:href="#_Áåçûìÿííûé_ãðàäèåíò_127"/><linearGradient id="_Áåçûìÿííûé_ãðàäèåíò_127-3" x1="11960.4" y1="-7986.28" x2="11960.4" y2="-8031.92" gradientTransform="translate(7979.22 -5615.92) rotate(88.65) scale(.54 -1)" xlink:href="#_Áåçûìÿííûé_ãðàäèåíò_127"/><linearGradient id="_Áåçûìÿííûé_ãðàäèåíò_214" x1="13649.65" y1="-6972.67" x2="13649.65" y2="-7013.42" gradientTransform="translate(9023.82 -4873.22) rotate(106.08) scale(.54 -1)" gradientUnits="userSpaceOnUse"><stop offset="0" stop-color="#8343d6"/><stop offset="1" stop-color="#8143e5"/></linearGradient><linearGradient id="_Áåçûìÿííûé_ãðàäèåíò_214-2" x1="7225.19" y1="-8008.56" x2="7225.19" y2="-8056.07" gradientTransform="translate(6226.31 -5737.8) rotate(67.74) scale(.54 -1)" xlink:href="#_Áåçûìÿííûé_ãðàäèåíò_214"/><linearGradient id="_Áåçûìÿííûé_ãðàäèåíò_211" x1="19161.54" y1="-4547.86" x2="19161.54" y2="-4598.31" gradientTransform="translate(10824.66 -3301) rotate(137.35) scale(.54 -1)" gradientUnits="userSpaceOnUse"><stop offset="0" stop-color="#ffa700"/><stop offset="1" stop-color="#ffbf00"/></linearGradient><linearGradient id="_Áåçûìÿííûé_ãðàäèåíò_211-2" x1="20151" y1="-4042.29" x2="20151" y2="-4092.73" xlink:href="#_Áåçûìÿííûé_ãðàäèåíò_211"/><linearGradient id="_Áåçûìÿííûé_ãðàäèåíò_127-4" x1="927.63" y1="-6870.51" x2="927.63" y2="-6909.18" gradientTransform="translate(4499.7 -5189.41) rotate(43.73) scale(.54 -1)" xlink:href="#_Áåçûìÿííûé_ãðàäèåíò_127"/><linearGradient id="_Áåçûìÿííûé_ãðàäèåíò_211-3" x1="18498.47" y1="-4685.76" x2="18498.47" y2="-4736.2" xlink:href="#_Áåçûìÿííûé_ãðàäèåíò_211"/><clipPath id="clippath-1"><rect class="cls-10" x="580.7" y="-2876.54" width="3840" height="2160"/></clipPath></defs><g class="cls-12"><g id="Layer_1"><g class="cls-15"><g class="cls-13"><path class="cls-14" d="M543.53,2299.84c368.56,33.36,747.19-56.03,1061.91-250.71,314.73-194.67,563.78-493.54,698.52-838.21,49.83-127.48,87.63-266.14,183.91-363.43,176.07-177.92,503.19-134.13,665.52,56.41,162.33,190.53,172.26,479.14,72.68,708.78-48.26,111.28-118.82,211.71-168.02,322.58-49.2,110.87-75.84,240.01-31.4,352.87,54.8,139.16,207.64,220.33,356.74,232,149.1,11.67,296.3-33.61,437.73-82.26,109.62-37.7,220.72-78.21,336.6-81.44,115.87-3.24,239.92,37.84,305.64,133.32,111.38,161.8,3,393.72-157.92,506.36-160.92,112.64-361.32,151.76-536.42,240.78-311.5,158.36-519.39,459.59-733.08,736.09-213.69,276.49-470.36,554.26-812.21,626.72-75.03,15.9-158.22,19.89-223.51-20.36-113.04-69.7-118.6-230.59-98.91-361.93,21.32-142.22,56.83-284.21,47.98-427.74-8.85-143.53-72.46-294.17-199.86-360.87-139.07-72.81-307.9-27.63-457.82,18.92-265.04,82.29-530.08,164.57-795.13,246.86-80.91,25.12-163.47,50.49-248.17,49.37-84.71-1.12-173.48-33.17-222.34-102.38-87.56-124.03-14.12-293.68,60.23-426.05,167.76-298.68,335.52-597.35,503.28-896.03"/></g></g><path class="cls-8" d="M300.57,1001.76s24.23,17.49,60.41,26.9l-9.66,21.69s-30.39-4.09-59.09-27.59l8.33-21.01Z"/><path class="cls-4" d="M330.19,173.24s14.41-9.89,26.73-27.94l10.03,9.6s-7.78,16.82-30.44,23.91l-6.33-5.57Z"/><path class="cls-7" d="M109.6,1050.93s16.09,10.49,38.66-.91l.33,13.88s-24.73,5.54-45.78-5.43l6.8-7.54Z"/><path class="cls-1" d="M237.69,292.73s18.19,7.65,32.23,9.29l2.88,9.65s-21.63-.02-39.18-11.2l4.07-7.74Z"/><path class="cls-5" d="M251.37,932.6s19.08-3.52,39.74-16.27l7.01,5.06s-16.73,21.64-40.63,24.55l-6.12-13.34Z"/><path class="cls-9" d="M71.36,351.74s14.37,18.68,34.7,34.52l-6.25,7.86s-27.72-8.65-39.46-31.36l11.01-11.02Z"/><path class="cls-2" d="M19.19,1087.12s14.37,18.68,34.7,34.52l-6.25,7.86s-27.72-8.65-39.46-31.36l11.01-11.02Z"/><path class="cls-3" d="M81.35,145.6s14.41-9.89,26.73-27.94l10.03,9.6s-7.78,16.82-30.44,23.91l-6.33-5.57Z"/><path class="cls-6" d="M242.44,6.71s14.37,18.68,34.7,34.52l-6.25,7.86s-27.72-8.65-39.46-31.36l11.01-11.02Z"/><g class="cls-11"><g class="cls-13"><path class="cls-14" d="M543.53-2174.78c368.56,33.36,747.19-56.03,1061.91-250.71,314.73-194.67,563.78-493.54,698.52-838.21,49.83-127.48,87.63-266.14,183.91-363.43,176.07-177.92,503.19-134.13,665.52,56.41,162.33,190.53,172.26,479.14,72.68,708.78-48.26,111.28-118.82,211.71-168.02,322.58-49.2,110.87-75.84,240.01-31.4,352.87,54.8,139.16,207.64,220.33,356.74,232,149.1,11.67,296.3-33.61,437.73-82.26,109.62-37.7,220.72-78.21,336.6-81.44,115.87-3.24,239.92,37.84,305.64,133.32,111.38,161.8,3,393.72-157.92,506.36-160.92,112.64-361.32,151.76-536.42,240.78-311.5,158.36-519.39,459.59-733.08,736.09-213.69,276.49-470.36,554.26-812.21,626.72-75.03,15.9-158.22,19.89-223.51-20.36-113.04-69.7-118.6-230.59-98.91-361.93,21.32-142.22,56.83-284.21,47.98-427.74-8.85-143.53-72.46-294.17-199.86-360.87-139.07-72.81-307.9-27.63-457.82,18.92-265.04,82.29-530.08,164.57-795.13,246.86-80.91,25.12-163.47,50.49-248.17,49.37-84.71-1.12-173.48-33.17-222.34-102.38-87.56-124.03-14.12-293.68,60.23-426.05,167.76-298.68,335.52-597.35,503.28-896.03"/></g></g></g></g></svg>