<?xml version="1.0" encoding="UTF-8"?><svg xmlns="http://www.w3.org/2000/svg" width="519.92" height="419.37" xmlns:xlink="http://www.w3.org/1999/xlink" viewBox="0 0 519.92 419.37"><defs><style>.cls-1{fill:#a190da;}.cls-1,.cls-2,.cls-3,.cls-4,.cls-5,.cls-6,.cls-7{fill-rule:evenodd;}.cls-2{fill:url(#_Áåçûìÿííûé_ãðàäèåíò_201);}.cls-3{opacity:.8;}.cls-3,.cls-5{fill:#9a4f8b;}.cls-3,.cls-8{mix-blend-mode:multiply;}.cls-4{fill:url(#_Áåçûìÿííûé_ãðàäèåíò_214);}.cls-9{fill:#fff;}.cls-10{fill:none;}.cls-11{clip-path:url(#clippath-1);}.cls-12{isolation:isolate;}.cls-13{mix-blend-mode:overlay;opacity:.25;}.cls-6{fill:#a190ff;}.cls-14{fill:#eee;}.cls-8{opacity:.48;}.cls-15{clip-path:url(#clippath);}.cls-7{fill:url(#_Áåçûìÿííûé_ãðàäèåíò_215);}</style><clipPath id="clippath"><rect class="cls-10" x="-4.87" y="1226.2" width="3840" height="2160"/></clipPath><linearGradient id="_Áåçûìÿííûé_ãðàäèåíò_201" x1="1501.41" y1="485.09" x2="1501.41" y2="39.51" gradientTransform="translate(-713.12 1356.94) rotate(-38.18) scale(1 -1)" gradientUnits="userSpaceOnUse"><stop offset="0" stop-color="#511fa4"/><stop offset="1" stop-color="#52146a"/></linearGradient><linearGradient id="_Áåçûìÿííûé_ãðàäèåíò_214" x1="1474.31" y1="101.1" x2="1474.31" y2="-328.54" gradientTransform="translate(-911.71 906.71) rotate(-34.12) scale(1 -1)" gradientUnits="userSpaceOnUse"><stop offset="0" stop-color="#8343d6"/><stop offset="1" stop-color="#8143e5"/></linearGradient><linearGradient id="_Áåçûìÿííûé_ãðàäèåíò_215" x1="11861.95" y1="102.58" x2="12038.96" y2="102.58" gradientTransform="translate(12266.1) rotate(-180) scale(1 -1)" gradientUnits="userSpaceOnUse"><stop offset="0" stop-color="#ffbf00"/><stop offset="1" stop-color="#dd6d00"/></linearGradient><clipPath id="clippath-1"><polygon class="cls-10" points="365.55 136.11 303.74 56.96 275 61.73 336.81 140.87 365.55 136.11"/></clipPath></defs><g class="cls-12"><g id="Layer_1"><g class="cls-15"><g class="cls-13"><path class="cls-14" d="M-42.04,1927.96c368.56,33.36,747.19-56.03,1061.91-250.71,314.73-194.67,563.78-493.54,698.52-838.21,49.83-127.48,87.63-266.14,183.91-363.43,176.07-177.92,503.19-134.13,665.52,56.41,162.33,190.53,172.26,479.14,72.68,708.78-48.26,111.28-118.82,211.71-168.02,322.58-49.2,110.87-75.84,240.01-31.4,352.87,54.8,139.16,207.64,220.33,356.74,232,149.1,11.67,296.3-33.61,437.73-82.26,109.62-37.7,220.72-78.21,336.6-81.44,115.87-3.24,239.92,37.84,305.64,133.32,111.38,161.8,3,393.72-157.92,506.36-160.92,112.64-361.32,151.76-536.42,240.78-311.5,158.36-519.39,459.59-733.08,736.09-213.69,276.49-470.36,554.26-812.21,626.72-75.03,15.9-158.22,19.89-223.51-20.36-113.04-69.7-118.6-230.59-98.91-361.93,21.32-142.22,56.83-284.21,47.98-427.74-8.85-143.53-72.46-294.17-199.86-360.87-139.07-72.81-307.9-27.63-457.82,18.92-265.04,82.29-530.08,164.57-795.13,246.86-80.91,25.12-163.47,50.49-248.17,49.37-84.71-1.12-173.48-33.17-222.34-102.38-87.56-124.03-14.12-293.68,60.23-426.05C-331.61,2544.96-163.85,2246.28,3.91,1947.6"/></g></g><g class="cls-8"><path class="cls-5" d="M468.77,324.38l-285.45-123.3L27.35,235.92S-1.6,262.2,3.63,304.81l21.17,5.99c-3.23,6.43-6.96,13.41-11.49,21.02l32.92,2.96s3.78-4.58,8.54-15.5l238.36,67.5,138.62,30.32,1.78-5.18-13.73-5.26c3.37-21.32,8.01-37.57,12.47-49.55l-3.15-1.05,2.85-.41.89-.13s0,0,0,0h0s0,0,0,0c.63-1.62,1.23-3.14,1.84-4.59l-12.7-5.33,15.8-1.62h-.02s0,0,0,0h.02c2.56-5.36,4.78-9.08,6.33-11.44l22.76-2.8,1.85-5.37ZM94.99,303.07l-14.05-.31h0s-19.91-.54-19.91-.54c0-.01,0-.03.01-.04l33.95.9ZM101.74,303.33l13.5.37v-.08s36.59.97,36.59.97c0-.01,0-.03,0-.04,0,0,0,.05,0,.05l.31.12-50.4-1.37h0ZM7.53,290.72c0,6.05.51,10.05.51,10.05l4.54.12,7.56.21s0,0,0,0l9.24.24s0,0,0,.01l-21.34-.58s-.66-3.87-.51-10.05Z"/></g><path class="cls-2" d="M146.34,73.3s3.18-10.47,13.53-19.67c16.84-14.98,37.35-20.35,37.35-20.35l266.26,338.58s-19.35,36.98-50.88,40.01L146.34,73.3Z"/><path class="cls-4" d="M463.47,371.87l54.44-101.88L310.11,1.7s-15.22,8.79-19.21,10.64c-21.77,10.11-93.68,20.96-93.68,20.96l266.26,338.58Z"/><path class="cls-1" d="M220.53,116.32l-7.05,6.2-46.22-57.53s-.13-3.88,6.77-7.33l46.5,58.66Z"/><polygon class="cls-7" points="404.15 137.46 315.3 25.31 227.14 50.76 328.25 179.84 404.15 137.46"/><polygon class="cls-6" points="501.64 283.18 469.72 338.11 463.47 327.27 498.31 280.08 501.64 283.18"/><polygon class="cls-3" points="407.49 141.41 452.64 200.54 389.95 249.78 333.88 186.11 407.49 141.41"/><path class="cls-3" d="M283.85,15.09l94.73,75L310.11,1.7s-11.95,9.23-26.27,13.39Z"/><g class="cls-12"><g class="cls-11"><path class="cls-9" d="M333.9,110.03l-30.18-32.34,21.45,33.79,8.73-1.45M285.85,59.93l7.05-1.17,72.66,77.35-6.35,1.05-13.75-14.73-12.01,1.99,9.77,15.39-6.4,1.06-50.96-80.95"/></g></g></g></g></svg>