<?xml version="1.0" encoding="UTF-8"?><svg id="Layer_1" xmlns="http://www.w3.org/2000/svg" width="613.89" height="2403.29" xmlns:xlink="http://www.w3.org/1999/xlink" viewBox="0 0 613.89 2403.29"><defs><style>.cls-1{fill:url(#_Áåçûìÿííûé_ãðàäèåíò_211-4);}.cls-1,.cls-2,.cls-3,.cls-4,.cls-5,.cls-6,.cls-7,.cls-8,.cls-9,.cls-10,.cls-11,.cls-12,.cls-13,.cls-14,.cls-15,.cls-16,.cls-17,.cls-18{fill-rule:evenodd;}.cls-2{fill:url(#_Áåçûìÿííûé_ãðàäèåíò_214);}.cls-3{fill:url(#_Áåçûìÿííûé_ãðàäèåíò_211-2);}.cls-4{fill:url(#_Áåçûìÿííûé_ãðàäèåíò_211-6);}.cls-5{fill:url(#_Áåçûìÿííûé_ãðàäèåíò_127-4);}.cls-6{fill:url(#_Áåçûìÿííûé_ãðàäèåíò_127-8);}.cls-7{fill:url(#_Áåçûìÿííûé_ãðàäèåíò_127-2);}.cls-8{fill:url(#_Áåçûìÿííûé_ãðàäèåíò_214-4);}.cls-9{fill:url(#_Áåçûìÿííûé_ãðàäèåíò_214-2);}.cls-10{fill:url(#_Áåçûìÿííûé_ãðàäèåíò_214-3);}.cls-11{fill:url(#_Áåçûìÿííûé_ãðàäèåíò_211-3);}.cls-12{fill:url(#_Áåçûìÿííûé_ãðàäèåíò_127-6);}.cls-13{fill:url(#_Áåçûìÿííûé_ãðàäèåíò_211-5);}.cls-14{fill:url(#_Áåçûìÿííûé_ãðàäèåíò_127-7);}.cls-15{fill:url(#_Áåçûìÿííûé_ãðàäèåíò_127-3);}.cls-16{fill:url(#_Áåçûìÿííûé_ãðàäèåíò_127);}.cls-17{fill:url(#_Áåçûìÿííûé_ãðàäèåíò_127-5);}.cls-18{fill:url(#_Áåçûìÿííûé_ãðàäèåíò_211);}</style><linearGradient id="_Áåçûìÿííûé_ãðàäèåíò_127" x1="4948.75" y1="3208.78" x2="4948.75" y2="3149.2" gradientTransform="translate(1909.63 -1721.25) rotate(66) scale(.54 1)" gradientUnits="userSpaceOnUse"><stop offset="0" stop-color="#dd1d33"/><stop offset="1" stop-color="#ff4827"/></linearGradient><linearGradient id="_Áåçûìÿííûé_ãðàäèåíò_127-2" x1="9628.26" y1="-41.22" x2="9628.26" y2="-76.06" gradientTransform="translate(3890.69 -2038.36) rotate(136.27) scale(.54 1)" xlink:href="#_Áåçûìÿííûé_ãðàäèåíò_127"/><linearGradient id="_Áåçûìÿííûé_ãðàäèåíò_127-3" x1="8070.63" y1="2031.66" x2="8070.63" y2="1990.54" gradientTransform="translate(2428.51 -2255.61) rotate(91.35) scale(.54 1)" xlink:href="#_Áåçûìÿííûé_ãðàäèåíò_127"/><linearGradient id="_Áåçûìÿííûé_ãðàäèåíò_214" x1="5276.92" y1="2800.11" x2="5276.92" y2="2763.39" gradientTransform="translate(2111.53 -1856.26) rotate(73.92) scale(.54 1)" gradientUnits="userSpaceOnUse"><stop offset="0" stop-color="#8343d6"/><stop offset="1" stop-color="#8143e5"/></linearGradient><linearGradient id="_Áåçûìÿííûé_ãðàäèåíò_214-2" x1="9352.65" y1="1235.81" x2="9352.65" y2="1193" gradientTransform="translate(3223.79 -2275.55) rotate(112.26) scale(.54 1)" xlink:href="#_Áåçûìÿííûé_ãðàäèåíò_214"/><linearGradient id="_Áåçûìÿííûé_ãðàäèåíò_211" x1="2370.49" y1="2756.54" x2="2370.49" y2="2711.09" gradientTransform="translate(1238.03 -1373.95) rotate(42.65) scale(.54 1)" gradientUnits="userSpaceOnUse"><stop offset="0" stop-color="#ffa700"/><stop offset="1" stop-color="#ffbf00"/></linearGradient><linearGradient id="_Áåçûìÿííûé_ãðàäèåíò_211-2" x1="3323.97" y1="3258.19" x2="3323.97" y2="3212.74" xlink:href="#_Áåçûìÿííûé_ãðàäèåíò_211"/><linearGradient id="_Áåçûìÿííûé_ãðàäèåíò_127-4" x1="8979.23" y1="-24.61" x2="8979.23" y2="-59.44" gradientTransform="translate(3890.69 -2038.36) rotate(136.27) scale(.54 1)" xlink:href="#_Áåçûìÿííûé_ãðàäèåíò_127"/><linearGradient id="_Áåçûìÿííûé_ãðàäèåíò_211-3" x1="1803.93" y1="2547.05" x2="1803.93" y2="2501.6" xlink:href="#_Áåçûìÿííûé_ãðàäèåíò_211"/><linearGradient id="_Áåçûìÿííûé_ãðàäèåíò_127-5" x1="3283.19" y1="2739.9" x2="3283.19" y2="2680.31" xlink:href="#_Áåçûìÿííûé_ãðàäèåíò_127"/><linearGradient id="_Áåçûìÿííûé_ãðàäèåíò_127-6" x1="8252.28" y1="650.73" x2="8252.28" y2="615.89" gradientTransform="translate(3890.69 -2038.36) rotate(136.27) scale(.54 1)" xlink:href="#_Áåçûìÿííûé_ãðàäèåíò_127"/><linearGradient id="_Áåçûìÿííûé_ãðàäèåíò_127-7" x1="6195.44" y1="1994.75" x2="6195.44" y2="1953.62" gradientTransform="translate(2428.51 -2255.61) rotate(91.35) scale(.54 1)" xlink:href="#_Áåçûìÿííûé_ãðàäèåíò_127"/><linearGradient id="_Áåçûìÿííûé_ãðàäèåíò_214-3" x1="3508.08" y1="2460.23" x2="3508.08" y2="2423.52" xlink:href="#_Áåçûìÿííûé_ãðàäèåíò_214"/><linearGradient id="_Áåçûìÿííûé_ãðàäèåíò_214-4" x1="7576.48" y1="1564.2" x2="7576.48" y2="1521.39" gradientTransform="translate(3223.79 -2275.55) rotate(112.26) scale(.54 1)" xlink:href="#_Áåçûìÿííûé_ãðàäèåíò_214"/><linearGradient id="_Áåçûìÿííûé_ãðàäèåíò_211-4" x1="1183.98" y1="1968.05" x2="1183.98" y2="1922.6" xlink:href="#_Áåçûìÿííûé_ãðàäèåíò_211"/><linearGradient id="_Áåçûìÿííûé_ãðàäèåíò_211-5" x1="2137.47" y1="2469.7" x2="2137.47" y2="2424.25" xlink:href="#_Áåçûìÿííûé_ãðàäèåíò_211"/><linearGradient id="_Áåçûìÿííûé_ãðàäèåíò_127-8" x1="7603.25" y1="667.34" x2="7603.25" y2="632.5" gradientTransform="translate(3890.69 -2038.36) rotate(136.27) scale(.54 1)" xlink:href="#_Áåçûìÿííûé_ãðàäèåíò_127"/><linearGradient id="_Áåçûìÿííûé_ãðàäèåíò_211-6" x1="617.42" y1="1758.56" x2="617.42" y2="1713.11" xlink:href="#_Áåçûìÿííûé_ãðàäèåíò_211"/></defs><path class="cls-16" d="M119.54,2000.24s-21.83,15.76-54.43,24.24l8.7,19.54s27.38-3.69,53.23-24.85l-7.51-18.93Z"/><path class="cls-7" d="M174.98,1621.43s-12.98-8.91-24.08-25.17l-9.04,8.65s7.01,15.15,27.42,21.54l5.7-5.02Z"/><path class="cls-15" d="M329.15,2066.43s-14.5,9.45-34.83-.82l-.29,12.51s22.28,4.99,41.25-4.89l-6.13-6.79Z"/><path class="cls-2" d="M245.86,1654.34s-16.39,6.89-29.04,8.37l-2.6,8.69s19.48-.02,35.3-10.09l-3.67-6.97Z"/><path class="cls-9" d="M201.42,1959.83s-17.19-3.17-35.8-14.66l-6.31,4.55s15.07,19.49,36.61,22.12l5.51-12.02Z"/><path class="cls-18" d="M341.8,1486.33s-12.95,16.83-31.26,31.1l5.63,7.08s24.97-7.79,35.55-28.25l-9.92-9.93Z"/><path class="cls-3" d="M382.28,2205.6s-12.95,16.83-31.26,31.1l5.63,7.08s24.97-7.79,35.55-28.25l-9.92-9.93Z"/><path class="cls-5" d="M417.85,1366.1s-12.98-8.91-24.08-25.17l-9.04,8.65s7.01,15.15,27.42,21.54l5.7-5.02Z"/><path class="cls-11" d="M257.73,1124.09s-12.95,16.83-31.26,31.1l5.63,7.08s24.97-7.79,35.55-28.25l-9.92-9.93Z"/><path class="cls-17" d="M180.44,984.38s-21.83,15.76-54.43,24.24l8.7,19.54s27.38-3.69,53.23-24.85l-7.51-18.93Z"/><path class="cls-12" d="M235.89,605.57s-12.98-8.91-24.08-25.17l-9.04,8.65s7.01,15.15,27.42,21.54l5.7-5.02Z"/><path class="cls-14" d="M390.05,1050.57s-14.5,9.45-34.83-.82l-.29,12.51s22.28,4.99,41.25-4.89l-6.13-6.79Z"/><path class="cls-10" d="M306.77,638.49s-16.39,6.89-29.04,8.37l-2.6,8.69s19.48-.02,35.3-10.09l-3.67-6.97Z"/><path class="cls-8" d="M262.33,943.97s-17.19-3.17-35.8-14.66l-6.31,4.55s15.07,19.49,36.61,22.12l5.51-12.02Z"/><path class="cls-1" d="M402.71,470.47s-12.95,16.83-31.26,31.1l5.63,7.08s24.97-7.79,35.55-28.25l-9.92-9.93Z"/><path class="cls-13" d="M443.19,1189.75s-12.95,16.83-31.26,31.1l5.63,7.08s24.97-7.79,35.55-28.25l-9.92-9.93Z"/><path class="cls-6" d="M478.76,350.24s-12.98-8.91-24.08-25.17l-9.04,8.65s7.01,15.15,27.42,21.54l5.7-5.02Z"/><path class="cls-4" d="M318.64,108.24s-12.95,16.83-31.26,31.1l5.63,7.08s24.97-7.79,35.55-28.25l-9.92-9.93Z"/></svg>