<?xml version="1.0" encoding="UTF-8"?><svg xmlns="http://www.w3.org/2000/svg" width="470.65" height="258.82" xmlns:xlink="http://www.w3.org/1999/xlink" viewBox="0 0 470.65 258.82"><defs><style>.cls-1,.cls-2,.cls-3,.cls-4,.cls-5,.cls-6,.cls-7,.cls-8,.cls-9,.cls-10,.cls-11,.cls-12{fill-rule:evenodd;}.cls-1,.cls-5{fill:#9a4f8b;}.cls-1,.cls-13,.cls-12{mix-blend-mode:multiply;}.cls-1,.cls-12{opacity:.8;}.cls-2{fill:url(#_Áåçûìÿííûé_ãðàäèåíò_214);}.cls-3{fill:#745090;}.cls-14{fill:#fff;}.cls-4{fill:#b32742;}.cls-15{fill:none;}.cls-6{fill:url(#_Áåçûìÿííûé_ãðàäèåíò_139);}.cls-16{clip-path:url(#clippath-1);}.cls-17{isolation:isolate;}.cls-18{mix-blend-mode:overlay;opacity:.25;}.cls-7{fill:#5c326c;}.cls-19{fill:#eee;}.cls-8{fill:#e9d9e3;}.cls-9{fill:url(#_Áåçûìÿííûé_ãðàäèåíò_216);}.cls-10{fill:#8c6fa4;}.cls-11{fill:#e55947;}.cls-13{opacity:.48;}.cls-20{clip-path:url(#clippath);}.cls-12{fill:#b02463;}</style><linearGradient id="_Áåçûìÿííûé_ãðàäèåíò_139" x1="12506.06" y1="-1793.54" x2="12657.23" y2="-1793.54" gradientTransform="translate(12859.17 -2347.59) rotate(161) scale(1 -1)" gradientUnits="userSpaceOnUse"><stop offset="0" stop-color="#ffbf00"/><stop offset="1" stop-color="#ffa700"/></linearGradient><linearGradient id="_Áåçûìÿííûé_ãðàäèåíò_216" x1="12695.47" y1="-405.84" x2="12695.47" y2="-419.87" gradientTransform="translate(13058.13 -589.97) rotate(175.27) scale(1 -1)" gradientUnits="userSpaceOnUse"><stop offset="0" stop-color="#52146a"/><stop offset=".99" stop-color="#511fa4"/></linearGradient><linearGradient id="_Áåçûìÿííûé_ãðàäèåíò_214" x1="12655.37" y1="-318.84" x2="12655.37" y2="-419.87" gradientTransform="translate(13058.13 -589.97) rotate(175.27) scale(1 -1)" gradientUnits="userSpaceOnUse"><stop offset="0" stop-color="#8343d6"/><stop offset="1" stop-color="#8143e5"/></linearGradient><clipPath id="clippath"><polygon class="cls-15" points="213.26 167.38 286.16 147.76 263.83 147.09 190.94 166.71 213.26 167.38"/></clipPath><clipPath id="clippath-1"><rect class="cls-15" x="-61.46" y="-2347.15" width="3840" height="2160"/></clipPath></defs><g class="cls-17"><g id="Layer_1"><g class="cls-13"><path class="cls-5" d="M34.84,176.25l20.96,2.58c1.43,2.17,3.48,5.6,5.83,10.53h.02s0,0,0,0h-.01s14.55,1.5,14.55,1.5l-11.7,4.91c.56,1.33,1.12,2.74,1.69,4.22h0s0,0,0,0c0,0,0,0,0,0l.82.12,2.62.38-2.9.96c4.11,11.03,8.38,25.99,11.48,45.63l-12.64,4.85,1.64,4.77,127.67-27.93,219.52-62.16c4.39,10.05,7.87,14.27,7.87,14.27l30.32-2.73c-4.17-7.01-7.61-13.44-10.58-19.36l19.49-5.52c4.82-39.24-21.85-63.44-21.85-63.44l-143.63-32.09L33.14,171.31l1.7,4.94ZM408.64,150.86s0,.02.01.04l-18.34.5h0s-12.94.29-12.94.29l31.27-.83ZM371.15,151.92l-46.41,1.26.28-.11s0-.04,0-.05c0,.01,0,.03,0,.04l33.68-.89v.08s12.44-.34,12.44-.34h0ZM457.44,149.57l-19.66.54s0,0,0-.01l8.51-.22s0,0,0,0l6.97-.19,4.18-.11s.47-3.69.47-9.26c.14,5.69-.47,9.26-.47,9.26Z"/></g><path class="cls-4" d="M2.85,130.78l101.82,12.53L439,45.64s16.45,9.23,20.38,56.15l4.56-.12s5.72-44.18-20.98-61.72L288.12,5.14,2.85,130.78Z"/><polygon class="cls-11" points="1 125.38 287.82 1.49 289.85 8.11 2.85 130.78 1 125.38"/><path class="cls-8" d="M439,45.64l-147.68-28.3s21.77,32.02,28.15,88.15l139.91-3.7s1-45.91-20.38-56.15Z"/><path class="cls-10" d="M23.47,130.43s3.74,4.42,8.63,14.66h.02s15.88,1.63,15.88,1.63l-12.77,5.36c.61,1.45,1.22,2.99,1.85,4.61l3.77.54-3.18,1.06c4.49,12.05,9.16,28.41,12.55,49.9l269.27-102.69s-.63-56.02-28.16-88.15L23.47,130.43Z"/><path class="cls-6" d="M287.82,1.49l156.72,35.01s29.1,26.41,23.84,69.22l-148.22,8.02-2.78-8.07,146.58-3.99s5.83-34.09-20.98-61.72l-153.12-31.84-2.02-6.62Z"/><polygon class="cls-11" points="317.37 105.66 36.39 213.36 38.18 218.56 320.15 113.73 317.37 105.66"/><polygon class="cls-4" points="38.18 218.56 177.47 188.09 468.38 105.72 320.15 113.73 38.18 218.56"/><polygon class="cls-3" points="302.47 34.08 428.13 54.66 304.61 38.44 47.98 146.72 32.1 145.09 302.47 34.08"/><polygon class="cls-3" points="307.77 45.83 407.69 57.73 308.24 47.03 40.83 157.24 37.05 156.69 307.77 45.83"/><path class="cls-1" d="M459.38,101.79l-7.6.21s4.91-37.53-14.97-54.17l-141.98-26.03-3.53-4.46,147.69,28.3s20.8,4.05,20.38,56.15Z"/><polygon class="cls-12" points="401.37 123 307.12 129.72 267.24 143.33 363.14 132.87 401.37 123"/><path class="cls-7" d="M439,45.64s19.36,8.29,20.38,56.15c0,0,4.99-44.42-20.38-56.15Z"/><path class="cls-9" d="M348.98,51.41s12.27-11.52,22.98-12.51l7.63,1.01,15.23,3.79s-19.29,2.32-27.64,9.67l-18.2-1.96Z"/><path class="cls-2" d="M371.96,38.9s24.16-.38,33.42,43.5c8.21,38.91,20.2,53.43,20.2,53.43l33.08-2.98c-31.08-52.3-25.88-75.37-63.84-89.17,0,0-14.35-4.39-22.85-4.8Z"/><polygon class="cls-1" points="348.98 51.41 356.23 104.6 369.79 104.23 372.34 110.91 391.56 109.87 390.7 103.66 376.56 103.98 367.17 53.37 348.98 51.41"/><g class="cls-17"><g class="cls-20"><path class="cls-14" d="M219.29,164l19.63-5.28-5.8-.17c-1.43-.04-3.45.16-6.07.61-2.62.45-5.49,1.1-8.63,1.94s-5.03,1.47-5.9,1.95c-.87.47-.6.73.84.77l5.93.18M250.2,155.68l18.27-4.92-5.38-.16c-1.4-.04-3.28.14-5.64.55-2.36.41-5,1.01-7.92,1.79-2.92.79-4.79,1.4-5.6,1.85-.81.44-.51.69.89.73l5.38.16M274.05,147.4l12.11.36-72.89,19.61-12.65-.38c-1.99-.06-2.87-.34-2.66-.83.22-.49,1.42-1.15,3.61-1.97,2.18-.82,5.22-1.75,9.12-2.8,4.32-1.16,8.68-2.18,13.09-3.04,4.4-.87,7.81-1.38,10.24-1.54-.33-.36.48-.94,2.42-1.74,1.94-.79,5.04-1.76,9.28-2.91,3.62-.97,7.23-1.83,10.83-2.58,3.59-.74,6.92-1.31,9.96-1.7,3.04-.39,5.56-.55,7.55-.49"/></g></g><g class="cls-16"><g class="cls-18"><path class="cls-19" d="M-98.63-1645.39c368.56,33.36,747.19-56.03,1061.91-250.71,314.73-194.67,563.78-493.54,698.52-838.21,49.83-127.48,87.63-266.14,183.91-363.43,176.07-177.92,503.19-134.13,665.52,56.41,162.33,190.53,172.26,479.14,72.68,708.78-48.26,111.28-118.82,211.71-168.02,322.58-49.2,110.87-75.84,240.01-31.4,352.87,54.8,139.16,207.64,220.33,356.74,232,149.1,11.67,296.3-33.61,437.73-82.26,109.62-37.7,220.72-78.21,336.6-81.44,115.87-3.24,239.92,37.84,305.64,133.32,111.38,161.8,3,393.72-157.92,506.36-160.92,112.64-361.32,151.76-536.42,240.78-311.5,158.36-519.39,459.59-733.08,736.09-213.69,276.49-470.36,554.26-812.21,626.72-75.03,15.9-158.22,19.89-223.51-20.36-113.04-69.7-118.6-230.59-98.91-361.93,21.32-142.22,56.83-284.21,47.98-427.74-8.85-143.53-72.46-294.17-199.86-360.87-139.07-72.81-307.9-27.63-457.82,18.92C384.41-415.22,119.36-332.94-145.68-250.65c-80.91,25.12-163.47,50.49-248.17,49.37-84.71-1.12-173.48-33.17-222.34-102.38-87.56-124.03-14.12-293.68,60.23-426.05,167.76-298.68,335.52-597.35,503.28-896.03"/></g></g></g></g></svg>