<?xml version="1.0" encoding="UTF-8"?><svg xmlns="http://www.w3.org/2000/svg" width="567.66" height="206.15" xmlns:xlink="http://www.w3.org/1999/xlink" viewBox="0 0 567.66 206.15"><defs><style>.cls-1{fill:#9a4f8b;mix-blend-mode:multiply;opacity:.8;}.cls-1,.cls-2,.cls-3,.cls-4,.cls-5,.cls-6,.cls-7,.cls-8,.cls-9,.cls-10,.cls-11,.cls-12,.cls-13,.cls-14{fill-rule:evenodd;}.cls-2{fill:#4e2c81;}.cls-15{mix-blend-mode:soft-light;}.cls-3{fill:url(#_Áåçûìÿííûé_ãðàäèåíò_79);}.cls-16{fill:none;}.cls-17{clip-path:url(#clippath-1);}.cls-4{fill:url(#_Áåçûìÿííûé_ãðàäèåíò_134-3);}.cls-18{isolation:isolate;}.cls-19{mix-blend-mode:overlay;opacity:.25;}.cls-5{fill:url(#_Áåçûìÿííûé_ãðàäèåíò_163);}.cls-6{fill:url(#_Áåçûìÿííûé_ãðàäèåíò_137);}.cls-7{fill:#71a6ff;}.cls-20{fill:#eee;}.cls-8{fill:#e9d9e3;}.cls-9{fill:url(#_Áåçûìÿííûé_ãðàäèåíò_3-2);}.cls-10{fill:url(#_Áåçûìÿííûé_ãðàäèåíò_79-2);}.cls-11{fill:url(#_Áåçûìÿííûé_ãðàäèåíò_134-2);}.cls-12{fill:url(#_Áåçûìÿííûé_ãðàäèåíò_127);}.cls-21{fill:url(#_Áåçûìÿííûé_ãðàäèåíò_134);}.cls-22{clip-path:url(#clippath-2);}.cls-23{fill:#dadada;}.cls-13{fill:url(#_Áåçûìÿííûé_ãðàäèåíò_3);}.cls-24{clip-path:url(#clippath);}.cls-14{fill:url(#_Áåçûìÿííûé_ãðàäèåíò_113);}.cls-25{fill:#a9e0ff;}</style><clipPath id="clippath"><rect class="cls-16" x="15.34" y="290.33" width="3840" height="2160"/></clipPath><radialGradient id="_Áåçûìÿííûé_ãðàäèåíò_3" cx="2570.06" cy="244.11" fx="2570.06" fy="244.11" r="78.23" gradientTransform="translate(-2436.96 -335.91) rotate(2.72)" gradientUnits="userSpaceOnUse"><stop offset="0" stop-color="#515bff"/><stop offset=".03" stop-color="#515add"/><stop offset="1" stop-color="#4335bb"/></radialGradient><radialGradient id="_Áåçûìÿííûé_ãðàäèåíò_79" cx="2676.71" cy="258.62" fx="2676.71" fy="258.62" r="27.35" gradientTransform="translate(-2436.96 -335.91) rotate(2.72)" gradientUnits="userSpaceOnUse"><stop offset="0" stop-color="#9d94c2"/><stop offset=".98" stop-color="#8c74b1"/></radialGradient><linearGradient id="_Áåçûìÿííûé_ãðàäèåíò_163" x1="2849.12" y1="329.07" x2="2849.12" y2="210.81" gradientTransform="translate(-2436.96 -335.91) rotate(2.72)" gradientUnits="userSpaceOnUse"><stop offset="0" stop-color="#6339ab"/><stop offset="1" stop-color="#547ed1"/></linearGradient><linearGradient id="_Áåçûìÿííûé_ãðàäèåíò_134" x1="2613.14" y1="87.57" x2="2613.14" y2="19.74" gradientTransform="translate(-2328.22)" gradientUnits="userSpaceOnUse"><stop offset="0" stop-color="#fb6300"/><stop offset="1" stop-color="#ffbf00"/></linearGradient><radialGradient id="_Áåçûìÿííûé_ãðàäèåíò_113" cx="2403.26" cy="123.52" fx="2403.26" fy="123.52" r="89.16" gradientTransform="translate(-2328.22)" gradientUnits="userSpaceOnUse"><stop offset="0" stop-color="#71a6ff"/><stop offset="1" stop-color="#6e76db"/></radialGradient><radialGradient id="_Áåçûìÿííûé_ãðàäèåíò_3-2" cx="2438.29" cy="127.78" fx="2438.29" fy="127.78" r="76.06" gradientTransform="translate(-2328.22)" xlink:href="#_Áåçûìÿííûé_ãðàäèåíò_3"/><radialGradient id="_Áåçûìÿííûé_ãðàäèåíò_79-2" cx="2544.32" cy="156.45" fx="2544.32" fy="156.45" r="27.35" gradientTransform="translate(-2328.22)" xlink:href="#_Áåçûìÿííûé_ãðàäèåíò_79"/><linearGradient id="_Áåçûìÿííûé_ãðàäèåíò_137" x1="2717.86" y1="202.78" x2="2717.86" y2="108.63" gradientTransform="translate(-2328.22)" gradientUnits="userSpaceOnUse"><stop offset="0" stop-color="#433599"/><stop offset="1" stop-color="#515aba"/></linearGradient><linearGradient id="_Áåçûìÿííûé_ãðàäèåíò_127" x1="2471.65" y1="179.25" x2="2471.65" y2="149.46" gradientTransform="translate(-2328.22)" gradientUnits="userSpaceOnUse"><stop offset="0" stop-color="#dd1d33"/><stop offset="1" stop-color="#ff4827"/></linearGradient><linearGradient id="_Áåçûìÿííûé_ãðàäèåíò_134-2" x1="2867.73" y1="187.07" x2="2867.73" y2="130.64" xlink:href="#_Áåçûìÿííûé_ãðàäèåíò_134"/><linearGradient id="_Áåçûìÿííûé_ãðàäèåíò_134-3" x1="2580.82" y1="202.78" x2="2580.82" y2="109.31" xlink:href="#_Áåçûìÿííûé_ãðàäèåíò_134"/><clipPath id="clippath-1"><polygon class="cls-16" points="277.6 167.86 280.58 143.75 512.91 145.61 509.94 169.72 277.6 167.86"/></clipPath><clipPath id="clippath-2"><rect class="cls-16" x="407.26" y="13.77" width="29.61" height="125.52" transform="translate(307.67 489.94) rotate(-84.81)"/></clipPath></defs><g class="cls-18"><g id="Layer_1"><g class="cls-24"><g class="cls-19"><path class="cls-20" d="M-21.83,992.09c368.56,33.36,747.19-56.03,1061.91-250.71,314.73-194.67,563.78-493.54,698.52-838.21,49.83-127.48,87.63-266.14,183.91-363.43,176.07-177.92,503.19-134.13,665.52,56.41,162.33,190.53,172.26,479.14,72.68,708.78-48.26,111.28-118.82,211.71-168.02,322.58-49.2,110.87-75.84,240.01-31.4,352.87,54.8,139.16,207.64,220.33,356.74,232,149.1,11.67,296.3-33.61,437.73-82.26,109.62-37.7,220.72-78.21,336.6-81.44,115.87-3.24,239.92,37.84,305.64,133.32,111.38,161.8,3,393.72-157.92,506.36-160.92,112.64-361.32,151.76-536.42,240.78-311.5,158.36-519.39,459.59-733.08,736.09-213.69,276.49-470.36,554.26-812.21,626.72-75.03,15.9-158.22,19.89-223.51-20.36-113.04-69.7-118.6-230.59-98.91-361.93,21.32-142.22,56.83-284.21,47.98-427.74-8.85-143.53-72.46-294.17-199.86-360.87-139.07-72.81-307.9-27.63-457.82,18.92-265.04,82.29-530.08,164.57-795.13,246.86-80.91,25.12-163.47,50.49-248.17,49.37-84.71-1.12-173.48-33.17-222.34-102.38-87.56-124.03-14.12-293.68,60.23-426.05C-311.4,1609.08-143.64,1310.41,24.12,1011.73"/></g></g><path class="cls-7" d="M7.09,112.12s-1.84-3.24.27-5.71l212.05-18.85s17.5-32.66,7.5-78.36L10.01,50.71s-3.18-1.78.31-6.51L231.81,2.05s16.09,38.46-6.96,93.92L7.09,112.12Z"/><path class="cls-8" d="M16.16,50.42s5.52,35.19.23,56.47l203.01-19.32s18.29-30.88,7.5-78.36L16.16,50.42Z"/><polygon class="cls-13" points="10.01 50.71 16.33 51.09 227.24 11.45 226.92 9.21 10.01 50.71"/><path class="cls-3" d="M223.22,11.62s18.12,32.63-6.55,75.83l2.74.12s19.56-34.63,7.83-76.12l-4.02.16Z"/><polygon class="cls-1" points="16.16 50.42 16.69 54.24 224.69 14.82 223.22 11.62 16.16 50.42"/><path class="cls-5" d="M231.81,2.05l323.97,50.69s21.82,39.75-.12,83.11l-331.32-39.73s21.48-45.57,7.46-94.06Z"/><path class="cls-21" d="M257.84,19.74s7.76,20.28-4.71,59.59l54.29,8.24s14.23-22.86,7.43-57.42l-57.01-10.41Z"/><g class="cls-15"><path class="cls-23" d="M508.13,130.58l-2.88-1.2c19.31-46.2,6.8-82.38,6.67-82.74l2.94-1.06c.13.37,13.07,37.62-6.74,85Z"/></g><g class="cls-15"><path class="cls-23" d="M315.52,107.97l-2.71-1.55c22.57-39.39,9.81-88.65,9.68-89.14l3.02-.8c.13.51,13.21,51-9.99,91.5Z"/></g><polygon class="cls-2" points="7.09 112.12 316.87 131.42 554.25 135.85 224.73 96.09 7.09 112.12"/><path class="cls-14" d="M3.14,200.96s-1.99-3.15,0-5.71l209.65-.6s15.93-33.46,3.77-78.63L3.14,139.47s-3.26-1.63,0-6.52l217.97-24.32s17.9,37.66-2.49,94.15l-215.48-1.82Z"/><path class="cls-8" d="M9.27,138.89s7.19,34.89,2.92,56.39l200.6-.64s16.8-31.72,3.77-78.63L9.27,138.89Z"/><polygon class="cls-9" points="3.14 139.47 9.47 139.55 216.99 118.24 216.56 116.01 3.14 139.47"/><path class="cls-10" d="M212.98,118.59s19.65,31.74-2.94,76.06h2.75s17.89-35.53,4.2-76.41l-4.01.35Z"/><path class="cls-6" d="M221.11,108.63l329.23,7.38s23.21,38.88,0,86.76H218.62s18.57-47.13,2.49-94.15Z"/><polygon class="cls-1" points="9.27 138.89 9.98 142.69 214.61 121.73 212.98 118.59 9.27 138.89"/><polygon class="cls-1" points="163.59 149.46 166.07 188.55 141.56 188.55 138.77 153.8 163.59 149.46"/><path class="cls-12" d="M163.59,149.46l-24.82,4.34s-14.89,6.83-15.51,25.44h34.13s-4.96-14.89,6.21-29.79Z"/><path class="cls-11" d="M528.68,130.64s10.82,17.52,0,56.43h17.59s9.12-32.06,0-56.43h-17.59Z"/><path class="cls-4" d="M251.46,109.31s17.61,37.11,0,93.47h-5.55s18.57-46.73,2.17-93.47h3.38Z"/><g class="cls-18"><g class="cls-17"><path class="cls-25" d="M281.23,164.77c-.22,0-.31-.13-.28-.38l.86-6.97c.03-.25.15-.38.37-.38l4.08.03c1.58.01,2.26.92,2.04,2.72l-.29,2.32c-.22,1.79-1.08,2.69-2.58,2.68l-4.2-.03M282.55,154.05c-.22,0-.31-.13-.28-.37l.79-6.41c.03-.25.15-.38.37-.38l3.96.03c1.48.01,2.11.92,1.89,2.72l-.21,1.72c-.22,1.82-1.1,2.73-2.62,2.71l-3.91-.03M288.2,143.81l-7.11-.06c-.35,0-.54.22-.59.63l-2.81,22.83c-.05.42.09.64.44.64l7.38.06c1.46.01,2.66-.48,3.6-1.48.94-.99,1.53-2.4,1.75-4.22l.3-2.4c.15-1.23.02-2.2-.4-2.93s-1.02-1.16-1.78-1.29c1.72-.61,2.71-2,2.98-4.18l.23-1.84c.22-1.82-.01-3.24-.71-4.24-.7-1.01-1.78-1.52-3.27-1.53"/><path class="cls-25" d="M299.34,164.84c-1.44-.01-2.04-.94-1.82-2.78l1.5-12.18c.23-1.86,1.06-2.77,2.5-2.76l2.61.02c1.46.01,2.08.94,1.85,2.79l-1.5,12.18c-.23,1.85-1.08,2.76-2.54,2.75l-2.61-.02M304.98,143.95l-3.48-.03c-1.48-.01-2.69.49-3.63,1.49-.93,1.01-1.51,2.43-1.74,4.29l-1.54,12.48c-.22,1.82,0,3.25.68,4.28.69,1.03,1.77,1.55,3.25,1.57l3.48.03c1.48.01,2.69-.49,3.64-1.51s1.53-2.44,1.76-4.26l1.54-12.48c.23-1.86,0-3.28-.7-4.31-.7-1.01-1.78-1.54-3.26-1.55"/><path class="cls-25" d="M315.9,164.97c-1.44-.01-2.05-.94-1.82-2.78l1.5-12.18c.23-1.86,1.06-2.77,2.5-2.76l2.61.02c1.46.01,2.07.94,1.84,2.79l-1.5,12.18c-.23,1.85-1.07,2.76-2.53,2.75l-2.61-.02M321.54,144.08l-3.48-.03c-1.48-.01-2.69.49-3.62,1.49-.94,1.01-1.52,2.43-1.75,4.29l-1.54,12.48c-.22,1.82,0,3.25.69,4.28.68,1.03,1.76,1.55,3.24,1.57l3.48.03c1.48.01,2.7-.49,3.64-1.51s1.53-2.44,1.76-4.26l1.54-12.48c.23-1.86,0-3.28-.7-4.31-.7-1.01-1.79-1.54-3.27-1.55"/><path class="cls-25" d="M337.78,144.21l-3.18-.03c-1.46-.01-2.67.5-3.63,1.53-.96,1.04-1.55,2.46-1.78,4.29l-.19,1.57c-.17,1.4-.07,2.55.31,3.45s.91,1.52,1.59,1.85c.67.33,1.43.62,2.27.88.82.26,1.59.46,2.3.6.7.15,1.27.45,1.7.92.43.46.6,1.1.5,1.9l-.11.87c-.14,1.1-.42,1.89-.86,2.37-.44.48-1.09.72-1.95.71l-2.07-.02c-.86,0-1.44-.24-1.76-.7-.31-.46-.4-1.22-.27-2.28l.08-.67c.05-.42-.09-.64-.43-.64l-1.93-.02c-.34,0-.54.21-.59.63l-.12.97c-.23,1.83.02,3.26.73,4.31.71,1.04,1.8,1.57,3.26,1.58l3.36.03c1.46.01,2.67-.5,3.62-1.53.96-1.03,1.55-2.46,1.78-4.29l.18-1.46c.15-1.2.1-2.22-.16-3.06-.26-.83-.65-1.46-1.18-1.89-.53-.41-1.13-.75-1.8-1.01-.67-.25-1.34-.44-2.01-.58-.68-.13-1.3-.28-1.86-.46-1.24-.42-1.8-1.18-1.66-2.3l.14-1.17c.14-1.17.43-2,.86-2.48.44-.49,1.07-.73,1.94-.72l1.89.02c.86,0,1.45.24,1.76.7.31.47.4,1.24.27,2.31l-.06.49c-.05.42.09.64.44.64l1.92.02c.34,0,.54-.21.59-.63l.1-.82c.22-1.82-.02-3.26-.72-4.31-.7-1.04-1.8-1.57-3.28-1.58"/><path class="cls-25" d="M356.62,144.36l-11.13-.09c-.36,0-.57.22-.62.63l-.24,1.92c-.05.42.1.64.46.64l3.78.03c.2,0,.29.13.26.37l-2.45,19.91c-.05.42.1.64.46.64l1.89.02c.34,0,.54-.21.59-.63l2.45-19.91c.03-.25.16-.37.38-.37l3.78.03c.36,0,.56-.21.62-.63l.24-1.92c.05-.42-.1-.64-.46-.64"/><path class="cls-25" d="M379.58,144.54l-2.22-.02c-.42,0-.77.22-1.04.63l-6.97,9.97c-.39.57-.73,1.19-1.01,1.87h-.08s1.47-11.89,1.47-11.89c.05-.42-.1-.64-.44-.64l-1.89-.02c-.34,0-.54.22-.59.63l-2.81,22.83c-.05.42.09.64.43.64l1.89.02c.34,0,.54-.21.59-.63l.82-6.67,2.79-3.46,3.94,10.2c.17.43.52.64,1.06.65h1.68c.47.02.62-.23.45-.74l-5.04-12.75,7.08-9.89c.33-.47.29-.71-.12-.72"/><path class="cls-25" d="M395.94,144.68h-1.86c-.34-.02-.54.2-.59.62l-1.98,16.08h-.12s-5.25-16.36-5.25-16.36c-.09-.28-.29-.42-.61-.42h-1.68c-.34-.02-.54.2-.59.62l-2.81,22.83c-.05.42.09.64.43.64h1.86c.34.02.54-.19.59-.62l1.98-16.08h.12s5.22,16.17,5.22,16.17c.15.4.39.6.7.61h1.62c.34.02.54-.2.59-.62l2.81-22.83c.05-.42-.09-.64-.43-.64"/><path class="cls-25" d="M403.02,165.67c-1.44-.01-2.05-.94-1.82-2.78l1.5-12.18c.23-1.86,1.06-2.77,2.5-2.76l2.61.02c1.46.01,2.07.94,1.84,2.79l-1.5,12.18c-.23,1.85-1.07,2.76-2.53,2.75l-2.61-.02M408.66,144.78l-3.47-.03c-1.49-.01-2.69.49-3.63,1.49-.93,1.01-1.52,2.43-1.75,4.29l-1.54,12.48c-.22,1.82.01,3.25.69,4.28.69,1.03,1.76,1.55,3.25,1.57l3.47.03c1.49.01,2.7-.49,3.64-1.51.95-1.02,1.53-2.44,1.76-4.26l1.54-12.48c.23-1.86,0-3.28-.7-4.31-.7-1.01-1.78-1.54-3.27-1.55"/><path class="cls-25" d="M438.13,145.01l-2.31-.02c-.38,0-.61.23-.69.68l-4.84,19.58h-.18s-1.14-19.74-1.14-19.74c-.02-.37-.19-.57-.5-.57l-2.52-.02c-.32,0-.53.19-.61.56l-5.98,19.68h-.18s-.01-19.66-.01-19.66c.03-.42-.14-.64-.52-.64l-2.31-.02c-.38,0-.58.22-.59.63l.76,22.86c0,.42.19.64.55.64l3.18.03c.32,0,.54-.21.65-.63l5.73-18.94h.12s1.05,19,1.05,19c0,.42.18.64.52.64l3.18.03c.34,0,.56-.21.68-.63l6.38-22.76c.12-.45-.02-.68-.43-.68"/><path class="cls-25" d="M443.86,145.06l-1.89-.02c-.34,0-.54.22-.59.63l-2.81,22.83c-.05.42.09.64.43.64l9.72.08c.34,0,.54-.21.59-.63l.24-1.95c.06-.45-.09-.67-.43-.68l-6.96-.06c-.24,0-.35-.13-.32-.37l2.45-19.83c.05-.42-.09-.64-.43-.64"/><path class="cls-25" d="M465.08,145.23l-9.6-.08c-.34,0-.54.22-.59.63l-2.81,22.83c-.05.42.09.64.43.64l9.6.08c.32,0,.51-.21.56-.63l.24-1.92c.05-.42-.08-.64-.4-.64l-6.84-.05c-.24,0-.34-.14-.31-.41l.82-6.67c.03-.25.17-.37.41-.37l5.8.05c.36,0,.56-.21.62-.63l.24-1.92c.05-.42-.1-.64-.46-.64l-5.8-.05c-.24,0-.35-.13-.32-.37l.78-6.34c.03-.25.17-.37.41-.37l6.84.05c.32,0,.51-.21.56-.63l.24-1.92c.05-.42-.08-.64-.4-.64"/><path class="cls-25" d="M470.03,166.2c-.22,0-.31-.14-.28-.41l2.09-16.94c.03-.25.15-.37.37-.37l4.23.03c1.44.01,2.05.94,1.82,2.79l-1.5,12.18c-.23,1.85-1.06,2.76-2.51,2.75l-4.23-.03M477.26,145.33l-7.38-.06c-.35,0-.54.22-.6.63l-2.81,22.83c-.05.42.09.64.44.64l7.38.06c1.46.01,2.67-.49,3.62-1.51.95-1.02,1.55-2.44,1.77-4.26l1.54-12.48c.23-1.86-.01-3.28-.72-4.31-.7-1.01-1.79-1.54-3.24-1.55"/><path class="cls-25" d="M493.58,145.46l-3.21-.03c-1.49-.01-2.69.49-3.63,1.49-.93,1.01-1.52,2.43-1.75,4.29l-1.54,12.48c-.22,1.82.01,3.25.69,4.28.69,1.03,1.76,1.55,3.25,1.57l3.21.03c1.46.01,2.67-.49,3.62-1.51s1.53-2.44,1.75-4.26l.78-6.3c.06-.52-.11-.79-.53-.79l-5.04-.04c-.34,0-.54.21-.59.63l-.24,1.92c-.05.42.09.64.43.64l2.43.02c.22,0,.31.13.28.37l-.42,3.38c-.23,1.85-1.06,2.76-2.5,2.75l-2.37-.02c-1.44-.01-2.05-.94-1.82-2.78l1.5-12.18c.23-1.86,1.06-2.77,2.5-2.76l2.37.02c1.44.01,2.05.94,1.82,2.79l-.15,1.19c-.06.45.09.68.43.68l1.89.02c.34,0,.54-.23.59-.68l.17-1.34c.23-1.86,0-3.28-.68-4.31-.69-1.01-1.77-1.54-3.25-1.55"/><path class="cls-25" d="M512.43,145.61l-9.6-.08c-.34,0-.54.22-.59.63l-2.81,22.83c-.05.42.09.64.43.64l9.6.08c.32,0,.51-.21.56-.63l.24-1.92c.05-.42-.08-.64-.4-.64l-6.84-.05c-.24,0-.34-.14-.31-.41l.82-6.67c.03-.25.17-.37.41-.37l5.8.05c.36,0,.56-.21.62-.63l.24-1.92c.05-.42-.1-.64-.46-.64l-5.8-.05c-.24,0-.35-.13-.32-.37l.78-6.34c.03-.25.17-.37.41-.37l6.84.05c.32,0,.51-.21.56-.63l.24-1.92c.05-.42-.08-.64-.4-.64"/></g></g><g class="cls-18"><g class="cls-22"><path class="cls-25" d="M364.49,77.77c-1.55-.14-2.24-1.15-2.07-3.03l1.12-12.35c.17-1.87,1.03-2.74,2.58-2.6l2.8.26c1.55.14,2.24,1.15,2.07,3.03l-1.12,12.35c-.17,1.87-1.03,2.74-2.58,2.6l-2.8-.26M369.67,56.86l-3.74-.34c-1.59-.15-2.87.25-3.85,1.2-.97.94-1.54,2.35-1.71,4.23l-1.15,12.66c-.17,1.86.13,3.34.92,4.46.79,1.11,1.98,1.75,3.57,1.89l1.48.14,1.79,4.61c.18.45.5.7.98.74l1.81.17c.19.02.33-.03.44-.17.1-.14.11-.32.02-.6l-1.76-4.56c1.29-.09,2.32-.6,3.11-1.54.79-.93,1.26-2.23,1.41-3.87l1.15-12.66c.17-1.87-.13-3.36-.91-4.47-.77-1.11-1.96-1.73-3.55-1.88"/><path class="cls-25" d="M392.1,58.92l-2.03-.19c-.36-.03-.57.16-.61.6l-1.61,17.75c-.17,1.87-1.04,2.74-2.61,2.6l-2.64-.24c-1.55-.14-2.24-1.15-2.07-3.03l1.61-17.75c.04-.43-.12-.66-.49-.7l-2.03-.19c-.36-.03-.57.16-.61.6l-1.63,17.9c-.17,1.86.14,3.34.93,4.46.79,1.11,1.96,1.74,3.53,1.89l3.58.33c1.57.14,2.84-.26,3.83-1.21.99-.96,1.56-2.36,1.73-4.22l1.63-17.94c.04-.4-.13-.63-.52-.66"/><path class="cls-25" d="M399.93,59.63l-2.03-.19c-.36-.03-.57.16-.61.6l-2.1,23.14c-.04.43.12.66.49.7l2.03.19c.36.03.57-.16.61-.6l2.1-23.14c.04-.43-.12-.66-.49-.7"/><path class="cls-25" d="M416.95,61.19l-11.41-1.05c-.39-.04-.6.16-.64.59l-.2,2.17c-.04.43.13.66.52.7l8.54.78v.15s-10.88,16.13-10.88,16.13c-.21.26-.36.73-.42,1.38l-.16,1.78c-.04.43.12.66.49.7l12.25,1.12c.36.03.57-.19.61-.67l.19-2.13c.04-.4-.13-.62-.49-.65l-9.09-.83v-.15s10.45-15.37,10.45-15.37c.27-.41.43-.89.48-1.45l.23-2.51c.04-.43-.12-.66-.49-.7"/><path class="cls-25" d="M439.97,63.31l-11.96-1.1c-.39-.04-.6.16-.64.59l-.18,1.94c-.04.43.14.66.53.7l4.06.37c.21.02.31.16.28.41l-1.83,20.18c-.04.43.14.66.53.7l2.03.19c.36.03.57-.16.61-.6l1.83-20.18c.02-.25.15-.37.38-.35l4.07.37c.39.04.6-.16.64-.59l.18-1.94c.04-.43-.13-.66-.52-.7"/><path class="cls-25" d="M446.06,63.86l-2.03-.19c-.36-.03-.57.16-.61.6l-2.1,23.14c-.04.43.12.66.49.7l2.03.19c.36.03.57-.16.61-.6l2.1-23.14c.04-.43-.12-.66-.49-.7"/><path class="cls-25" d="M469.27,65.99l-3.61-.33c-.28-.03-.45.09-.52.38l-5.78,14.26h-.16s-3.08-15.08-3.08-15.08c-.08-.3-.24-.45-.48-.47l-3.6-.33c-.37-.03-.57.16-.61.59l-2.1,23.14c-.04.43.12.66.5.7l1.96.18c.21.02.36,0,.44-.09.08-.08.14-.25.16-.51l1.75-19.23h.13s3.02,14.35,3.02,14.35c.09.42.3.64.62.67l2.07.19c.34.03.6-.15.76-.54l5.45-13.53h.13s-1.74,19.2-1.74,19.2c-.04.43.12.66.49.7l2,.18c.36.03.57-.16.61-.6l2.1-23.14c.04-.43-.12-.66-.49-.7"/><path class="cls-25" d="M485.38,67.47l-10.32-.95c-.36-.03-.57.16-.61.6l-2.1,23.14c-.04.43.12.66.49.7l10.32.95c.34.03.54-.17.58-.6l.18-1.94c.04-.43-.12-.66-.46-.69l-7.35-.67c-.26-.02-.38-.17-.35-.46l.61-6.76c.02-.26.16-.37.42-.35l6.23.57c.39.04.6-.16.64-.59l.18-1.94c.04-.43-.13-.66-.52-.7l-6.23-.57c-.26-.02-.38-.16-.35-.42l.58-6.42c.02-.25.16-.37.42-.35l7.35.67c.34.03.54-.17.58-.6l.18-1.94c.04-.43-.12-.66-.46-.69"/></g></g></g></g></svg>