<?xml version="1.0" encoding="UTF-8"?><svg xmlns="http://www.w3.org/2000/svg" width="515.65" height="416.65" xmlns:xlink="http://www.w3.org/1999/xlink" viewBox="0 0 515.65 416.65"><defs><style>.cls-1{fill:#a190da;}.cls-1,.cls-2,.cls-3,.cls-4,.cls-5,.cls-6,.cls-7{fill-rule:evenodd;}.cls-2{fill:url(#_Áåçûìÿííûé_ãðàäèåíò_201);}.cls-3{opacity:.8;}.cls-3,.cls-5{fill:#9a4f8b;}.cls-3,.cls-8{mix-blend-mode:multiply;}.cls-4{fill:url(#_Áåçûìÿííûé_ãðàäèåíò_214);}.cls-9{fill:#fff;}.cls-10{fill:none;}.cls-11{clip-path:url(#clippath-1);}.cls-12{isolation:isolate;}.cls-13{mix-blend-mode:overlay;opacity:.25;}.cls-6{fill:#a190ff;}.cls-14{fill:#eee;}.cls-8{opacity:.48;}.cls-15{clip-path:url(#clippath);}.cls-7{fill:url(#_Áåçûìÿííûé_ãðàäèåíò_215);}</style><linearGradient id="_Áåçûìÿííûé_ãðàäèåíò_201" x1="5181.24" y1="-3075.25" x2="5181.24" y2="-3520.83" gradientTransform="translate(6324.86 831.64) rotate(-141.82)" gradientUnits="userSpaceOnUse"><stop offset="0" stop-color="#511fa4"/><stop offset="1" stop-color="#52146a"/></linearGradient><linearGradient id="_Áåçûìÿííûé_ãðàäèåíò_214" x1="5451.23" y1="-2945.48" x2="5451.23" y2="-3375.13" gradientTransform="translate(6431.41 614.07) rotate(-145.88)" gradientUnits="userSpaceOnUse"><stop offset="0" stop-color="#8343d6"/><stop offset="1" stop-color="#8143e5"/></linearGradient><linearGradient id="_Áåçûìÿííûé_ãðàäèåíò_215" x1="114.23" y1="101.55" x2="291.24" y2="101.55" gradientUnits="userSpaceOnUse"><stop offset="0" stop-color="#ffbf00"/><stop offset="1" stop-color="#dd6d00"/></linearGradient><clipPath id="clippath"><polygon class="cls-10" points="152.83 135.09 214.64 55.94 243.39 60.7 181.57 139.86 152.83 135.09"/></clipPath><clipPath id="clippath-1"><rect class="cls-10" x="-3422.95" y="-2359.65" width="3840" height="2160"/></clipPath></defs><g class="cls-12"><g id="Layer_1"><g class="cls-8"><path class="cls-5" d="M49.62,323.36l285.45-123.3,155.96,34.84s28.96,26.28,23.72,68.89l-21.17,5.99c3.23,6.43,6.96,13.41,11.49,21.02l-32.92,2.96s-3.78-4.58-8.54-15.5l-238.36,67.5-138.62,30.32-1.78-5.18,13.73-5.26c-3.37-21.32-8.01-37.57-12.47-49.55l3.15-1.05-2.85-.41-.89-.13s0,0,0,0h0s0,0,0,0c-.63-1.62-1.23-3.14-1.84-4.59l12.7-5.33-15.8-1.62h.02s0,0,0,0h-.02c-2.56-5.36-4.78-9.08-6.33-11.44l-22.76-2.8-1.85-5.37ZM423.4,302.05l14.05-.31h0s19.91-.54,19.91-.54c0-.01,0-.03-.01-.04l-33.95.9ZM416.64,302.3l-13.5.37v-.08s-36.59.97-36.59.97c0-.01,0-.03,0-.04,0,0,0,.05,0,.05l-.31.12,50.4-1.37h0ZM510.85,289.7c0,6.05-.51,10.05-.51,10.05l-4.54.12-7.56.21s0,0,0,0l-9.24.24s0,0,0,.01l21.34-.58s.66-3.87.51-10.05Z"/></g><path class="cls-2" d="M372.05,72.28s-3.18-10.47-13.53-19.67c-16.84-14.98-37.35-20.35-37.35-20.35L54.91,370.85s19.35,36.98,50.88,40.01L372.05,72.28Z"/><path class="cls-4" d="M54.91,370.85L.47,268.97,208.27.68s15.22,8.79,19.21,10.64c21.77,10.11,93.68,20.96,93.68,20.96L54.91,370.85Z"/><path class="cls-1" d="M297.85,115.3l7.05,6.2,46.22-57.53s.13-3.88-6.77-7.33l-46.5,58.66Z"/><polygon class="cls-7" points="114.23 136.44 203.09 24.29 291.24 49.74 190.14 178.82 114.23 136.44"/><polygon class="cls-6" points="16.75 282.16 48.67 337.09 54.91 326.25 20.07 279.06 16.75 282.16"/><polygon class="cls-3" points="110.9 140.39 65.75 199.52 128.44 248.76 184.5 185.09 110.9 140.39"/><path class="cls-3" d="M234.54,14.07l-94.73,75L208.27.68s11.95,9.23,26.27,13.39Z"/><g class="cls-12"><g class="cls-15"><path class="cls-9" d="M184.48,109l30.18-32.34-21.45,33.79-8.73-1.45M232.54,58.9l-7.04-1.17-72.66,77.36,6.36,1.05,13.75-14.73,12.02,1.99-9.77,15.39,6.4,1.06,50.96-80.96"/></g></g><g class="cls-11"><g class="cls-13"><path class="cls-14" d="M-3460.11-1657.89c368.56,33.36,747.19-56.03,1061.91-250.71,314.73-194.67,563.78-493.54,698.52-838.21,49.83-127.48,87.63-266.14,183.91-363.43,176.07-177.92,503.19-134.13,665.52,56.41,162.33,190.53,172.26,479.14,72.68,708.78-48.26,111.28-118.82,211.71-168.02,322.58-49.2,110.87-75.84,240.01-31.4,352.87,54.8,139.16,207.64,220.33,356.74,232,149.1,11.67,296.3-33.61,437.73-82.26,109.62-37.7,220.72-78.21,336.6-81.44,115.87-3.24,239.92,37.84,305.64,133.32,111.38,161.8,3,393.72-157.92,506.36-160.92,112.64-361.32,151.76-536.42,240.78C-546.12-562.48-754.02-261.25-967.71,15.25c-213.69,276.49-470.36,554.26-812.21,626.72-75.03,15.9-158.22,19.89-223.51-20.36-113.04-69.7-118.6-230.59-98.91-361.93,21.32-142.22,56.83-284.21,47.98-427.74-8.85-143.53-72.46-294.17-199.86-360.87-139.07-72.81-307.9-27.63-457.82,18.92-265.04,82.29-530.08,164.57-795.13,246.86-80.91,25.12-163.47,50.49-248.17,49.37-84.71-1.12-173.48-33.17-222.34-102.38-87.56-124.03-14.12-293.68,60.23-426.05,167.76-298.68,335.52-597.35,503.28-896.03"/></g></g></g></g></svg>