<?xml version="1.0" encoding="UTF-8"?><svg xmlns="http://www.w3.org/2000/svg" width="532.76" height="470.1" xmlns:xlink="http://www.w3.org/1999/xlink" viewBox="0 0 532.76 470.1"><defs><style>.cls-1{fill:url(#_Áåçûìÿííûé_ãðàäèåíò_41);}.cls-1,.cls-2,.cls-3,.cls-4,.cls-5,.cls-6,.cls-7,.cls-8,.cls-9,.cls-10,.cls-11,.cls-12,.cls-13{fill-rule:evenodd;}.cls-2,.cls-12{fill:#9a4f8b;}.cls-2,.cls-12,.cls-13{mix-blend-mode:multiply;}.cls-2,.cls-13{opacity:.8;}.cls-14{fill:#fff;}.cls-3{fill:#e2412c;}.cls-4{fill:#fff3b3;mix-blend-mode:soft-light;}.cls-5{fill:#b32742;}.cls-15{fill:none;}.cls-16{clip-path:url(#clippath-1);}.cls-6{fill:url(#_Áåçûìÿííûé_ãðàäèåíò_74);}.cls-17{isolation:isolate;}.cls-18{mix-blend-mode:overlay;opacity:.25;}.cls-7{fill:#7d1027;}.cls-8{fill:url(#_Áåçûìÿííûé_ãðàäèåíò_137);}.cls-9{fill:url(#_Áåçûìÿííûé_ãðàäèåíò_97);}.cls-19{fill:#eee;}.cls-10{fill:#978bc3;}.cls-11{fill:url(#_Áåçûìÿííûé_ãðàäèåíò_97-2);}.cls-12{opacity:.48;}.cls-20{clip-path:url(#clippath);}.cls-13{fill:#b02463;}</style><clipPath id="clippath"><rect class="cls-15" x="-3361.13" y="565.82" width="3840" height="2160"/></clipPath><linearGradient id="_Áåçûìÿííûé_ãðàäèåíò_41" x1="216.89" y1="470.1" x2="216.89" y2="74.52" gradientUnits="userSpaceOnUse"><stop offset="0" stop-color="#ff1847"/><stop offset="1" stop-color="#ff6127"/></linearGradient><linearGradient id="_Áåçûìÿííûé_ãðàäèåíò_74" x1="162.08" y1="470.1" x2="162.08" y2="150.26" gradientUnits="userSpaceOnUse"><stop offset="0" stop-color="#e03347"/><stop offset="1" stop-color="#ff7527"/></linearGradient><linearGradient id="_Áåçûìÿííûé_ãðàäèåíò_97" x1="273.24" y1="113.03" x2="273.24" y2="74.52" gradientUnits="userSpaceOnUse"><stop offset="0" stop-color="#fb8900"/><stop offset="1" stop-color="#ffbf00"/></linearGradient><linearGradient id="_Áåçûìÿííûé_ãðàäèåíò_97-2" x1="273.85" y1="470.1" x2="273.85" y2="437.98" xlink:href="#_Áåçûìÿííûé_ãðàäèåíò_97"/><linearGradient id="_Áåçûìÿííûé_ãðàäèåíò_137" x1="306.96" y1="174.14" x2="330.48" y2="174.14" gradientUnits="userSpaceOnUse"><stop offset="0" stop-color="#433599"/><stop offset="1" stop-color="#515aba"/></linearGradient><clipPath id="clippath-1"><polygon class="cls-15" points="203.15 293.91 198.32 225.71 235.68 197.01 240.51 265.21 203.15 293.91"/></clipPath></defs><g class="cls-17"><g id="Layer_1"><g class="cls-20"><g class="cls-18"><path class="cls-19" d="M-3398.29,1267.58c368.56,33.36,747.19-56.03,1061.91-250.71,314.73-194.67,563.78-493.54,698.52-838.21,49.83-127.48,87.63-266.14,183.91-363.43,176.07-177.92,503.19-134.13,665.52,56.41,162.33,190.53,172.26,479.14,72.68,708.78-48.26,111.28-118.82,211.71-168.02,322.58-49.2,110.87-75.84,240.01-31.4,352.87,54.8,139.16,207.64,220.33,356.74,232,149.1,11.67,296.3-33.61,437.73-82.26,109.62-37.7,220.72-78.21,336.6-81.44,115.87-3.24,239.92,37.84,305.64,133.32,111.38,161.8,3,393.72-157.92,506.36-160.92,112.64-361.32,151.76-536.42,240.78-311.5,158.36-519.39,459.59-733.08,736.09-213.69,276.49-470.36,554.26-812.21,626.72-75.03,15.9-158.22,19.89-223.51-20.36-113.04-69.7-118.6-230.59-98.91-361.93,21.32-142.22,56.83-284.21,47.98-427.74-8.85-143.53-72.46-294.17-199.86-360.87-139.07-72.81-307.9-27.63-457.82,18.92-265.04,82.29-530.08,164.57-795.13,246.86-80.91,25.12-163.47,50.49-248.17,49.37-84.71-1.12-173.48-33.17-222.34-102.38-87.56-124.03-14.12-293.68,60.23-426.05,167.76-298.68,335.52-597.35,503.28-896.03"/></g></g><path class="cls-12" d="M489.03,221.01l-1.22,28.76-1.68,39.37-7.7,180.96H169.16l14.46-7.1c103.4-6.03,87.39-19.7,87.39-19.7l67.23-6.24-1.88-35.57-.04.13-5.96-112.48-.75-14.15,4.46-3.49h1.35s56.57-33.87,56.57-33.87l-.04.1,14.55-8.71,15.2-9.11h5.86l-.26,26.78.06-.03.2-19.86,6.75,1.98c5.47,1.35,13.91,2.9,24.09,3.05l24.94-11.92,5.69,1.1Z"/><polygon class="cls-7" points="149.39 155.37 205.6 155.37 374.79 74.52 362.76 470.1 180.91 470.1 149.39 155.37"/><polygon class="cls-1" points="166.06 470.1 149.39 155.37 284.39 74.52 284.39 470.1 166.06 470.1"/><polygon class="cls-5" points="284.39 74.52 292.98 74.52 289.17 470.1 282.6 470.1 284.39 74.52"/><path class="cls-10" d="M292.98,84.63s30.68,11.55,69.79,5.77l-12.46,374.59-61.08.05,3.76-380.41Z"/><polygon class="cls-5" points="362.76 470.1 374.79 74.52 383.15 76.12 366.37 470.1 362.76 470.1"/><polygon class="cls-6" points="149.39 155.37 166.06 470.1 174.77 470.1 157.92 150.26 155.93 150.26 149.39 155.37"/><polygon class="cls-5" points="155.93 150.26 173.16 470.1 174.77 470.1 157.92 150.26 155.93 150.26"/><polygon class="cls-13" points="179.27 334.39 171.3 183.76 262.09 133.23 262.09 321.94 179.27 334.39"/><polygon class="cls-4" points="179.27 346.42 181.24 381.75 262.09 376.02 262.09 331.98 179.27 346.42"/><polygon class="cls-4" points="200.73 465.04 200.73 462.02 246.85 460.95 246.85 465.04 200.73 465.04"/><polygon class="cls-9" points="262.09 87.88 284.22 113.03 284.39 74.52 262.09 87.88"/><polygon class="cls-11" points="265.1 470.1 282.6 437.98 282.6 470.1 265.1 470.1"/><polygon class="cls-3" points="284.22 113.03 292.37 113.86 292.98 74.52 284.39 74.52 284.22 113.03"/><polygon class="cls-3" points="373.46 118.31 381.35 118.31 383.15 76.12 374.79 74.52 373.46 118.31"/><polygon class="cls-3" points="282.6 437.98 289.23 437.98 289.17 470.1 282.6 470.1 282.6 437.98"/><polygon class="cls-3" points="362.76 470.1 363.61 442.1 367.53 442.84 366.37 470.1 362.76 470.1"/><polygon class="cls-2" points="362.76 90.4 358.18 90.89 348.52 465 350.3 465 362.76 90.4"/><polygon class="cls-2" points="306.96 193.39 337.29 197.24 337.29 174.14 307.07 166.43 306.96 193.39"/><polygon class="cls-8" points="307.07 166.43 306.96 193.39 330.48 186.65 330.48 154.89 307.07 166.43"/><polygon class="cls-2" points="240.8 100.51 159.15 341.03 149.31 155.3 155.86 150.19 157.84 150.19 240.8 100.51"/><g class="cls-17"><g class="cls-16"><path class="cls-14" d="M217.71,210.82c-3.65,2.81-6.85,6.79-9.58,11.95-2.74,5.16-4.77,10.99-6.1,17.49-1.33,6.5-1.76,13.03-1.3,19.6s1.73,11.79,3.79,15.64c2.06,3.87,4.67,6.12,7.81,6.76,3.14.64,6.54-.44,10.19-3.25,4.31-3.31,7.93-8.09,10.86-14.34,2.92-6.25,4.79-13.28,5.58-21.08l-8.82,6.78c-.65,3.86-1.71,7.21-3.19,10.06-1.47,2.84-3.25,5.06-5.33,6.66-2.23,1.71-4.27,2.33-6.14,1.85-1.87-.48-3.4-2.03-4.61-4.63-1.2-2.61-1.96-6.11-2.27-10.51s-.11-8.72.62-12.78c.73-4.05,1.9-7.66,3.51-10.82,1.6-3.15,3.52-5.57,5.75-7.29,2.08-1.6,3.97-2.21,5.67-1.84,1.7.38,3.1,1.82,4.21,4.33l8.82-6.78c-1.76-5.78-4.38-9.34-7.86-10.69-3.49-1.36-7.36-.4-11.64,2.89"/></g></g></g></g></svg>